<svg width="564" height="160" viewBox="0 0 564 160" fill="none" xmlns="http://www.w3.org/2000/svg">
<g clip-path="url(#clip0_769_13)">
<mask id="mask0_769_13" style="mask-type:luminance" maskUnits="userSpaceOnUse" x="0" y="0" width="564" height="160">
<path d="M564 0H0V160H564V0Z" fill="white"/>
</mask>
<g mask="url(#mask0_769_13)">
<path d="M157.872 79.5041C158.086 79.772 158.274 80.0131 158.462 80.2809L158.596 80.4952C158.676 80.6292 158.757 80.7631 158.837 80.897C158.917 81.031 158.998 81.1917 159.051 81.3256C159.132 81.4596 159.186 81.6203 159.266 81.7542C159.346 81.8882 159.4 82.0489 159.454 82.1828L159.534 82.3971L159.615 82.6114L159.695 82.8257L159.775 83.04C159.856 83.3347 159.936 83.6293 159.99 83.9508L160.044 84.1919L160.07 84.4329V84.674L160.124 84.9151V85.1562V85.3973V85.6384V85.8794V86.1205V86.3616V86.6027C160.124 86.7634 160.097 86.8974 160.07 87.0581V87.2724L160.017 87.4867L159.963 87.701L159.909 87.9153L159.856 88.1296L159.802 88.3439L159.749 88.5582L159.668 88.7725L159.588 88.9868L159.507 89.2011L159.427 89.4154L159.346 89.6297L159.239 89.844L159.132 90.0582L159.025 90.2725L158.917 90.4868L158.81 90.6744L158.676 90.8619L158.542 91.0494L158.408 91.2369L158.274 91.4244C158.033 91.7458 157.764 92.0405 157.496 92.3352L92.4762 157.295L92.2885 157.455L92.1008 157.616L91.9131 157.777L91.7254 157.937C91.7254 157.937 91.4841 158.125 91.3769 158.205H91.35L91.1623 158.366L90.9747 158.5L90.787 158.634L90.5993 158.768L90.4116 158.875L90.1971 158.982L89.9826 159.089L89.7681 159.196L89.5536 159.277L89.3391 159.357L89.1246 159.438L88.9101 159.518L88.6956 159.571L88.4811 159.625L88.2666 159.679L88.0521 159.732L87.8376 159.786L87.6231 159.839H87.3818L87.1673 159.893H86.926H86.6847C86.5238 159.92 86.3897 159.92 86.2289 159.946H85.9875H85.7462H85.5049H85.2636H85.0223L84.781 159.893H84.5397L84.2984 159.839H84.0571V159.813L83.8426 159.759L83.6281 159.705L83.4136 159.652L83.1991 159.598L82.9846 159.545L82.7701 159.464L82.5555 159.384L82.341 159.304L82.1265 159.223L81.912 159.116L81.6975 159.009L81.483 158.902L81.2686 158.795L81.0541 158.687L80.8396 158.554L80.6251 158.42L80.4374 158.286L80.2229 158.152L80.0352 158.018L79.8475 157.884L79.6598 157.723L79.4721 157.562L79.2844 157.402L79.0967 157.241L78.9091 157.053L59.9258 138.088L2.97618 81.2453C1.82325 80.0934 1.01887 78.7808 0.536249 77.3611L0.455812 77.1468L0.402187 76.9325C0.321749 76.7182 0.268125 76.4771 0.241312 76.2361L0.187687 75.995V75.7807H0.160875V75.5396L0.10725 75.2985H0.0536249V75.0574V74.8163L0.0268125 74.5752V74.3342V74.0931L0 73.9056V73.6645C0 73.5038 0 73.3698 0.0268125 73.2091H0.0536249C0.0536249 73.0484 0.0804374 72.9144 0.10725 72.7537C0.375374 70.8518 1.23337 69.0571 2.68125 67.6106L67.7015 2.67838C71.2139 -0.830746 76.8981 -0.884321 80.7591 2.43729C80.9468 2.6248 81.1345 2.78552 81.3222 2.97303L106.606 28.2334L157.201 78.7808C157.443 79.0219 157.657 79.263 157.872 79.5309" fill="white"/>
<path d="M32.041 89.201V38.3053L41.4254 28.903V57.9939L67.0849 27.9922H76.5765L51.8554 56.8689L81.3223 89.201H70.0074L41.4254 57.9939V89.201H32.041Z" fill="#1B1B1B"/>
<path d="M88.5347 82.156H93.2537C102.236 82.156 108.617 80.3612 112.425 76.8253C116.232 73.2626 118.136 67.2891 118.136 58.8779C118.136 50.4667 116.42 44.2521 112.988 40.5822C109.556 36.9124 103.818 35.0641 95.8008 35.0641H88.5347V82.156ZM79.1235 89.201V27.9922H97.5973C101.11 27.9922 104.327 28.2869 107.25 28.8762L127.44 49.047C127.922 51.5918 128.163 54.3776 128.163 57.3778C128.163 66.4319 125.938 73.7716 121.514 79.3701C118.752 82.906 115.32 85.424 111.272 86.9241C107.196 88.4242 101.807 89.201 95.0501 89.201H79.0967H79.1235Z" fill="#1B1B1B"/>
<path d="M101.056 88.7728V97.3983C94.0849 94.5053 87.5694 93.0588 81.5098 93.0588C74.5118 93.0588 68.7471 95.3893 64.2158 100.023C59.6845 104.658 57.4322 110.578 57.4322 117.783C57.4322 124.989 59.9794 130.936 65.1006 135.57C70.195 140.204 76.7104 142.508 84.6469 142.508C86.4433 142.508 88.7224 142.32 91.5109 141.945V125.766H78.7749V118.694H101.914V147.142C94.8356 149.178 88.1325 150.196 81.8048 150.196C77.8365 150.196 74.1364 149.767 70.7312 148.937L47.0022 125.23C46.5732 123.087 46.3855 120.81 46.3855 118.426C46.3855 108.783 49.6566 100.988 56.1989 94.9874C62.7411 89.0139 71.2943 86.0137 81.8584 86.0137C87.8376 86.0137 94.2457 86.9245 101.083 88.7728" fill="#1B1B1B"/>
<path d="M180.341 9.75H176.721V150.275H180.341V9.75Z" fill="white"/>
<path d="M197.393 46.4487H200.262V57.1904H200.369C200.959 56.3332 201.576 55.5296 202.139 54.8063L208.949 46.4487H212.516L204.445 55.9046L213.159 68.7357H209.754L202.407 57.7797L200.289 60.2174V68.7089H197.42V46.4219L197.393 46.4487Z" fill="white"/>
<path d="M219.272 61.7169L216.966 68.7352H213.99L221.578 46.4482H225.064L232.679 68.7352H229.595L227.209 61.7169H219.299H219.272ZM226.592 59.4668L224.42 53.0647C223.911 51.6182 223.589 50.2788 223.267 48.993H223.214C222.892 50.3056 222.517 51.6717 222.088 53.0379L219.889 59.4936H226.619L226.592 59.4668Z" fill="white"/>
<path d="M235.923 46.7435C237.371 46.4488 239.462 46.2881 241.446 46.2881C244.53 46.2881 246.514 46.8506 247.908 48.1096C249.034 49.1008 249.651 50.6276 249.651 52.342C249.651 55.2886 247.801 57.2441 245.441 58.0209V58.128C247.157 58.7174 248.176 60.2978 248.712 62.6283C249.436 65.7356 249.973 67.8786 250.428 68.7358H247.452C247.104 68.1197 246.594 66.191 245.978 63.4051C245.307 60.3246 244.127 59.1727 241.5 59.0656H238.792V68.709H235.923V46.7167V46.7435ZM238.819 56.8958H241.768C244.851 56.8958 246.809 55.2082 246.809 52.6635C246.809 49.7972 244.717 48.5382 241.688 48.4846C240.293 48.4846 239.301 48.6186 238.845 48.7525V56.8958H238.819Z" fill="white"/>
<path d="M256.622 46.4482H253.753V68.7352H256.622V46.4482Z" fill="white"/>
<path d="M261.663 68.7352V46.4482H264.8L271.959 57.7256C273.621 60.3508 274.908 62.6813 275.954 64.9582H276.034C275.766 61.958 275.712 59.2257 275.712 55.7702V46.4482H278.421V68.7352H275.498L268.419 57.431C266.864 54.9666 265.363 52.395 264.264 49.9841H264.156C264.317 52.8236 264.398 55.5023 264.398 59.1989V68.7084H261.69L261.663 68.7352Z" fill="white"/>
<path d="M287.054 61.7169L284.748 68.7352H281.772L289.36 46.4482H292.846L300.46 68.7352H297.377L294.991 61.7169H287.081H287.054ZM294.374 59.4668L292.202 53.0647C291.693 51.6182 291.371 50.2788 291.049 48.993H290.996C290.674 50.3056 290.298 51.6717 289.869 53.0379L287.671 59.4936H294.401L294.374 59.4668Z" fill="white"/>
<path d="M310.73 46.7435C312.472 46.4756 314.564 46.2881 316.843 46.2881C320.972 46.2881 323.921 47.2524 325.879 49.074C327.863 50.8955 329.016 53.4671 329.016 57.0833C329.016 60.6996 327.89 63.6998 325.798 65.7356C323.707 67.825 320.275 68.9501 315.931 68.9501C313.867 68.9501 312.151 68.8429 310.703 68.6822V46.7703L310.73 46.7435ZM313.599 66.4589C314.322 66.5928 315.395 66.6196 316.521 66.6196C322.688 66.6196 326.013 63.1908 326.013 57.1637C326.039 51.9134 323.063 48.565 316.977 48.565C315.475 48.565 314.349 48.6989 313.599 48.8597V66.4589Z" fill="white"/>
<path d="M351.833 57.3506C351.833 65.0385 347.168 69.0834 341.483 69.0834C335.799 69.0834 331.456 64.5296 331.456 57.7792C331.456 50.7074 335.853 46.0732 341.805 46.0732C347.758 46.0732 351.833 50.7342 351.833 57.3506ZM334.512 57.7256C334.512 62.4938 337.086 66.7529 341.617 66.7529C346.149 66.7529 348.776 62.5473 348.776 57.4846C348.776 53.0647 346.471 48.4305 341.671 48.4305C336.872 48.4305 334.512 52.8236 334.512 57.7256Z" fill="white"/>
<path d="M355.587 68.7352V46.4482H358.724L365.883 57.7256C367.545 60.3508 368.832 62.6813 369.878 64.9582H369.958C369.69 61.958 369.637 59.2257 369.637 55.7702V46.4482H372.345V68.7352H369.422L362.344 57.431C360.788 54.9666 359.287 52.395 358.161 49.9841H358.054C358.214 52.8236 358.295 55.5023 358.295 59.1989V68.7084H355.587V68.7352Z" fill="white"/>
<path d="M380.951 61.7169L378.645 68.7352H375.669L383.257 46.4482H386.743L394.358 68.7352H391.274L388.888 61.7169H380.978H380.951ZM388.271 59.4668L386.099 53.0647C385.59 51.6182 385.268 50.2788 384.946 48.993H384.893C384.571 50.3056 384.196 51.6717 383.767 53.0379L381.568 59.4936H388.298L388.271 59.4668Z" fill="white"/>
<path d="M399.318 48.8859H392.508V46.4482H409.024V48.8859H402.214V68.7352H399.318V48.8859Z" fill="white"/>
<path d="M412.644 61.7169L410.338 68.7352H407.362L414.95 46.4482H418.435L426.05 68.7352H422.966L420.58 61.7169H412.67H412.644ZM419.963 59.4668L417.792 53.0647C417.282 51.6182 416.96 50.2788 416.639 48.993H416.585C416.263 50.3056 415.888 51.6717 415.459 53.0379L413.26 59.4936H419.99L419.963 59.4668Z" fill="white"/>
<path d="M453.291 67.744C452.004 68.1993 449.457 68.9762 446.427 68.9762C443.049 68.9762 440.26 68.119 438.089 66.0296C436.158 64.1813 434.978 61.2079 434.978 57.7255C435.005 51.0823 439.59 46.207 447.071 46.207C449.645 46.207 451.683 46.7696 452.621 47.225L451.924 49.5822C450.744 49.0465 449.243 48.6179 446.99 48.6179C441.574 48.6179 438.008 51.9931 438.008 57.5648C438.008 63.1366 441.413 66.5653 446.615 66.5653C448.492 66.5653 449.779 66.2974 450.449 65.976V59.3328H445.918V57.0291H453.265V67.744H453.291Z" fill="white"/>
<path d="M461.308 61.7169L459.002 68.7352H456.026L463.614 46.4482H467.1L474.715 68.7352H471.631L469.245 61.7169H461.335H461.308ZM468.628 59.4668L466.456 53.0647C465.947 51.6182 465.625 50.2788 465.303 48.993H465.25C464.928 50.3056 464.553 51.6717 464.124 53.0379L461.952 59.4936H468.682L468.628 59.4668Z" fill="white"/>
<path d="M477.959 46.7435C479.407 46.4488 481.498 46.2881 483.482 46.2881C486.566 46.2881 488.55 46.8506 489.944 48.1096C491.07 49.1008 491.687 50.6276 491.687 52.342C491.687 55.2886 489.837 57.2441 487.477 58.0209V58.128C489.193 58.7174 490.239 60.2978 490.748 62.6283C491.472 65.7356 492.009 67.8786 492.464 68.7358H489.488C489.14 68.1197 488.63 66.191 487.987 63.4051C487.316 60.3246 486.137 59.1727 483.509 59.0656H480.801V68.709H477.932V46.7167L477.959 46.7435ZM480.855 56.8958H483.804C486.887 56.8958 488.845 55.2082 488.845 52.6635C488.845 49.7972 486.753 48.5382 483.724 48.4846C482.329 48.4846 481.337 48.6186 480.881 48.7525V56.8958H480.855Z" fill="white"/>
<path d="M511.367 68.0125C510.321 68.5483 508.203 69.084 505.468 69.084C499.167 69.084 494.448 65.1195 494.448 57.8066C494.448 50.4937 499.194 46.1006 506.112 46.1006C508.9 46.1006 510.643 46.6899 511.394 47.0917L510.697 49.449C509.598 48.9132 508.042 48.5114 506.192 48.5114C500.964 48.5114 497.478 51.8598 497.478 57.6994C497.478 63.164 500.615 66.6731 506.058 66.6731C507.801 66.6731 509.598 66.2981 510.75 65.7356L511.34 68.0125H511.367Z" fill="white"/>
<path d="M517.856 46.4482H514.987V68.7352H517.856V46.4482Z" fill="white"/>
<path d="M526.489 61.7169L524.183 68.7352H521.207L528.795 46.4482H532.281L539.896 68.7352H536.812L534.426 61.7169H526.516H526.489ZM533.809 59.4668L531.637 53.0647C531.128 51.6182 530.806 50.2788 530.484 48.993H530.431C530.109 50.3056 529.734 51.6717 529.305 53.0379L527.106 59.4936H533.836L533.809 59.4668Z" fill="white"/>
<path d="M203.104 103.237L200.611 110.791H197.393L205.571 86.7363H209.325L217.529 110.791H214.205L211.631 103.237H203.104ZM211.014 100.826L208.655 93.8885C208.118 92.308 207.77 90.8883 207.394 89.4954H207.314C206.965 90.9151 206.563 92.3884 206.107 93.8349L203.748 100.799H210.987L211.014 100.826Z" fill="white"/>
<path d="M235.467 85.4775V106.345C235.467 107.872 235.494 109.64 235.601 110.792H232.786L232.652 107.792H232.571C231.606 109.72 229.488 111.194 226.672 111.194C222.49 111.194 219.272 107.658 219.272 102.407C219.245 96.6745 222.811 93.1386 227.021 93.1386C229.675 93.1386 231.445 94.3976 232.249 95.7905H232.33V85.4775H235.467ZM232.33 100.559C232.33 100.157 232.303 99.6211 232.196 99.2461C231.74 97.2638 230.024 95.603 227.665 95.603C224.42 95.603 222.49 98.4693 222.49 102.274C222.49 105.783 224.206 108.649 227.611 108.649C229.729 108.649 231.633 107.256 232.223 104.899C232.33 104.47 232.357 104.042 232.357 103.533V100.532L232.33 100.559Z" fill="white"/>
<path d="M241.902 93.54L245.307 103.237C245.87 104.817 246.326 106.237 246.701 107.657H246.809C247.211 106.237 247.693 104.791 248.283 103.237L251.635 93.54H254.933L248.149 110.818H245.146L238.577 93.54H241.929H241.902Z" fill="white"/>
<path d="M273.138 102.032C273.138 108.408 268.714 111.194 264.532 111.194C259.839 111.194 256.247 107.765 256.247 102.3C256.247 96.5139 260.027 93.1387 264.827 93.1387C269.626 93.1387 273.138 96.755 273.138 102.032ZM259.437 102.22C259.437 105.997 261.609 108.863 264.693 108.863C267.776 108.863 269.948 106.051 269.948 102.14C269.948 99.2194 268.473 95.496 264.773 95.496C261.073 95.496 259.437 98.9248 259.437 102.193V102.22Z" fill="white"/>
<path d="M292.014 93.54C291.934 94.799 291.88 96.1919 291.88 98.2813V108.3C291.88 112.264 291.103 114.675 289.414 116.175C287.724 117.756 285.311 118.238 283.14 118.238C280.968 118.238 278.796 117.729 277.402 116.818L278.179 114.434C279.332 115.157 281.102 115.8 283.247 115.8C286.464 115.8 288.824 114.112 288.824 109.773V107.844H288.743C287.778 109.452 285.928 110.737 283.247 110.737C278.957 110.737 275.9 107.094 275.9 102.326C275.9 96.4866 279.734 93.165 283.676 93.165C286.679 93.165 288.314 94.7454 289.065 96.1652H289.145L289.28 93.5668H292.041L292.014 93.54ZM288.77 100.344C288.77 99.8082 288.743 99.3528 288.582 98.9242C288.019 97.1027 286.464 95.6026 284.185 95.6026C281.182 95.6026 279.037 98.1474 279.037 102.139C279.037 105.541 280.753 108.353 284.132 108.353C286.062 108.353 287.805 107.148 288.502 105.139C288.69 104.603 288.743 103.987 288.743 103.451V100.344H288.77Z" fill="white"/>
<path d="M306.654 110.819L306.413 108.649H306.305C305.34 109.988 303.49 111.22 301.023 111.22C297.511 111.22 295.741 108.756 295.741 106.265C295.741 102.086 299.468 99.8088 306.145 99.8356V99.4874C306.145 98.0677 305.742 95.4961 302.203 95.4961C300.594 95.4961 298.905 96.005 297.699 96.7819L296.975 94.7193C298.396 93.7817 300.487 93.1924 302.659 93.1924C307.941 93.1924 309.228 96.8087 309.228 100.265V106.72C309.228 108.22 309.308 109.694 309.523 110.845H306.654V110.819ZM306.198 102.006C302.766 101.925 298.878 102.541 298.878 105.89C298.878 107.926 300.219 108.89 301.855 108.89C304.107 108.89 305.528 107.47 306.037 105.997C306.145 105.676 306.225 105.327 306.225 105.006V102.006H306.198Z" fill="white"/>
<path d="M329.23 85.4775V106.345C329.23 107.872 329.257 109.64 329.364 110.792H326.549L326.415 107.792H326.334C325.369 109.72 323.251 111.194 320.436 111.194C316.253 111.194 313.035 107.658 313.035 102.407C313.009 96.6745 316.575 93.1386 320.784 93.1386C323.439 93.1386 325.208 94.3976 326.013 95.7905H326.093V85.4775H329.23ZM326.093 100.559C326.093 100.157 326.066 99.6211 325.959 99.2461C325.503 97.2638 323.787 95.603 321.428 95.603C318.183 95.603 316.253 98.4693 316.253 102.274C316.253 105.783 317.969 108.649 321.374 108.649C323.492 108.649 325.396 107.256 325.986 104.899C326.093 104.47 326.12 104.042 326.12 103.533V100.532L326.093 100.559Z" fill="white"/>
<path d="M350.09 102.032C350.09 108.408 345.666 111.194 341.483 111.194C336.818 111.194 333.198 107.765 333.198 102.3C333.198 96.5139 336.979 93.1387 341.778 93.1387C346.578 93.1387 350.09 96.755 350.09 102.032ZM336.362 102.22C336.362 105.997 338.534 108.863 341.617 108.863C344.701 108.863 346.873 106.051 346.873 102.14C346.873 99.2194 345.398 95.496 341.698 95.496C337.998 95.496 336.362 98.9248 336.362 102.193V102.22Z" fill="white"/>
<path d="M353.629 107.603C354.568 108.219 356.203 108.862 357.785 108.862C360.064 108.862 361.137 107.71 361.137 106.291C361.137 104.791 360.252 103.96 357.919 103.103C354.809 102.005 353.335 100.29 353.335 98.2278C353.335 95.4419 355.587 93.165 359.287 93.165C361.03 93.165 362.585 93.674 363.55 94.2365L362.773 96.5134C362.102 96.0848 360.842 95.5223 359.233 95.5223C357.383 95.5223 356.338 96.5938 356.338 97.8795C356.338 99.2993 357.356 99.9422 359.635 100.799C362.638 101.951 364.167 103.451 364.167 105.996C364.167 109.023 361.807 111.166 357.705 111.166C355.801 111.166 354.058 110.711 352.852 109.987L353.629 107.603Z" fill="white"/>
<path d="M379.772 103.237L377.278 110.791H374.061L382.238 86.7363H385.992L394.197 110.791H390.872L388.298 103.237H379.772ZM387.654 100.826L385.295 93.8885C384.759 92.308 384.41 90.8883 384.035 89.4954H383.954C383.606 90.9151 383.204 92.3884 382.748 93.8349L380.388 100.799H387.628L387.654 100.826Z" fill="white"/>
<path d="M396.985 107.603C397.924 108.219 399.559 108.862 401.114 108.862C403.393 108.862 404.466 107.71 404.466 106.291C404.466 104.791 403.581 103.96 401.248 103.103C398.138 102.005 396.69 100.29 396.69 98.2278C396.69 95.4419 398.942 93.165 402.643 93.165C404.385 93.165 405.941 93.674 406.879 94.2365L406.101 96.5134C405.431 96.0848 404.171 95.5223 402.562 95.5223C400.712 95.5223 399.666 96.5938 399.666 97.8795C399.666 99.2993 400.712 99.9422 402.964 100.799C405.967 101.951 407.496 103.451 407.496 105.996C407.496 109.023 405.136 111.166 401.034 111.166C399.13 111.166 397.387 110.711 396.181 109.987L396.958 107.603H396.985Z" fill="white"/>
<path d="M411.115 107.603C412.054 108.219 413.689 108.862 415.245 108.862C417.524 108.862 418.596 107.71 418.596 106.291C418.596 104.791 417.711 103.96 415.379 103.103C412.268 102.005 410.82 100.29 410.82 98.2278C410.82 95.4419 413.073 93.165 416.773 93.165C418.516 93.165 420.071 93.674 421.009 94.2365L420.232 96.5134C419.561 96.0848 418.301 95.5223 416.692 95.5223C414.842 95.5223 413.797 96.5938 413.797 97.8795C413.797 99.2993 414.842 99.9422 417.095 100.799C420.098 101.951 421.626 103.451 421.626 105.996C421.626 109.023 419.266 111.166 415.164 111.166C413.26 111.166 411.518 110.711 410.311 109.987L411.089 107.603H411.115Z" fill="white"/>
<path d="M441.333 102.032C441.333 108.408 436.909 111.194 432.726 111.194C428.034 111.194 424.441 107.765 424.441 102.3C424.441 96.5139 428.222 93.1387 433.021 93.1387C437.821 93.1387 441.333 96.755 441.333 102.032ZM427.632 102.22C427.632 105.997 429.804 108.863 432.887 108.863C435.971 108.863 438.142 106.051 438.142 102.14C438.142 99.2194 436.668 95.496 432.968 95.496C429.267 95.496 427.659 98.9248 427.659 102.193L427.632 102.22Z" fill="white"/>
<path d="M457.635 110.176C456.804 110.604 454.981 111.167 452.675 111.167C447.473 111.167 444.068 107.631 444.068 102.354C444.068 97.0765 447.714 93.1924 453.345 93.1924C455.195 93.1924 456.857 93.6478 457.715 94.0764L456.991 96.514C456.241 96.0854 455.061 95.6836 453.345 95.6836C449.377 95.6836 447.232 98.6034 447.232 102.22C447.232 106.211 449.806 108.676 453.238 108.676C455.034 108.676 456.214 108.22 457.099 107.819L457.635 110.176Z" fill="white"/>
<path d="M464.794 88.6918C464.821 89.7633 464.043 90.6204 462.783 90.6204C461.684 90.6204 460.879 89.7633 460.879 88.6918C460.879 87.6203 461.71 86.7363 462.837 86.7363C463.963 86.7363 464.767 87.5935 464.767 88.6918M461.308 93.5402H464.445V110.818H461.308V93.5402Z" fill="white"/>
<path d="M479.219 110.819L478.978 108.649H478.871C477.905 109.988 476.055 111.22 473.588 111.22C470.076 111.22 468.306 108.756 468.306 106.265C468.306 102.086 472.006 99.8088 478.71 99.8356V99.4874C478.71 98.0677 478.307 95.4961 474.768 95.4961C473.159 95.4961 471.47 96.005 470.264 96.7819L469.54 94.7193C470.961 93.7817 473.052 93.1924 475.224 93.1924C480.506 93.1924 481.793 96.8087 481.793 100.265V106.72C481.793 108.22 481.873 109.694 482.088 110.845H479.219V110.819ZM478.763 102.006C475.331 101.925 471.443 102.541 471.443 105.89C471.443 107.926 472.811 108.89 474.393 108.89C476.645 108.89 478.066 107.47 478.576 105.997C478.683 105.676 478.763 105.327 478.763 105.006V102.006Z" fill="white"/>
<path d="M501.795 85.4775V106.345C501.795 107.872 501.822 109.64 501.929 110.792H499.114L498.98 107.792H498.899C497.934 109.72 495.816 111.194 493.001 111.194C488.818 111.194 485.6 107.658 485.6 102.407C485.574 96.6745 489.14 93.1386 493.349 93.1386C496.004 93.1386 497.773 94.3976 498.578 95.7905H498.658V85.4775H501.795ZM498.658 100.559C498.658 100.157 498.631 99.6211 498.524 99.2461C498.068 97.2638 496.352 95.603 493.993 95.603C490.748 95.603 488.818 98.4693 488.818 102.274C488.818 105.783 490.534 108.649 493.939 108.649C496.057 108.649 497.961 107.256 498.551 104.899C498.658 104.47 498.685 104.042 498.685 103.533V100.532L498.658 100.559Z" fill="white"/>
<path d="M522.655 102.032C522.655 108.408 518.231 111.194 514.048 111.194C509.383 111.194 505.763 107.765 505.763 102.3C505.763 96.5139 509.544 93.1387 514.343 93.1387C519.143 93.1387 522.655 96.755 522.655 102.032ZM508.954 102.22C508.954 105.997 511.126 108.863 514.209 108.863C517.293 108.863 519.464 106.051 519.464 102.14C519.464 99.2194 517.99 95.496 514.29 95.496C510.59 95.496 508.954 98.9248 508.954 102.193V102.22Z" fill="white"/>
<path d="M526.194 107.603C527.133 108.219 528.768 108.862 530.324 108.862C532.603 108.862 533.675 107.71 533.675 106.291C533.675 104.791 532.79 103.96 530.458 103.103C527.347 102.005 525.873 100.29 525.873 98.2278C525.873 95.4419 528.125 93.165 531.825 93.165C533.568 93.165 535.123 93.674 536.061 94.2365L535.284 96.5134C534.614 96.0848 533.353 95.5223 531.745 95.5223C529.895 95.5223 528.849 96.5938 528.849 97.8795C528.849 99.2993 529.868 99.9422 532.12 100.799C535.123 101.951 536.651 103.451 536.651 105.996C536.651 109.023 534.292 111.166 530.19 111.166C528.286 111.166 526.543 110.711 525.336 109.987L526.114 107.603H526.194Z" fill="white"/>
<path d="M560.568 92.5762C559.951 91.9601 559.361 91.3172 558.503 90.4064C556.6 92.2012 554.428 92.9512 551.988 92.9512C547.671 92.9512 545.151 90.0582 545.151 86.7098C545.151 83.6828 546.974 81.5934 549.521 80.2005V80.0934C548.368 78.6469 547.671 77.0396 547.671 75.4324C547.671 72.7269 549.629 69.9678 553.329 69.9678C556.09 69.9678 558.235 71.8161 558.235 74.6823C558.235 77.0128 556.895 78.8612 553.355 80.6291V80.7363C555.232 82.906 557.351 85.3704 558.772 86.9509C559.79 85.3972 560.488 83.2543 560.917 80.4416H563.544C562.954 83.9507 561.989 86.7098 560.354 88.6653C561.533 89.9243 562.686 91.1833 564.027 92.603H560.595L560.568 92.5762ZM557.056 88.7456C555.742 87.2991 553.248 84.5936 550.781 81.7542C549.602 82.5042 547.913 83.9239 547.913 86.2812C547.913 88.826 549.789 90.7547 552.471 90.7547C554.401 90.7547 556.01 89.8975 557.056 88.7456ZM550.299 75.1913C550.299 76.7717 551.023 78.004 551.988 79.1826C554.24 77.8968 555.688 76.7182 555.688 74.8163C555.688 73.4769 554.937 71.9501 553.114 71.9501C551.291 71.9501 550.299 73.4769 550.299 75.1913Z" fill="white"/>
</g>
</g>
<defs>
<clipPath id="clip0_769_13">
<rect width="564" height="160" fill="white"/>
</clipPath>
</defs>
</svg>
