<?xml version="1.0" encoding="UTF-8"?>
<svg id="Camada_2" data-name="Camada 2" xmlns="http://www.w3.org/2000/svg" viewBox="0 0 571.66 208.84"  fill="#fff">
  <defs>
    <style>
      .cls-1 {
        fill-rule: evenodd;
      }

      .cls-2 {
        stroke: #fff;
        stroke-miterlimit: 22.93;
        stroke-width: .22px;
      }
    </style>
  </defs>
  <g id="Camada_1-2" data-name="Camada 1">
    <g>
      <path class="cls-1" d="M425.87,43.5c.09,1.05.13,2.11.13,3.18,0,14.12-7.7,26.43-19.13,32.98,11.89,7.18,19.84,16.35,19.84,35.13s-18.36,42.14-41.01,42.14h-99.64v-89.81h25.72v64.37l69.36-.03c9.99-.31,17.99-9.77,17.99-19.83s-8-18.26-17.99-18.57h0s-.59-.01-.59-.01h-29.63l.18-.28h-12.92v-25.72h36.95c10.42,0,18.65-8.88,18.65-19.3,0-1.46-.17-2.87-.48-4.23h32.58Z"/>
      <path class="cls-1" d="M139.29.12h28.73v66.82h75.17V.12h281.6c1-.08,2.02-.12,3.04-.12,10.02,0,19.96,1.47,27.33,7.71,10.45,8.84,16.5,25.07,16.5,40.76,0,14.45-3.62,28.28-12.68,37.14-5.67,5.55-13.8,9.06-22.14,10.53v.24l32.6,60.88h-31.44l-32.45-60.6h-46.1v60.47h-25.72V43.5h25.72v27.44h29.53l39.06-.05c8.99-.01,16.27-10.42,16.27-22.77s-7.29-22.35-16.27-22.35c-.19,0-.37,0-.56.01v.05h-.67l-.29.03v-.03h-257.62v131.23h-25.72v-64.41h-75.17v64.37h-28.73V.12Z"/>
      <polygon class="cls-1" points="35.73 157.13 1.69 157.13 71.14 .12 105.99 .12 129.27 59.58 129.27 133.29 87.78 36.97 35.73 157.13"/>
      <path d="M571.06,201.02v-29.41h-1.59v29.41h1.59ZM561.87,201.02v-16.42h-1.63v16.42h1.63ZM562.39,180.36c-.21-.87-.65-1.31-1.31-1.31-.87.16-1.31.6-1.31,1.31.03.4.16.71.4.95.32.24.62.36.91.36.87,0,1.31-.44,1.31-1.31ZM552.72,196.53c0-1.48-.57-2.66-1.71-3.54-.29-.21-.73-.46-1.31-.74-.58-.28-1.33-.58-2.23-.89-1.03-.34-1.79-.7-2.27-1.07-.58-.48-.87-1.09-.87-1.83,0-1.67.95-2.5,2.86-2.5,1.4,0,2.56.45,3.46,1.35l1.19-1.03c-1.27-1.27-2.82-1.91-4.65-1.91-1.33,0-2.4.41-3.22,1.23-.85.79-1.27,1.75-1.27,2.86,0,1.3.42,2.29,1.27,2.98.58.48,1.54.95,2.86,1.43.72.26,1.32.5,1.81.7.49.2.87.38,1.13.54.87.69,1.31,1.5,1.31,2.42,0,2.12-1.25,3.18-3.74,3.18-1.14,0-2.04-.25-2.7-.76-.64-.45-1.18-1.09-1.63-1.91l-1.39.83c1.27,2.3,3.18,3.46,5.72,3.46,1.48,0,2.76-.45,3.82-1.35,1.03-.87,1.55-2.03,1.55-3.46ZM533.23,192.84c0,1.91-.68,3.54-2.03,4.89-1.32,1.33-2.94,1.99-4.85,1.99s-3.5-.68-4.85-2.03c-1.35-1.35-2.03-2.97-2.03-4.85s.68-3.54,2.03-4.89c1.32-1.32,2.94-1.99,4.85-1.99s3.5.68,4.85,2.03c1.35,1.35,2.03,2.97,2.03,4.85ZM534.54,201.02v-16.42h-1.63v2.86c-1.75-2.07-3.93-3.1-6.56-3.1-2.39,0-4.4.82-6.04,2.46-1.62,1.62-2.42,3.62-2.42,6s.82,4.4,2.46,6.04c1.62,1.62,3.62,2.42,6,2.42,2.65,0,4.84-1.03,6.56-3.1v2.82h1.63ZM512.51,185.68c-.66-.48-1.26-.81-1.79-.99-.53-.19-1.21-.28-2.03-.28-.66,0-1.27.25-1.83.75-.56.5-1.01,1.06-1.35,1.67v-2.23h-1.63v16.42h1.63v-10.81c0-.42.09-.89.26-1.39.17-.5.4-.96.7-1.37.29-.41.64-.75,1.03-1.03.4-.28.82-.42,1.27-.42.53,0,1.03.09,1.51.28.48.19.93.44,1.35.75l.87-1.35ZM494.54,192.8c0,1.96-.72,3.55-2.15,4.77-1.4,1.22-3.11,1.83-5.13,1.83h-7.31v-13.16h7.31c2.04,0,3.74.58,5.09,1.75,1.46,1.22,2.19,2.82,2.19,4.81ZM490.96,179.44c0,1.54-.5,2.78-1.51,3.74-1.01.95-2.28,1.43-3.82,1.43h-5.68v-10.33h5.45c1.56,0,2.89.48,3.97,1.43,1.06.9,1.59,2.15,1.59,3.74ZM496.13,192.8c0-2.04-.6-3.76-1.79-5.17-1.22-1.4-2.82-2.31-4.81-2.7,2.04-1.17,3.06-2.99,3.06-5.48,0-2.17-.69-3.87-2.07-5.09-1.3-1.14-3.05-1.71-5.25-1.71h-6.92v28.38h8.86c2.49,0,4.6-.77,6.32-2.3,1.72-1.51,2.58-3.48,2.58-5.92ZM458.44,192.84c0,1.91-.68,3.54-2.03,4.89-1.32,1.33-2.94,1.99-4.85,1.99s-3.5-.68-4.85-2.03c-1.35-1.35-2.03-2.97-2.03-4.85s.69-3.47,2.07-4.85c1.35-1.38,2.95-2.07,4.81-2.07s3.56.68,4.89,2.03c1.32,1.32,1.99,2.95,1.99,4.89ZM460.03,192.84c0-2.38-.82-4.4-2.46-6.04-1.64-1.64-3.64-2.46-6-2.46s-4.39.83-6,2.5c-1.64,1.64-2.46,3.64-2.46,6s.82,4.4,2.46,6.04c1.62,1.62,3.62,2.42,6,2.42s4.4-.82,6.04-2.46c1.62-1.62,2.42-3.62,2.42-6ZM434.34,192.84c0,1.91-.68,3.54-2.03,4.89-1.32,1.33-2.94,1.99-4.85,1.99s-3.5-.68-4.85-2.03c-1.35-1.35-2.03-2.97-2.03-4.85s.68-3.54,2.03-4.89c1.33-1.32,2.94-1.99,4.85-1.99s3.5.68,4.85,2.03c1.35,1.35,2.03,2.97,2.03,4.85ZM435.78,201.02v-29.41h-1.63v15.98c-1.83-2.15-4.05-3.22-6.68-3.22-2.38,0-4.4.82-6.04,2.46-1.62,1.62-2.42,3.62-2.42,6s.82,4.4,2.46,6.04c1.62,1.62,3.62,2.42,6,2.42,2.7,0,4.93-1.07,6.68-3.22v2.94h1.63ZM402.38,185.68c-.66-.48-1.26-.81-1.79-.99-.53-.19-1.21-.28-2.03-.28-.66,0-1.27.25-1.83.75-.56.5-1.01,1.06-1.35,1.67v-2.23h-1.63v16.42h1.63v-10.81c0-.42.09-.89.26-1.39.17-.5.4-.96.7-1.37.29-.41.64-.75,1.03-1.03.4-.28.82-.42,1.27-.42.53,0,1.03.09,1.51.28.48.19.93.44,1.35.75l.87-1.35ZM383.89,192.84c0,1.91-.68,3.54-2.03,4.89-1.32,1.33-2.94,1.99-4.85,1.99s-3.5-.68-4.85-2.03c-1.35-1.35-2.03-2.97-2.03-4.85s.68-3.54,2.03-4.89c1.32-1.32,2.94-1.99,4.85-1.99s3.5.68,4.85,2.03c1.35,1.35,2.03,2.97,2.03,4.85ZM385.2,201.02v-16.42h-1.63v2.86c-1.75-2.07-3.93-3.1-6.56-3.1-2.39,0-4.4.82-6.04,2.46-1.62,1.62-2.42,3.62-2.42,6s.82,4.4,2.46,6.04c1.62,1.62,3.62,2.42,6,2.42,2.65,0,4.84-1.03,6.56-3.1v2.82h1.63ZM360.47,201.02v-29.41h-1.59v29.41h1.59ZM348.57,192.84c0,1.91-.68,3.54-2.03,4.89-1.32,1.33-2.94,1.99-4.85,1.99s-3.5-.68-4.85-2.03c-1.35-1.35-2.03-2.97-2.03-4.85s.68-3.54,2.03-4.89,2.94-1.99,4.85-1.99,3.5.68,4.85,2.03c1.35,1.35,2.03,2.97,2.03,4.85ZM349.88,201.02v-16.42h-1.63v2.86c-1.75-2.07-3.93-3.1-6.56-3.1-2.39,0-4.4.82-6.04,2.46-1.62,1.62-2.42,3.62-2.42,6s.82,4.4,2.46,6.04c1.62,1.62,3.62,2.42,6,2.42,2.65,0,4.84-1.03,6.56-3.1v2.82h1.63ZM328.97,186.24v-1.63h-3.82v-7.19h-1.63v7.19h-2.23v1.63h2.23v14.79h1.63v-14.79h3.82ZM313.58,201.02v-16.42h-1.63v16.42h1.63ZM314.09,180.36c-.21-.87-.65-1.31-1.31-1.31-.87.16-1.31.6-1.31,1.31.03.4.16.71.4.95.32.24.62.36.91.36.87,0,1.31-.44,1.31-1.31ZM302.75,192.84c0,1.91-.68,3.54-2.03,4.89-1.32,1.33-2.94,1.99-4.85,1.99s-3.5-.68-4.85-2.03c-1.35-1.35-2.03-2.97-2.03-4.85s.68-3.54,2.03-4.89,2.94-1.99,4.85-1.99,3.5.68,4.85,2.03c1.35,1.35,2.03,2.97,2.03,4.85ZM304.34,192.84c0-2.38-.82-4.4-2.46-6.04-1.62-1.62-3.62-2.42-6-2.42-2.81,0-5.06,1.11-6.76,3.34v-3.1h-1.63v24.13h1.63v-10.77c1.78,2.23,4.03,3.34,6.76,3.34,2.38,0,4.4-.82,6.04-2.46,1.62-1.62,2.42-3.62,2.42-6ZM280.33,196.53c0-1.48-.57-2.66-1.71-3.54-.29-.21-.73-.46-1.31-.74-.58-.28-1.33-.58-2.23-.89-1.03-.34-1.79-.7-2.27-1.07-.58-.48-.87-1.09-.87-1.83,0-1.67.95-2.5,2.86-2.5,1.4,0,2.56.45,3.46,1.35l1.19-1.03c-1.27-1.27-2.82-1.91-4.65-1.91-1.33,0-2.4.41-3.22,1.23-.85.79-1.27,1.75-1.27,2.86,0,1.3.42,2.29,1.27,2.98.58.48,1.54.95,2.86,1.43.72.26,1.32.5,1.81.7.49.2.87.38,1.13.54.87.69,1.31,1.5,1.31,2.42,0,2.12-1.25,3.18-3.74,3.18-1.14,0-2.04-.25-2.7-.76-.64-.45-1.18-1.09-1.63-1.91l-1.39.83c1.27,2.3,3.18,3.46,5.72,3.46,1.48,0,2.76-.45,3.82-1.35,1.03-.87,1.55-2.03,1.55-3.46ZM261.32,192.84c0,1.91-.68,3.54-2.03,4.89-1.32,1.33-2.94,1.99-4.85,1.99s-3.5-.68-4.85-2.03c-1.35-1.35-2.03-2.97-2.03-4.85s.69-3.47,2.07-4.85c1.35-1.38,2.95-2.07,4.81-2.07s3.56.68,4.89,2.03c1.32,1.32,1.99,2.95,1.99,4.89ZM262.91,192.84c0-2.38-.82-4.4-2.46-6.04-1.64-1.64-3.64-2.46-6-2.46s-4.39.83-6,2.5c-1.64,1.64-2.46,3.64-2.46,6s.82,4.4,2.46,6.04c1.62,1.62,3.62,2.42,6,2.42s4.4-.82,6.04-2.46c1.62-1.62,2.42-3.62,2.42-6ZM238.3,201.02v-28.38h-1.63v11.96h-15.62v-11.96h-1.59v28.38h1.59v-14.79h15.62v14.79h1.63ZM199.53,192.84c0,1.91-.68,3.54-2.03,4.89-1.32,1.33-2.94,1.99-4.85,1.99s-3.5-.68-4.85-2.03c-1.35-1.35-2.03-2.97-2.03-4.85s.69-3.47,2.07-4.85c1.35-1.38,2.95-2.07,4.81-2.07s3.56.68,4.89,2.03c1.32,1.32,1.99,2.95,1.99,4.89ZM201.12,192.84c0-2.38-.82-4.4-2.46-6.04-1.64-1.64-3.64-2.46-6-2.46s-4.39.83-6,2.5c-1.64,1.64-2.46,3.64-2.46,6s.82,4.4,2.46,6.04c1.62,1.62,3.62,2.42,6,2.42s4.4-.82,6.04-2.46c1.62-1.62,2.42-3.62,2.42-6ZM175.56,192.84c0,1.91-.68,3.54-2.03,4.89-1.32,1.33-2.94,1.99-4.85,1.99s-3.5-.68-4.85-2.03c-1.35-1.35-2.03-2.97-2.03-4.85s.68-3.54,2.03-4.89c1.32-1.32,2.94-1.99,4.85-1.99s3.5.68,4.85,2.03c1.35,1.35,2.03,2.97,2.03,4.85ZM176.87,201.02v-16.42h-1.63v2.86c-1.75-2.07-3.93-3.1-6.56-3.1-2.38,0-4.4.82-6.04,2.46-1.62,1.62-2.42,3.62-2.42,6s.82,4.4,2.46,6.04c1.62,1.62,3.62,2.42,6,2.42,2.65,0,4.84-1.03,6.56-3.1v2.82h1.63ZM175.16,179.76l-1.11-.87c-.66.74-1.58,1.11-2.74,1.11l-1.23-.16-1.15-.52c-.4-.27-.77-.45-1.11-.56-.21-.05-.44-.09-.7-.12-.25-.03-.55-.04-.89-.04-1.78,0-3.03.68-3.78,2.03l1.07.87c.82-.87,1.72-1.31,2.7-1.31l1.19.16c.19.05.37.13.56.22.19.09.38.21.6.34.72.48,1.66.72,2.82.72.9,0,1.7-.19,2.39-.56l.64-.52.76-.79ZM155.55,199.87v-2.15l-1.23.99c-1.14.66-2.4.99-3.78.99-1.99,0-3.63-.65-4.93-1.95-1.3-1.3-1.95-2.94-1.95-4.93s.65-3.67,1.95-4.97c1.27-1.3,2.91-1.95,4.93-1.95,1.4,0,2.68.33,3.82.99l.6.48.6.52v-2.15l-1.27-.71c-1.19-.48-2.44-.72-3.74-.72-2.44,0-4.46.81-6.08,2.43-1.62,1.59-2.43,3.62-2.43,6.08,0,2.31.7,4.24,2.11,5.8,1.4,1.56,3.25,2.46,5.53,2.7l-.52,1.55.75.6c.27.27.4.54.4.83l-.08.32-.12.24c-.21.21-.42.32-.64.32-.29,0-.56-.08-.79-.24l-.64-.56-.52,1.39c.56.66,1.23.99,2.03.99.61,0,1.17-.21,1.67-.64.48-.42.72-.94.72-1.55-.16-1.03-.52-1.68-1.07-1.95l.52-1.35c1.06,0,2.07-.24,3.02-.72l1.15-.72ZM132.93,192.84c0,1.91-.68,3.54-2.03,4.89-1.32,1.33-2.94,1.99-4.85,1.99s-3.5-.68-4.85-2.03c-1.35-1.35-2.03-2.97-2.03-4.85s.68-3.54,2.03-4.89c1.32-1.32,2.94-1.99,4.85-1.99s3.5.68,4.85,2.03c1.35,1.35,2.03,2.97,2.03,4.85ZM134.24,201.02v-16.42h-1.63v2.86c-1.75-2.07-3.93-3.1-6.56-3.1-2.39,0-4.4.82-6.04,2.46-1.62,1.62-2.42,3.62-2.42,6s.82,4.4,2.46,6.04c1.62,1.62,3.62,2.42,6,2.42,2.65,0,4.84-1.03,6.56-3.1v2.82h1.63ZM109.71,201.02v-16.42h-1.63v16.42h1.63ZM110.22,180.36c-.21-.87-.65-1.31-1.31-1.31-.87.16-1.31.6-1.31,1.31.03.4.16.71.4.95.32.24.62.36.91.36.87,0,1.31-.44,1.31-1.31ZM100.4,199.87v-2.03c-1.43,1.27-3.1,1.91-5.01,1.91-2.01,0-3.67-.65-4.97-1.95-1.3-1.3-1.95-2.95-1.95-4.97s.65-3.71,1.95-5.01c1.27-1.27,2.93-1.91,4.97-1.91.9,0,1.86.17,2.86.52l1.11.6,1.03.68v-1.95c-1.25-.95-2.91-1.43-5.01-1.43-2.44,0-4.46.81-6.08,2.43-1.62,1.62-2.42,3.64-2.42,6.08s.81,4.46,2.42,6.08c1.62,1.62,3.64,2.42,6.08,2.42,1.86,0,3.52-.49,5.01-1.47ZM78.25,192.84c0,1.91-.68,3.54-2.03,4.89-1.32,1.33-2.94,1.99-4.85,1.99s-3.5-.68-4.85-2.03c-1.35-1.35-2.03-2.97-2.03-4.85s.69-3.47,2.07-4.85c1.35-1.38,2.95-2.07,4.81-2.07s3.56.68,4.89,2.03c1.32,1.32,1.99,2.95,1.99,4.89ZM79.84,192.84c0-2.38-.82-4.4-2.46-6.04s-3.64-2.46-6-2.46-4.39.83-6,2.5c-1.64,1.64-2.46,3.64-2.46,6s.82,4.4,2.46,6.04c1.62,1.62,3.62,2.42,6,2.42s4.4-.82,6.04-2.46c1.62-1.62,2.42-3.62,2.42-6ZM56.9,196.53c0-1.48-.57-2.66-1.71-3.54-.29-.21-.73-.46-1.31-.74-.58-.28-1.33-.58-2.23-.89-1.03-.34-1.79-.7-2.27-1.07-.58-.48-.87-1.09-.87-1.83,0-1.67.95-2.5,2.86-2.5,1.4,0,2.56.45,3.46,1.35l1.19-1.03c-1.27-1.27-2.82-1.91-4.65-1.91-1.33,0-2.4.41-3.22,1.23-.85.79-1.27,1.75-1.27,2.86,0,1.3.42,2.29,1.27,2.98.58.48,1.54.95,2.86,1.43.72.26,1.32.5,1.81.7.49.2.87.38,1.13.54.87.69,1.31,1.5,1.31,2.42,0,2.12-1.25,3.18-3.74,3.18-1.14,0-2.04-.25-2.7-.76-.64-.45-1.18-1.09-1.63-1.91l-1.39.83c1.27,2.3,3.18,3.46,5.72,3.46,1.48,0,2.76-.45,3.82-1.35,1.03-.87,1.55-2.03,1.55-3.46ZM40.03,196.53c0-1.48-.57-2.66-1.71-3.54-.29-.21-.73-.46-1.31-.74-.58-.28-1.32-.58-2.23-.89-1.03-.34-1.79-.7-2.27-1.07-.58-.48-.87-1.09-.87-1.83,0-1.67.95-2.5,2.86-2.5,1.4,0,2.56.45,3.46,1.35l1.19-1.03c-1.27-1.27-2.82-1.91-4.65-1.91-1.33,0-2.4.41-3.22,1.23-.85.79-1.27,1.75-1.27,2.86,0,1.3.42,2.29,1.27,2.98.58.48,1.54.95,2.86,1.43.72.26,1.32.5,1.81.7.49.2.87.38,1.13.54.87.69,1.31,1.5,1.31,2.42,0,2.12-1.25,3.18-3.74,3.18-1.14,0-2.04-.25-2.7-.76-.64-.45-1.18-1.09-1.63-1.91l-1.39.83c1.27,2.3,3.18,3.46,5.72,3.46,1.48,0,2.76-.45,3.82-1.35,1.03-.87,1.55-2.03,1.55-3.46ZM17.29,190.89H5.68l5.8-15.02,5.8,15.02ZM22.85,201.02l-11.37-29.29L.16,201.02h1.59l3.3-8.51h12.92l3.26,8.51h1.63Z"/>
      <path class="cls-2" d="M571.06,201.02v-29.41h-1.59v29.41h1.59ZM561.87,201.02v-16.42h-1.63v16.42h1.63ZM562.39,180.36c-.21-.87-.65-1.31-1.31-1.31-.87.16-1.31.6-1.31,1.31.03.4.16.71.4.95.32.24.62.36.91.36.87,0,1.31-.44,1.31-1.31ZM552.72,196.53c0-1.48-.57-2.66-1.71-3.54-.29-.21-.73-.46-1.31-.74-.58-.28-1.33-.58-2.23-.89-1.03-.34-1.79-.7-2.27-1.07-.58-.48-.87-1.09-.87-1.83,0-1.67.95-2.5,2.86-2.5,1.4,0,2.56.45,3.46,1.35l1.19-1.03c-1.27-1.27-2.82-1.91-4.65-1.91-1.33,0-2.4.41-3.22,1.23-.85.79-1.27,1.75-1.27,2.86,0,1.3.42,2.29,1.27,2.98.58.48,1.54.95,2.86,1.43.72.26,1.32.5,1.81.7.49.2.87.38,1.13.54.87.69,1.31,1.5,1.31,2.42,0,2.12-1.25,3.18-3.74,3.18-1.14,0-2.04-.25-2.7-.76-.64-.45-1.18-1.09-1.63-1.91l-1.39.83c1.27,2.3,3.18,3.46,5.72,3.46,1.48,0,2.76-.45,3.82-1.35,1.03-.87,1.55-2.03,1.55-3.46ZM533.23,192.84c0,1.91-.68,3.54-2.03,4.89-1.32,1.33-2.94,1.99-4.85,1.99s-3.5-.68-4.85-2.03c-1.35-1.35-2.03-2.97-2.03-4.85s.68-3.54,2.03-4.89c1.32-1.32,2.94-1.99,4.85-1.99s3.5.68,4.85,2.03c1.35,1.35,2.03,2.97,2.03,4.85ZM534.54,201.02v-16.42h-1.63v2.86c-1.75-2.07-3.93-3.1-6.56-3.1-2.39,0-4.4.82-6.04,2.46-1.62,1.62-2.42,3.62-2.42,6s.82,4.4,2.46,6.04c1.62,1.62,3.62,2.42,6,2.42,2.65,0,4.84-1.03,6.56-3.1v2.82h1.63ZM512.51,185.68c-.66-.48-1.26-.81-1.79-.99-.53-.19-1.21-.28-2.03-.28-.66,0-1.27.25-1.83.75-.56.5-1.01,1.06-1.35,1.67v-2.23h-1.63v16.42h1.63v-10.81c0-.42.09-.89.26-1.39.17-.5.4-.96.7-1.37.29-.41.64-.75,1.03-1.03.4-.28.82-.42,1.27-.42.53,0,1.03.09,1.51.28.48.19.93.44,1.35.75l.87-1.35ZM494.54,192.8c0,1.96-.72,3.55-2.15,4.77-1.4,1.22-3.11,1.83-5.13,1.83h-7.31v-13.16h7.31c2.04,0,3.74.58,5.09,1.75,1.46,1.22,2.19,2.82,2.19,4.81ZM490.96,179.44c0,1.54-.5,2.78-1.51,3.74-1.01.95-2.28,1.43-3.82,1.43h-5.68v-10.33h5.45c1.56,0,2.89.48,3.97,1.43,1.06.9,1.59,2.15,1.59,3.74ZM496.13,192.8c0-2.04-.6-3.76-1.79-5.17-1.22-1.4-2.82-2.31-4.81-2.7,2.04-1.17,3.06-2.99,3.06-5.48,0-2.17-.69-3.87-2.07-5.09-1.3-1.14-3.05-1.71-5.25-1.71h-6.92v28.38h8.86c2.49,0,4.6-.77,6.32-2.3,1.72-1.51,2.58-3.48,2.58-5.92ZM458.44,192.84c0,1.91-.68,3.54-2.03,4.89-1.32,1.33-2.94,1.99-4.85,1.99s-3.5-.68-4.85-2.03c-1.35-1.35-2.03-2.97-2.03-4.85s.69-3.47,2.07-4.85c1.35-1.38,2.95-2.07,4.81-2.07s3.56.68,4.89,2.03c1.32,1.32,1.99,2.95,1.99,4.89ZM460.03,192.84c0-2.38-.82-4.4-2.46-6.04-1.64-1.64-3.64-2.46-6-2.46s-4.39.83-6,2.5c-1.64,1.64-2.46,3.64-2.46,6s.82,4.4,2.46,6.04c1.62,1.62,3.62,2.42,6,2.42s4.4-.82,6.04-2.46c1.62-1.62,2.42-3.62,2.42-6ZM434.34,192.84c0,1.91-.68,3.54-2.03,4.89-1.32,1.33-2.94,1.99-4.85,1.99s-3.5-.68-4.85-2.03c-1.35-1.35-2.03-2.97-2.03-4.85s.68-3.54,2.03-4.89c1.33-1.32,2.94-1.99,4.85-1.99s3.5.68,4.85,2.03c1.35,1.35,2.03,2.97,2.03,4.85ZM435.78,201.02v-29.41h-1.63v15.98c-1.83-2.15-4.05-3.22-6.68-3.22-2.38,0-4.4.82-6.04,2.46-1.62,1.62-2.42,3.62-2.42,6s.82,4.4,2.46,6.04c1.62,1.62,3.62,2.42,6,2.42,2.7,0,4.93-1.07,6.68-3.22v2.94h1.63ZM402.38,185.68c-.66-.48-1.26-.81-1.79-.99-.53-.19-1.21-.28-2.03-.28-.66,0-1.27.25-1.83.75-.56.5-1.01,1.06-1.35,1.67v-2.23h-1.63v16.42h1.63v-10.81c0-.42.09-.89.26-1.39.17-.5.4-.96.7-1.37.29-.41.64-.75,1.03-1.03.4-.28.82-.42,1.27-.42.53,0,1.03.09,1.51.28.48.19.93.44,1.35.75l.87-1.35ZM383.89,192.84c0,1.91-.68,3.54-2.03,4.89-1.32,1.33-2.94,1.99-4.85,1.99s-3.5-.68-4.85-2.03c-1.35-1.35-2.03-2.97-2.03-4.85s.68-3.54,2.03-4.89c1.32-1.32,2.94-1.99,4.85-1.99s3.5.68,4.85,2.03c1.35,1.35,2.03,2.97,2.03,4.85ZM385.2,201.02v-16.42h-1.63v2.86c-1.75-2.07-3.93-3.1-6.56-3.1-2.39,0-4.4.82-6.04,2.46-1.62,1.62-2.42,3.62-2.42,6s.82,4.4,2.46,6.04c1.62,1.62,3.62,2.42,6,2.42,2.65,0,4.84-1.03,6.56-3.1v2.82h1.63ZM360.47,201.02v-29.41h-1.59v29.41h1.59ZM348.57,192.84c0,1.91-.68,3.54-2.03,4.89-1.32,1.33-2.94,1.99-4.85,1.99s-3.5-.68-4.85-2.03c-1.35-1.35-2.03-2.97-2.03-4.85s.68-3.54,2.03-4.89,2.94-1.99,4.85-1.99,3.5.68,4.85,2.03c1.35,1.35,2.03,2.97,2.03,4.85ZM349.88,201.02v-16.42h-1.63v2.86c-1.75-2.07-3.93-3.1-6.56-3.1-2.39,0-4.4.82-6.04,2.46-1.62,1.62-2.42,3.62-2.42,6s.82,4.4,2.46,6.04c1.62,1.62,3.62,2.42,6,2.42,2.65,0,4.84-1.03,6.56-3.1v2.82h1.63ZM328.97,186.24v-1.63h-3.82v-7.19h-1.63v7.19h-2.23v1.63h2.23v14.79h1.63v-14.79h3.82ZM313.58,201.02v-16.42h-1.63v16.42h1.63ZM314.09,180.36c-.21-.87-.65-1.31-1.31-1.31-.87.16-1.31.6-1.31,1.31.03.4.16.71.4.95.32.24.62.36.91.36.87,0,1.31-.44,1.31-1.31ZM302.75,192.84c0,1.91-.68,3.54-2.03,4.89-1.32,1.33-2.94,1.99-4.85,1.99s-3.5-.68-4.85-2.03c-1.35-1.35-2.03-2.97-2.03-4.85s.68-3.54,2.03-4.89,2.94-1.99,4.85-1.99,3.5.68,4.85,2.03c1.35,1.35,2.03,2.97,2.03,4.85ZM304.34,192.84c0-2.38-.82-4.4-2.46-6.04-1.62-1.62-3.62-2.42-6-2.42-2.81,0-5.06,1.11-6.76,3.34v-3.1h-1.63v24.13h1.63v-10.77c1.78,2.23,4.03,3.34,6.76,3.34,2.38,0,4.4-.82,6.04-2.46,1.62-1.62,2.42-3.62,2.42-6ZM280.33,196.53c0-1.48-.57-2.66-1.71-3.54-.29-.21-.73-.46-1.31-.74-.58-.28-1.33-.58-2.23-.89-1.03-.34-1.79-.7-2.27-1.07-.58-.48-.87-1.09-.87-1.83,0-1.67.95-2.5,2.86-2.5,1.4,0,2.56.45,3.46,1.35l1.19-1.03c-1.27-1.27-2.82-1.91-4.65-1.91-1.33,0-2.4.41-3.22,1.23-.85.79-1.27,1.75-1.27,2.86,0,1.3.42,2.29,1.27,2.98.58.48,1.54.95,2.86,1.43.72.26,1.32.5,1.81.7.49.2.87.38,1.13.54.87.69,1.31,1.5,1.31,2.42,0,2.12-1.25,3.18-3.74,3.18-1.14,0-2.04-.25-2.7-.76-.64-.45-1.18-1.09-1.63-1.91l-1.39.83c1.27,2.3,3.18,3.46,5.72,3.46,1.48,0,2.76-.45,3.82-1.35,1.03-.87,1.55-2.03,1.55-3.46ZM261.32,192.84c0,1.91-.68,3.54-2.03,4.89-1.32,1.33-2.94,1.99-4.85,1.99s-3.5-.68-4.85-2.03c-1.35-1.35-2.03-2.97-2.03-4.85s.69-3.47,2.07-4.85c1.35-1.38,2.95-2.07,4.81-2.07s3.56.68,4.89,2.03c1.32,1.32,1.99,2.95,1.99,4.89ZM262.91,192.84c0-2.38-.82-4.4-2.46-6.04-1.64-1.64-3.64-2.46-6-2.46s-4.39.83-6,2.5c-1.64,1.64-2.46,3.64-2.46,6s.82,4.4,2.46,6.04c1.62,1.62,3.62,2.42,6,2.42s4.4-.82,6.04-2.46c1.62-1.62,2.42-3.62,2.42-6ZM238.3,201.02v-28.38h-1.63v11.96h-15.62v-11.96h-1.59v28.38h1.59v-14.79h15.62v14.79h1.63ZM199.53,192.84c0,1.91-.68,3.54-2.03,4.89-1.32,1.33-2.94,1.99-4.85,1.99s-3.5-.68-4.85-2.03c-1.35-1.35-2.03-2.97-2.03-4.85s.69-3.47,2.07-4.85c1.35-1.38,2.95-2.07,4.81-2.07s3.56.68,4.89,2.03c1.32,1.32,1.99,2.95,1.99,4.89ZM201.12,192.84c0-2.38-.82-4.4-2.46-6.04-1.64-1.64-3.64-2.46-6-2.46s-4.39.83-6,2.5c-1.64,1.64-2.46,3.64-2.46,6s.82,4.4,2.46,6.04c1.62,1.62,3.62,2.42,6,2.42s4.4-.82,6.04-2.46c1.62-1.62,2.42-3.62,2.42-6ZM175.56,192.84c0,1.91-.68,3.54-2.03,4.89-1.32,1.33-2.94,1.99-4.85,1.99s-3.5-.68-4.85-2.03c-1.35-1.35-2.03-2.97-2.03-4.85s.68-3.54,2.03-4.89c1.32-1.32,2.94-1.99,4.85-1.99s3.5.68,4.85,2.03c1.35,1.35,2.03,2.97,2.03,4.85ZM176.87,201.02v-16.42h-1.63v2.86c-1.75-2.07-3.93-3.1-6.56-3.1-2.38,0-4.4.82-6.04,2.46-1.62,1.62-2.42,3.62-2.42,6s.82,4.4,2.46,6.04c1.62,1.62,3.62,2.42,6,2.42,2.65,0,4.84-1.03,6.56-3.1v2.82h1.63ZM175.16,179.76l-1.11-.87c-.66.74-1.58,1.11-2.74,1.11l-1.23-.16-1.15-.52c-.4-.27-.77-.45-1.11-.56-.21-.05-.44-.09-.7-.12-.25-.03-.55-.04-.89-.04-1.78,0-3.03.68-3.78,2.03l1.07.87c.82-.87,1.72-1.31,2.7-1.31l1.19.16c.19.05.37.13.56.22.19.09.38.21.6.34.72.48,1.66.72,2.82.72.9,0,1.7-.19,2.39-.56l.64-.52.76-.79ZM155.55,199.87v-2.15l-1.23.99c-1.14.66-2.4.99-3.78.99-1.99,0-3.63-.65-4.93-1.95-1.3-1.3-1.95-2.94-1.95-4.93s.65-3.67,1.95-4.97c1.27-1.3,2.91-1.95,4.93-1.95,1.4,0,2.68.33,3.82.99l.6.48.6.52v-2.15l-1.27-.71c-1.19-.48-2.44-.72-3.74-.72-2.44,0-4.46.81-6.08,2.43-1.62,1.59-2.43,3.62-2.43,6.08,0,2.31.7,4.24,2.11,5.8,1.4,1.56,3.25,2.46,5.53,2.7l-.52,1.55.75.6c.27.27.4.54.4.83l-.08.32-.12.24c-.21.21-.42.32-.64.32-.29,0-.56-.08-.79-.24l-.64-.56-.52,1.39c.56.66,1.23.99,2.03.99.61,0,1.17-.21,1.67-.64.48-.42.72-.94.72-1.55-.16-1.03-.52-1.68-1.07-1.95l.52-1.35c1.06,0,2.07-.24,3.02-.72l1.15-.72ZM132.93,192.84c0,1.91-.68,3.54-2.03,4.89-1.32,1.33-2.94,1.99-4.85,1.99s-3.5-.68-4.85-2.03c-1.35-1.35-2.03-2.97-2.03-4.85s.68-3.54,2.03-4.89c1.32-1.32,2.94-1.99,4.85-1.99s3.5.68,4.85,2.03c1.35,1.35,2.03,2.97,2.03,4.85ZM134.24,201.02v-16.42h-1.63v2.86c-1.75-2.07-3.93-3.1-6.56-3.1-2.39,0-4.4.82-6.04,2.46-1.62,1.62-2.42,3.62-2.42,6s.82,4.4,2.46,6.04c1.62,1.62,3.62,2.42,6,2.42,2.65,0,4.84-1.03,6.56-3.1v2.82h1.63ZM109.71,201.02v-16.42h-1.63v16.42h1.63ZM110.22,180.36c-.21-.87-.65-1.31-1.31-1.31-.87.16-1.31.6-1.31,1.31.03.4.16.71.4.95.32.24.62.36.91.36.87,0,1.31-.44,1.31-1.31ZM100.4,199.87v-2.03c-1.43,1.27-3.1,1.91-5.01,1.91-2.01,0-3.67-.65-4.97-1.95-1.3-1.3-1.95-2.95-1.95-4.97s.65-3.71,1.95-5.01c1.27-1.27,2.93-1.91,4.97-1.91.9,0,1.86.17,2.86.52l1.11.6,1.03.68v-1.95c-1.25-.95-2.91-1.43-5.01-1.43-2.44,0-4.46.81-6.08,2.43-1.62,1.62-2.42,3.64-2.42,6.08s.81,4.46,2.42,6.08c1.62,1.62,3.64,2.42,6.08,2.42,1.86,0,3.52-.49,5.01-1.47ZM78.25,192.84c0,1.91-.68,3.54-2.03,4.89-1.32,1.33-2.94,1.99-4.85,1.99s-3.5-.68-4.85-2.03c-1.35-1.35-2.03-2.97-2.03-4.85s.69-3.47,2.07-4.85c1.35-1.38,2.95-2.07,4.81-2.07s3.56.68,4.89,2.03c1.32,1.32,1.99,2.95,1.99,4.89ZM79.84,192.84c0-2.38-.82-4.4-2.46-6.04s-3.64-2.46-6-2.46-4.39.83-6,2.5c-1.64,1.64-2.46,3.64-2.46,6s.82,4.4,2.46,6.04c1.62,1.62,3.62,2.42,6,2.42s4.4-.82,6.04-2.46c1.62-1.62,2.42-3.62,2.42-6ZM56.9,196.53c0-1.48-.57-2.66-1.71-3.54-.29-.21-.73-.46-1.31-.74-.58-.28-1.33-.58-2.23-.89-1.03-.34-1.79-.7-2.27-1.07-.58-.48-.87-1.09-.87-1.83,0-1.67.95-2.5,2.86-2.5,1.4,0,2.56.45,3.46,1.35l1.19-1.03c-1.27-1.27-2.82-1.91-4.65-1.91-1.33,0-2.4.41-3.22,1.23-.85.79-1.27,1.75-1.27,2.86,0,1.3.42,2.29,1.27,2.98.58.48,1.54.95,2.86,1.43.72.26,1.32.5,1.81.7.49.2.87.38,1.13.54.87.69,1.31,1.5,1.31,2.42,0,2.12-1.25,3.18-3.74,3.18-1.14,0-2.04-.25-2.7-.76-.64-.45-1.18-1.09-1.63-1.91l-1.39.83c1.27,2.3,3.18,3.46,5.72,3.46,1.48,0,2.76-.45,3.82-1.35,1.03-.87,1.55-2.03,1.55-3.46ZM40.03,196.53c0-1.48-.57-2.66-1.71-3.54-.29-.21-.73-.46-1.31-.74-.58-.28-1.32-.58-2.23-.89-1.03-.34-1.79-.7-2.27-1.07-.58-.48-.87-1.09-.87-1.83,0-1.67.95-2.5,2.86-2.5,1.4,0,2.56.45,3.46,1.35l1.19-1.03c-1.27-1.27-2.82-1.91-4.65-1.91-1.33,0-2.4.41-3.22,1.23-.85.79-1.27,1.75-1.27,2.86,0,1.3.42,2.29,1.27,2.98.58.48,1.54.95,2.86,1.43.72.26,1.32.5,1.81.7.49.2.87.38,1.13.54.87.69,1.31,1.5,1.31,2.42,0,2.12-1.25,3.18-3.74,3.18-1.14,0-2.04-.25-2.7-.76-.64-.45-1.18-1.09-1.63-1.91l-1.39.83c1.27,2.3,3.18,3.46,5.72,3.46,1.48,0,2.76-.45,3.82-1.35,1.03-.87,1.55-2.03,1.55-3.46ZM17.29,190.89H5.68l5.8-15.02,5.8,15.02ZM22.85,201.02l-11.37-29.29L.16,201.02h1.59l3.3-8.51h12.92l3.26,8.51h1.63Z"/>
      <polygon class="cls-1" points="88.84 99.29 111.82 157.02 111.76 157.15 65.91 157.15 65.86 157.02 88.84 99.29"/>
    </g>
  </g>
</svg>