<?xml version="1.0" encoding="UTF-8"?>
<svg id="Camada_2" data-name="Camada 2" xmlns="http://www.w3.org/2000/svg" viewBox="0 0 1205.47 918.19">
  <defs>
    <style>
      .cls-1 {
        fill: #fff;
      }
    </style>
  </defs>
  <g id="Camada_1-2" data-name="Camada 1">
    <path class="cls-1" d="M587.39,272.08c3.88-13.3,10.51-25.48,13.68-39.09,7.27-31.23,6.87-65.54-10.96-93.19-9.73-15.1-12.69-11.88-29.61-6.89-92.13,27.17-108.92,168.06-27.44,215.59,15.49,9.03,20.86,11.81,38.55,6.68,76.03-22.05,200.32-110.82,275.64-73.24,7.52,3.75,33.23,23.09,33.38,30.99.18,9.39-9.79,39.55-13.47,49.87-56.97,159.67-248.82,231.17-398.15,149.58-166.85-91.17-198.14-321.67-58.24-452.41,83-77.57,260.7-90.54,314.56,25.26,46.34,99.64-37.74,190-137.92,186.87ZM633.45,252.88c82.79-24.65,122.21-114.74,64.11-185.98C645.1,2.57,540.97,2.4,470.3,34.09c-.46,3.46,4.18,1.75,6.22,1.42,7.01-1.11,14.51-4.15,21.83-5.06,43.53-5.41,96.51,1.39,131.9,28.9,65.44,50.86,66.24,140.81,3.21,193.53ZM610.42,250.97c1.59,1.77,18.12-11.5,20.2-13.38,52.75-47.65,47.41-129.03-10.78-169.76-60.43-42.3-160.55-31.76-213.91,18.01-12.13,11.31-40.3,49.32-45.03,64.39-.31.98-.53,3.13.92,2.83,23.99-30.88,59.24-55.91,97.36-65.8,92.22-23.9,172.88,33.16,158.68,131.81-1.56,10.86-5.58,21.14-7.44,31.89ZM568.18,116.58c-16.72-16.23-56.74-25.8-78.75-20.19-13.65,3.48-39.62,26.43-48.92,37.46-52.04,61.79-56.16,174.78,9.68,228.39,12.71,10.35,19.22,14.32,36.18,13.24,16.02-1.02,33.38-6.36,49.17-9.37l-24.75-16.49c-77.88-69.45-47.95-211.2,57.39-233.05ZM453.01,103.19c-74.85,25.04-123.12,100.79-117.17,179.53,3.9,51.6,58.35,96.18,109.48,92.07-30.69-22.36-49.24-59.4-55.13-96.52-10.11-63.67,12.59-134.44,62.81-175.09ZM347.46,343.11c16.29,51.38,37.23,93,96.95,97.87,98.1,8,201.95-48.78,289.48-84.77,38.46-15.81,88.12-37.18,117.43,6.06,2.6.12,14.77-40.75,14.36-45-1.82-18.76-46.5-31.64-62.33-31.88-57.92-.9-152.85,56.07-211.14,76.95-77.27,27.68-183.84,52.65-244.76-19.23ZM408.87,446.78c-.87,3.33,1.38,3.83,2.86,5.76,5.64,7.32,44.6,38.51,52.73,41.32,31.25,10.79,105.77-2,138.68-11.17,59.38-16.53,102.22-46.45,156.3-70.2,22.94-10.07,45.53-18.78,63.07,5.45,14.02-20.32,33.8-42.31,5.44-61.07-19.28-12.76-40.38-6.47-60.62.17-73.31,24.06-136.68,65.31-215.23,84.22-45.71,11-97.57,19.11-143.24,5.52ZM499.09,512.01c87.99,36.83,190.94,24.18,266.64-33.73,9.4-7.19,35.67-30.27,41.34-39.27,12.12-19.23-6.94-25.59-24.02-22.11-22.15,4.52-63.69,32.64-86.88,43.64-43.05,20.43-88.14,36.85-135.26,45.17l-61.81,6.29Z"/>
    <path class="cls-1" d="M581.2,660.37c110.63-13.17,123.84,149.87,22.26,160.47-111.06,11.59-121.85-148.61-22.26-160.47ZM584.99,681.46c-76.17,9.84-64.28,127.9,16.58,118.29,74.42-8.85,62.05-128.45-16.58-118.29Z"/>
    <path class="cls-1" d="M37.43,661.76c17.45,2.89,36.79,29.28,24.05,45.16-2.65,3.3-6.77,3.44-7.72,6.65,41.26,14.99,43.47,70.24,10.5,95.95-3.04,2.37-14.28,9.64-17.23,9.64H0v-157.4c11.45,1.33,26.52-1.81,37.43,0ZM19.19,707.84c34.46,6.35,34.34-30.83,0-24.97v24.97ZM19.2,798.04c61.34,9.85,61.87-78.31,0-69.1v69.1Z"/>
    <path class="cls-1" d="M1084.54,819.16c-3.65-.61-22.23.83-23.04.01-.58-.58.42-7.48,0-9.61-23.09,19.89-56.78,15.72-75.83-7.66-37.17-45.62,11.92-111.42,65.69-86.81,2.92,1.34,5.89,5.68,7.55,5.97,1.57.27,5.31-3.21,9.22-3.75,2.83-.39,16.43-.59,16.43,2.99v98.86ZM1024.62,731.31c-24.44,2.67-38.98,32.37-25.41,53.21,10.72,16.47,33.88,21.34,49.81,9.68,29.24-21.41,11.76-66.83-24.4-62.88Z"/>
    <path class="cls-1" d="M335.92,798.03c11.16,2.39,22.99,3.87,33.3-2.19,4.64-2.72,8.96-10.77,13.78-11.26,5.59-.57,14.07,5.48,20.1,5.81-21.01,46.17-90.65,41.26-104.65-7.67-17.56-61.4,62.38-102.02,98.75-49.25l-61.28,64.55ZM366.62,732.8c-31.76-9.3-55.56,16.63-47.97,47.96,3.33.87,3.84-1.38,5.76-2.86,8.52-6.52,32.74-30.81,39.35-39.35,1.49-1.92,3.71-2.45,2.85-5.76Z"/>
    <path class="cls-1" d="M942.49,790.39c-17.27,38.47-69.55,42.83-95.06,9.62-34.27-44.61,12.62-107.94,66.98-86.18,5.76,2.31,25.17,13.36,21.46,20.81l-60.53,60.52c8.85,8.56,26.13,5.28,35.87-.56,4.25-2.55,9.22-9.72,12.95-9.9,4.64-.23,12.92,5.6,18.32,5.69ZM906.01,732.8c-17.51-7.02-42.75,3.87-47.15,22.88-1.11,4.78-1.99,19.41.1,23.2,1.95,3.53,3.11.37,4.83-.99,9.09-7.19,32.34-30.28,39.37-39.34,1.49-1.92,3.71-2.45,2.85-5.76Z"/>
    <path class="cls-1" d="M808.13,742.36c-.61.71-17.04,5.65-17.96,5.47-2.4-.45-12.06-12.3-18.43-14.18-26.53-7.86-49.6,10.96-45.97,38.31,3.01,22.7,30.73,35.43,50.4,23.87,4.64-2.73,8.93-10.75,13.77-11.25,6.27-.66,13.47,6.2,20.11,5.8,1.25,1.31-9.84,14.86-11.43,16.39-27,25.88-72.6,18.89-89.45-14.38-27.35-54.01,36.63-108.04,84.52-71.08,3.41,2.63,18.08,16.85,14.45,21.05Z"/>
    <path class="cls-1" d="M1205.47,819.16c-5.22-.95-20.85,2.7-22.77-3.15-2.3-20.67,2.14-44.84-.22-65.04-2.96-25.3-38.43-16.19-38.43-5.72v73.9c-5.22-.95-20.85,2.7-22.77-3.15,1.9-13.66-3.74-90.6.57-96.79,1.7-2.44,21.42-2.62,22.21-1.81,1,1.03-2.13,8.13,1.88,7.68,7.75-19.28,36.75-15.48,48.85-1.79,3.37,3.82,10.68,19.47,10.68,23.87v71.98Z"/>
    <path class="cls-1" d="M199.63,717.42v64.3c0,7.93,13.96,18.06,22.12,17.92,5.93-.11,20.11-8.24,20.11-14.08v-65.26c0-4.27,23.03-4.27,23.03,0v63.34c0,.72-2.78,10.33-3.41,11.95-11.85,30.78-59.43,34.92-76.53,6.56-1.25-2.07-6.44-13.54-6.44-14.67v-70.06h21.11Z"/>
    <rect class="cls-1" x="119.01" y="661.76" width="21.11" height="157.4"/>
    <path class="cls-1" d="M1030.79,912.26c.1.82,2.63,2.64,1.91,4.79h-9.58c1.89-13.15,3.65-32.09,2.08-45.24-.55-4.59-5.44-.82-4-6.56,3.62.17,8.27-.97,11.5.96,5.01,2.99,18.17,30.48,24.96,35.5v-32.63c0-.2-3.53.34-3.82,0-4.14-4.94,7.68-4.06,11.49-3.82.73,2.07-1.91,4.19-1.91,4.79v44.15c0,1.05-2.96,3.78-5.8,1.96-6.32-4.05-18.56-31.77-26.83-37.48.89,10.73-1.22,23.11,0,33.59Z"/>
    <path class="cls-1" d="M485.14,869.56c2.68,2.86,3.24,11.74,2.07,15.46-1.6,5.14-8.04,3.58-7.42,8,.51,3.66,17.29,20.44,13.52,24.02-6.24,5.93-14.37-12.89-17.32-16.25-15.96-18.15-12.26,4.4-9.55,16.25h-11.5c3.08-16.48,3.07-35.36,0-51.8,7.97.35,24.37-1.9,30.2,4.32ZM464.53,888.27c20.64,2.62,22.54-21.87,0-17.29v17.29Z"/>
    <path class="cls-1" d="M226.51,870.03c-.1-.82-2.63-2.64-1.91-4.79,24.19-2.74,50.87,4.09,42.84,34.2-1.35,5.05-10.34,15.69-15.01,15.69h-27.83c-.51-1.41,1.92-2.29,1.92-2.88,0-12.94,1.43-29.95,0-42.23ZM234.18,911.3c35.88,4.88,37.02-46.26,0-40.31v40.31Z"/>
    <path class="cls-1" d="M316.16,865.64c37.42-8.62,41.24,44.04,14.14,50.58-34.87,8.41-38.88-44.88-14.14-50.58ZM320.06,869.41c-14.06,2.92-15.22,35.53-3.31,40.9,29.29,13.2,31.28-46.71,3.31-40.9Z"/>
    <path class="cls-1" d="M392.95,865.64c40.82-9.34,41.08,54.05,5.39,51.54-28.14-1.98-27.45-46.49-5.39-51.54ZM396.83,869.4c-16,3.37-15.96,38.98-.37,41.88,28.96,5.38,25.11-47.1.37-41.88Z"/>
    <path class="cls-1" d="M18.63,865.64c41.13-9.48,40.56,58.91,1.97,50.98-25.08-5.16-23.29-46.07-1.97-50.98ZM15.9,908.82c3.65,3.01,10.84,3.08,15.36,2.08,18.53-4.13,12.57-50.87-11.57-40.38-11.77,5.11-13.15,30.59-3.79,38.3Z"/>
    <path class="cls-1" d="M869.11,887.81c-2.05,2.11-8.87,1.1-7.22,5.22.52,1.3,18.58,19.34,15.33,22.09-11.93,3.03-10.68-6.79-17.32-14.33-15.15-17.2-13.03,2.28-9.54,14.32h-11.52c3.41-15.51,2.83-34.23,0-49.88,9.45-.28,30.59-2.38,32.65,10.64.48,3.06-.27,9.74-2.39,11.93ZM846.51,888.27c22.53,3.93,24.77-21.92,1.81-18.4-3.51,2.54-1.2,13.97-1.81,18.4Z"/>
    <path class="cls-1" d="M1199.71,865.23v9.59c-5.16,1.84-3.06-3.43-5.08-3.86-5.03-1.08-12.49.8-17.96.02v15.37s21.13-.96,21.13-.96l-.02,10.54c-5.15,1.85-3.05-3.43-5.07-3.86-4.56-.98-11.1.7-16.04.02v19.21c5.3-.09,10.67.46,15.96-.46,6.59-1.16,3.21-6.08,9-5.29,1.43,3.11-2.18,11.51-4.79,11.51h-29.75c3.08-16.44,3.09-35.35,0-51.83h32.63Z"/>
    <path class="cls-1" d="M990.48,865.23l-.02,9.6c-6.2-5.66-13.31-3.69-21.11-3.85v15.37s19.21-.96,19.21-.96l-.03,10.55c-5.74-5.22-11.91-3.96-19.18-3.85v19.21c9.39.22,16.25,1.66,23.02-5.77l.02,9.6h-34.55c3.17-15.28,3.17-34.56,0-49.91h32.63Z"/>
    <path class="cls-1" d="M646.68,865.45c.77.69,4.81,18.59,10.75,17.06.6-.16,6.91-8.42,7.61-9.75,3.64-6.93-3.15-8.95,12.56-7.52l-17,23.65,17.01,26.23c-9.21-.76-13.53,3.89-13.62-6.28-2.77-1.59-6.64-13.92-10.35-12.9-.73.2-7.55,10.67-8.78,12.45-3.67,5.3.85,8.57-11.4,6.74l16.97-25.55-16.96-24.33c2.95.58,11.81-1.04,13.22.21Z"/>
    <path class="cls-1" d="M92.13,865.24c-.97,12.41-9.17,45.66,8.69,46.14,20.7.55,11.29-32.29,10.52-46.14h11.51c-10.6,17.34,8.61,56.15-25.75,51.73-25.81-3.32-7.34-37.44-18.4-51.72h13.43Z"/>
    <path class="cls-1" d="M600.82,865.23l-.02,9.6c-2.77-4.86-22.69-5.12-23.05-2.74l.02,14.26,21.13-.96-.02,10.54c-5.15,1.85-3.05-3.43-5.07-3.86-4.56-.98-11.1.7-16.04.02-4.48,21.92,9.73,25.33,24.94,13.45.62,2.51-.33,9.6-2.86,9.6h-31.67c3.41-15.51,2.84-34.26,0-49.91h32.63Z"/>
    <path class="cls-1" d="M806.21,865.23l-.02,9.6c-2.77-4.86-22.69-5.12-23.05-2.74l.02,14.26,21.13-.96-.02,10.54c-5.15,1.85-3.05-3.43-5.07-3.86-4.56-.98-11.1.7-16.04.02v19.22c9.85-.09,17.79,2.23,24.94-5.77.62,2.51-.33,9.6-2.86,9.6h-31.67c3.41-15.51,2.84-34.26,0-49.91h32.63Z"/>
    <path class="cls-1" d="M721.76,895.96c-1.31,1.25.56,17.59,1.9,21.09h-11.5c3.08-16.47,3.07-35.37,0-51.8,9.4-.31,30.3-1.91,32.61,10.63,4.23,22.98-20.16,17.37-23,20.09ZM721.75,890.19c21.3,2.95,21.43-22.82,0-19.21v19.21Z"/>
    <path class="cls-1" d="M1136.16,867.35c1.09,1.3-.21,6.99.2,9.38-4.97.34-5.54-4.75-10.59-5.72-28.31-5.44-29.95,39.64-3.79,40.46,1.8.06,20.41-4.32,14.39,1.71-1.48,1.48-14.97,4.12-18.16,3.94-29.89-1.68-29.68-47.73-3.79-51.77,3.59-.56,20.14.08,21.75,1.99Z"/>
    <path class="cls-1" d="M190.99,865.23c3.08.94,3.26,6.64,2.87,9.59-5.15,1.85-3.06-3.44-5.06-3.86-3.61-.76-8.35.5-12.2.03v39.35c0,.81,4.04,2.8,3.84,4.78h-13.44c-.95-.69,1.92-2.45,1.92-2.86v-41.27c-6.25-.64-10.53-.25-15.34,3.84l-.02-9.6c9.62,1.82,29.31-2.47,37.43,0Z"/>
    <path class="cls-1" d="M923.29,865.24c-2.83,15.64-3.4,34.37,0,49.88h-13.43c-.38-3.46,3.53-.01,4-4.64.78-7.57,1.01-31.52-.21-38.49-.55-3.14-2.86-4.19-3.8-6.74h13.43Z"/>
  </g>
</svg>