<?xml version="1.0" encoding="UTF-8"?>
<svg id="Camada_2" data-name="Camada 2" xmlns="http://www.w3.org/2000/svg" viewBox="0 0 840 594.31"  fill="#fff">
  <defs>
    <style>
      .cls-1 {
        fill-rule: evenodd;
      }
    </style>
  </defs>
  <g id="Camada_1-2" data-name="Camada 1">
    <g>
      <path d="M9.13,578.24c-2.26,0-4.36-.61-6.28-1.82-1.91-1.22-2.86-2.7-2.86-4.46,0-1.24.48-3.29,1.44-6.15,5.65-17.33,10.19-30.82,13.62-40.49,3.45-9.68,7.67-20.07,12.68-31.17-3.75.9-7.6,2.38-11.55,4.43-1.78.88-2.85,1.32-3.2,1.32-.67,0-1.54-.53-2.61-1.6-1.05-1.07-1.57-1.96-1.57-2.7,9.81-4.1,18.43-6.15,25.86-6.15,4.83,0,9.61.85,14.34,2.54,4.72,1.68,8.63,4.14,11.71,7.41,3.09,3.26,4.65,7.14,4.65,11.61,0,7.03-2.82,12.46-8.47,16.29-5.65,3.81-11.83,6.36-18.55,7.66-6.72,1.28-12.39,1.91-17.01,1.91h-.66l-6.15,22.1c-1.55,5.89-3.35,12.3-5.4,19.27ZM21.69,533.45c5.85-.35,11.41-1.48,16.67-3.39,5.25-1.92,9.54-4.65,12.87-8.16,3.34-3.52,5.02-7.73,5.02-12.65s-1.95-8.95-5.84-11.68c-3.89-2.72-8.62-4.15-14.19-4.3-4.42,8.52-9.26,21.91-14.53,40.18Z"/>
      <path d="M78.14,571.52c-2.72,0-4.93-.72-6.62-2.17-1.68-1.42-2.51-3.33-2.51-5.74,0-1.4.27-2.93.82-4.58.54-1.65,1.37-3.65,2.48-6,.94-2.05,1.66-3.78,2.17-5.21.52-1.44.78-2.71.78-3.8,0-2.8-1.84-5.16-5.49-7.06-1.47,3.69-3.17,7.4-5.12,11.14-1.95,3.73-3.69,6.87-5.21,9.45l-1.66-3.2c3.37-6,6.34-12.63,8.91-19.9-.74-.73-1.1-1.73-1.1-2.98,0-1.9.58-3.69,1.76-5.37,1.17-1.69,2.31-2.54,3.42-2.54.73,0,1.33.44,1.79,1.32.48.88.72,1.62.72,2.2,0,.3-.17.93-.5,1.91-.31.99-.55,1.69-.69,2.13.06.53.35,1.03.85,1.51.52.49,1.48,1.16,2.89,2.04,2.57,1.68,4.57,3.31,6,4.9,1.42,1.57,2.13,3.67,2.13,6.31,0,1.62-.27,3.23-.82,4.87-.55,1.62-1.37,3.55-2.48,5.81-1.62,3.25-2.42,5.56-2.42,6.94,0,1.69.92,2.54,2.76,2.54,2.2,0,4.59-.88,7.19-2.64,2.61-1.76,5-3.9,7.16-6.43,2.17-2.53,3.77-4.9,4.8-7.13l2.64,2.01c-1.47,3.29-3.53,6.43-6.18,9.45-2.64,3.01-5.59,5.48-8.85,7.38-3.26,1.9-6.47,2.86-9.6,2.86Z"/>
      <path d="M103.87,573.84c-2.56,0-4.69-.85-6.4-2.54-1.73-1.68-2.61-4.06-2.61-7.16,0-4.25,1.56-9.01,4.68-14.28,3.12-5.29,7.09-9.77,11.93-13.43,4.85-3.68,9.7-5.52,14.53-5.52,3.22,0,5.91.83,8.07,2.48,2.17,1.66,3.26,3.77,3.26,6.34,0,3.37-2.1,5.13-6.28,5.27,2.65.82,3.99,1.91,3.99,3.3,0,.53-.27,1.3-.78,2.32-.53,1.03-1.11,2.1-1.76,3.2-1.18,1.91-2.1,3.58-2.76,5.02-.65,1.43-.97,2.75-.97,3.99,0,1.11.27,2.06.82,2.82.54.75,1.37,1.13,2.48,1.13,2.05,0,4.66-1.42,7.85-4.27,3.2-2.86,6.31-7.16,9.32-12.9l2.07,2.1c-2.7,6.09-6.07,10.99-10.11,14.69-4.04,3.7-8.11,5.56-12.21,5.56-2.95,0-5.21-.97-6.78-2.92s-2.35-4.16-2.35-6.65c-3.31,3.95-6.14,6.85-8.47,8.69-2.35,1.84-4.85,2.76-7.5,2.76ZM106.19,568.23c2.57,0,5.56-1.85,8.98-5.56,3.41-3.7,7.28-8.52,11.61-14.47l2.2-2.98c.2-.35.5-.53.88-.53l.44.09c.35-1.17.53-2.53.53-4.08,0-3.81-1.54-5.71-4.61-5.71s-6.61,1.73-10.14,5.18c-3.52,3.45-6.47,7.56-8.85,12.34-2.39,4.77-3.58,8.84-3.58,12.21,0,1.24.2,2.13.6,2.7.42.55,1.07.82,1.95.82Z"/>
      <path d="M175.95,575.6c1.76,0,3.18.47,4.27,1.41,1.11.96,1.66,2.32,1.66,4.08,0,1.99-.68,4-2.04,6.06-1.34,2.05-3.13,3.75-5.37,5.12-2.24,1.36-4.61,2.04-7.09,2.04-2.07,0-3.81-.49-5.21-1.44-1.38-.94-2.07-1.97-2.07-3.08,0-.65.29-1.4.88-2.26.58-.84,1.46-1.66,2.64-2.48.96,3.3,2.43,4.96,4.43,4.96,1.17,0,2.45-.53,3.83-1.6,1.4-1.07,2.59-2.31,3.58-3.74,1-1.43,1.51-2.69,1.51-3.8,0-1.18-.59-1.76-1.76-1.76-.67,0-1.47.24-2.39.72-.93.48-1.82,1.01-2.7,1.6-.15.06-.66.36-1.54.91-.88.56-1.57.85-2.07.85-.59,0-1.12-.31-1.6-.94-.49-.63-.72-1.24-.72-1.82,0-.21.73-1.33,2.2-3.36,1.46-2.01,2.9-3.82,4.3-5.43-3.89,2.11-7.78,3.17-11.68,3.17s-7.13-1.24-9.51-3.7c-2.39-2.45-3.58-6.04-3.58-10.8s1.19-9.3,3.58-13.78c2.39-4.47,5.48-8.11,9.29-10.89,3.81-2.78,7.66-4.17,11.55-4.17,2.95,0,5.13.74,6.56,2.2,1.42,1.47,2.13,3.3,2.13,5.49s-.53,4.26-1.6,6.12c-1.05,1.87-2.35,2.79-3.89,2.79-1.4,0-2.54-.69-3.42-2.07.88-.58,1.68-1.61,2.42-3.08.73-1.48,1.1-3.21,1.1-5.18,0-1.26-.69-1.88-2.07-1.88-2.35,0-4.88,1.4-7.6,4.21-2.72,2.79-5.01,6.15-6.84,10.11-1.82,3.95-2.73,7.56-2.73,10.8,0,2.35.58,4.32,1.76,5.9,1.17,1.57,3.19,2.35,6.06,2.35s5.69-.8,8.73-2.42c3.05-1.63,5.9-3.93,8.54-6.91,2.65-2.97,4.75-6.4,6.28-10.3l2.2,2.01c-1.32,3.37-3.1,6.52-5.34,9.45-2.24,2.93-4.71,5.46-7.41,7.6l-5.18,8.26c2.4-.88,4.38-1.32,5.93-1.32Z"/>
      <path d="M189.37,573.84c-2.56,0-4.69-.85-6.4-2.54-1.73-1.68-2.61-4.06-2.61-7.16,0-4.25,1.56-9.01,4.68-14.28,3.12-5.29,7.09-9.77,11.93-13.43,4.85-3.68,9.7-5.52,14.53-5.52,3.22,0,5.91.83,8.07,2.48,2.17,1.66,3.26,3.77,3.26,6.34,0,3.37-2.1,5.13-6.28,5.27,2.65.82,3.99,1.91,3.99,3.3,0,.53-.27,1.3-.78,2.32-.53,1.03-1.11,2.1-1.76,3.2-1.18,1.91-2.1,3.58-2.76,5.02-.65,1.43-.97,2.75-.97,3.99,0,1.11.27,2.06.82,2.82.54.75,1.37,1.13,2.48,1.13,2.05,0,4.66-1.42,7.85-4.27,3.2-2.86,6.31-7.16,9.32-12.9l2.07,2.1c-2.7,6.09-6.07,10.99-10.11,14.69-4.04,3.7-8.11,5.56-12.21,5.56-2.95,0-5.21-.97-6.78-2.92s-2.35-4.16-2.35-6.65c-3.31,3.95-6.14,6.85-8.47,8.69-2.35,1.84-4.85,2.76-7.5,2.76ZM191.69,568.23c2.57,0,5.56-1.85,8.98-5.56,3.41-3.7,7.28-8.52,11.61-14.47l2.2-2.98c.2-.35.5-.53.88-.53l.44.09c.35-1.17.53-2.53.53-4.08,0-3.81-1.54-5.71-4.61-5.71s-6.61,1.73-10.14,5.18c-3.52,3.45-6.47,7.56-8.85,12.34s-3.58,8.84-3.58,12.21c0,1.24.2,2.13.6,2.7.42.55,1.07.82,1.95.82Z"/>
      <path d="M273.55,578.24c-2.26,0-4.36-.61-6.28-1.82-1.91-1.22-2.86-2.7-2.86-4.46,0-1.24.48-3.29,1.44-6.15,5.65-17.33,10.19-30.82,13.62-40.49,3.45-9.68,7.67-20.07,12.68-31.17-3.75.9-7.6,2.38-11.55,4.43-1.78.88-2.85,1.32-3.2,1.32-.67,0-1.54-.53-2.61-1.6-1.05-1.07-1.57-1.96-1.57-2.7,9.81-4.1,18.43-6.15,25.86-6.15,4.83,0,9.61.85,14.34,2.54,4.72,1.68,8.63,4.14,11.71,7.41,3.09,3.26,4.65,7.14,4.65,11.61,0,7.03-2.82,12.46-8.47,16.29-5.65,3.81-11.83,6.36-18.55,7.66-6.72,1.28-12.39,1.91-17.01,1.91h-.66l-6.15,22.1c-1.55,5.89-3.35,12.3-5.4,19.27ZM286.1,533.45c5.85-.35,11.41-1.48,16.67-3.39,5.25-1.92,9.54-4.65,12.87-8.16,3.34-3.52,5.02-7.73,5.02-12.65s-1.95-8.95-5.84-11.68c-3.89-2.72-8.62-4.15-14.19-4.3-4.42,8.52-9.26,21.91-14.53,40.18Z"/>
      <path d="M328.34,573.84c-2.56,0-4.69-.85-6.4-2.54-1.73-1.68-2.61-4.06-2.61-7.16,0-4.25,1.56-9.01,4.68-14.28,3.12-5.29,7.09-9.77,11.93-13.43,4.85-3.68,9.7-5.52,14.53-5.52,3.22,0,5.91.83,8.07,2.48,2.17,1.66,3.26,3.77,3.26,6.34,0,3.37-2.1,5.13-6.28,5.27,2.65.82,3.99,1.91,3.99,3.3,0,.53-.27,1.3-.78,2.32-.53,1.03-1.11,2.1-1.76,3.2-1.18,1.91-2.1,3.58-2.76,5.02-.65,1.43-.97,2.75-.97,3.99,0,1.11.27,2.06.82,2.82.54.75,1.37,1.13,2.48,1.13,2.05,0,4.66-1.42,7.85-4.27,3.2-2.86,6.31-7.16,9.32-12.9l2.07,2.1c-2.7,6.09-6.07,10.99-10.11,14.69-4.04,3.7-8.11,5.56-12.21,5.56-2.95,0-5.21-.97-6.78-2.92s-2.35-4.16-2.35-6.65c-3.31,3.95-6.14,6.85-8.47,8.69-2.35,1.84-4.85,2.76-7.5,2.76ZM330.66,568.23c2.57,0,5.56-1.85,8.98-5.56,3.41-3.7,7.28-8.52,11.61-14.47l2.2-2.98c.2-.35.5-.53.88-.53l.44.09c.35-1.17.53-2.53.53-4.08,0-3.81-1.54-5.71-4.61-5.71s-6.61,1.73-10.14,5.18c-3.52,3.45-6.47,7.56-8.85,12.34s-3.58,8.84-3.58,12.21c0,1.24.2,2.13.6,2.7.42.55,1.07.82,1.95.82Z"/>
      <path d="M408.14,570.86c-2.81,0-4.98-.71-6.53-2.1-1.53-1.38-2.29-3.21-2.29-5.49,0-.94.16-2.04.5-3.3.33-1.26.67-2.5,1.04-3.74,1.02-3.37,1.54-5.87,1.54-7.5,0-1.46-.37-2.54-1.1-3.23-.74-.69-1.66-1.04-2.76-1.04-3.88,0-7.8,2.44-11.77,7.31-3.95,4.88-8.21,11.06-12.74,18.55-3.15,0-5.54-1.07-7.16-3.2l.97-2.76c4.33-10.48,6.5-18.25,6.5-23.32.58-.67,1.42-1.27,2.51-1.82,1.11-.54,2.17-.82,3.2-.82,1.26,0,2.2.3,2.86.88.67.59,1,1.4,1,2.42,0,1.99-.62,5.26-1.85,9.79,3.28-4.39,6.7-7.98,10.26-10.77,3.55-2.8,7.06-4.21,10.51-4.21,2.93,0,5.19,1.02,6.81,3.04,1.63,2.01,2.45,4.41,2.45,7.19,0,1.62-.21,3.16-.63,4.65-.4,1.47-1,3.11-1.79,4.93-1.26,3.1-1.88,5.41-1.88,6.94,0,1.11.25,1.93.75,2.45.52.5,1.15.75,1.88.75,2.42,0,5.05-1.66,7.88-4.99,2.82-3.34,5.37-7.3,7.63-11.86l1.88,1.57c-2.64,6.09-5.56,10.89-8.76,14.41-3.19,3.52-6.83,5.27-10.92,5.27Z"/>
      <path d="M429.24,573.84c-2.56,0-4.69-.85-6.4-2.54-1.73-1.68-2.61-4.06-2.61-7.16,0-4.25,1.56-9.01,4.68-14.28,3.12-5.29,7.09-9.77,11.93-13.43,4.85-3.68,9.7-5.52,14.53-5.52,3.22,0,5.91.83,8.07,2.48,2.17,1.66,3.26,3.77,3.26,6.34,0,3.37-2.1,5.13-6.28,5.27,2.65.82,3.99,1.91,3.99,3.3,0,.53-.27,1.3-.78,2.32-.53,1.03-1.11,2.1-1.76,3.2-1.18,1.91-2.1,3.58-2.76,5.02-.65,1.43-.97,2.75-.97,3.99,0,1.11.27,2.06.82,2.82.54.75,1.37,1.13,2.48,1.13,2.05,0,4.66-1.42,7.85-4.27,3.2-2.86,6.31-7.16,9.32-12.9l2.07,2.1c-2.7,6.09-6.07,10.99-10.11,14.69-4.04,3.7-8.11,5.56-12.21,5.56-2.95,0-5.21-.97-6.78-2.92s-2.35-4.16-2.35-6.65c-3.31,3.95-6.14,6.85-8.47,8.69-2.35,1.84-4.85,2.76-7.5,2.76ZM431.56,568.23c2.57,0,5.56-1.85,8.98-5.56,3.41-3.7,7.28-8.52,11.61-14.47l2.2-2.98c.2-.35.5-.53.88-.53l.44.09c.35-1.17.53-2.53.53-4.08,0-3.81-1.54-5.71-4.61-5.71s-6.61,1.73-10.14,5.18c-3.52,3.45-6.47,7.56-8.85,12.34-2.39,4.77-3.58,8.84-3.58,12.21,0,1.24.2,2.13.6,2.7.42.55,1.07.82,1.95.82Z"/>
      <path d="M529.51,572.09c-2.72,0-4.82-.82-6.28-2.45-1.47-1.61-2.2-3.66-2.2-6.15,0-1.17.16-2.46.47-3.89.33-1.44.72-2.78,1.16-4.02.96-3.01,1.44-5.22,1.44-6.62,0-2.2-.85-3.3-2.54-3.3s-3.48,1.18-5.62,3.55c-2.12,2.35-4.97,6.2-8.57,11.55-.88,1.32-2.2,3.55-3.95,6.69l-2.1,3.77c-1.32,0-2.75-.27-4.3-.78-1.53-.5-2.29-1.21-2.29-2.1,0-.73.76-3.08,2.29-7.03,1.46-3.81,2.65-7.14,3.58-10.01.92-2.86,1.38-5.25,1.38-7.16,0-2.2-.77-3.3-2.29-3.3-1.99,0-4.57,1.56-7.72,4.68-3.16,3.12-6.28,7.09-9.35,11.9-3.08,4.79-5.46,9.54-7.16,14.25-1.32,0-2.88-.37-4.68-1.1-1.8-.74-2.7-1.37-2.7-1.88l7.06-28.19c.2-.79.99-1.51,2.35-2.13,1.36-.63,2.59-.94,3.7-.94s1.98.34,2.67,1c.71.65,1.07,1.53,1.07,2.64,0,1.18-.52,3.81-1.54,7.91,3.52-4.83,7.14-8.84,10.89-12.02,3.74-3.2,7.26-4.8,10.55-4.8,2.49,0,4.27.88,5.34,2.64s1.6,3.97,1.6,6.62c0,1.38-.15,2.68-.44,3.89-.3,1.22-.77,2.85-1.41,4.9,5.12-7.55,10.44-11.33,15.95-11.33,2.64,0,4.56.8,5.78,2.39,1.21,1.57,1.82,3.53,1.82,5.87s-.74,5.64-2.2,9.89c-.09.3-.37,1.26-.85,2.89-.46,1.62-.69,2.93-.69,3.95,0,1.97.91,2.95,2.73,2.95,2.65,0,5.24-1.68,7.75-5.05,2.53-3.37,4.9-7.41,7.13-12.12l1.85,2.32c-2.12,5.51-4.85,10.25-8.19,14.22-3.35,3.95-7.18,5.93-11.49,5.93Z"/>
      <path d="M557.34,573.5c-4.63,0-8.22-1.25-10.8-3.74-2.57-2.49-3.86-5.68-3.86-9.57,0-4.25,1.44-8.85,4.3-13.81,2.86-4.96,6.54-9.1,11.02-12.43,4.47-3.34,8.87-5.02,13.18-5.02,2.28,0,4.18.58,5.71,1.73,1.55,1.13,2.32,3.01,2.32,5.65,0,3.54-1.37,6.87-4.08,9.98-2.7,3.12-6.2,5.67-10.48,7.66-4.29,1.97-8.68,3.2-13.15,3.7-.15.74-.22,1.59-.22,2.54,0,1.91.53,3.82,1.6,5.74,1.07,1.91,3.36,2.86,6.87,2.86,4.47,0,9.04-1.82,13.69-5.46,4.66-3.64,8.43-8.17,11.3-13.59l2.2,1.76c-2.93,6.62-7.14,11.94-12.62,15.98-5.46,4.02-11.13,6.03-16.98,6.03ZM552.7,553.6c2.65-.29,5.62-1.36,8.88-3.2,3.26-1.84,6.03-4.1,8.29-6.78,2.28-2.68,3.42-5.29,3.42-7.85,0-.82-.15-1.37-.44-1.66-.3-.29-.78-.44-1.44-.44-2.12,0-4.44,1.02-6.97,3.04-2.53,2.01-4.87,4.55-7,7.63-2.12,3.08-3.7,6.17-4.74,9.26Z"/>
      <path d="M602.46,571.52c-2.72,0-4.93-.72-6.62-2.17-1.68-1.42-2.51-3.33-2.51-5.74,0-1.4.27-2.93.82-4.58.54-1.65,1.37-3.65,2.48-6,.94-2.05,1.66-3.78,2.17-5.21.52-1.44.78-2.71.78-3.8,0-2.8-1.84-5.16-5.49-7.06-1.47,3.69-3.17,7.4-5.12,11.14-1.95,3.73-3.69,6.87-5.21,9.45l-1.66-3.2c3.37-6,6.34-12.63,8.91-19.9-.74-.73-1.1-1.73-1.1-2.98,0-1.9.58-3.69,1.76-5.37,1.17-1.69,2.31-2.54,3.42-2.54.73,0,1.33.44,1.79,1.32.48.88.72,1.62.72,2.2,0,.3-.17.93-.5,1.91-.31.99-.55,1.69-.69,2.13.06.53.35,1.03.85,1.51.52.49,1.48,1.16,2.89,2.04,2.57,1.68,4.57,3.31,6,4.9,1.42,1.57,2.13,3.67,2.13,6.31,0,1.62-.27,3.23-.82,4.87-.55,1.62-1.37,3.55-2.48,5.81-1.62,3.25-2.42,5.56-2.42,6.94,0,1.69.92,2.54,2.76,2.54,2.2,0,4.59-.88,7.19-2.64,2.61-1.76,5-3.9,7.16-6.43,2.17-2.53,3.77-4.9,4.8-7.13l2.64,2.01c-1.47,3.29-3.53,6.43-6.18,9.45-2.64,3.01-5.59,5.48-8.85,7.38s-6.47,2.86-9.6,2.86Z"/>
      <path d="M643.81,522.34c-1.53,0-2.82-.36-3.89-1.1-1.07-.73-1.6-1.8-1.6-3.2,0-1.67.93-3.15,2.79-4.43,1.88-1.29,3.88-1.95,6-1.95,3.15,0,4.74,1.37,4.74,4.08,0,1.53-.85,3.01-2.54,4.46-1.68,1.43-3.51,2.13-5.49,2.13ZM630.82,571.96c-3.08,0-5.46-.93-7.16-2.76-1.67-1.82-2.51-4.16-2.51-7.03s.83-6.91,2.48-11.93c1.65-5.02,3.74-9.43,6.28-13.25,2.53-3.83,5.07-5.74,7.63-5.74.96,0,1.76.28,2.39.85.63.55.94,1.33.94,2.35,0,.65-.31,1.55-.91,2.7-.59,1.13-1.54,2.76-2.86,4.9-2.35,3.88-4.2,7.3-5.56,10.26-1.37,2.97-2.04,5.79-2.04,8.44,0,2.26.41,3.8,1.22,4.61.82.8,2.06,1.19,3.74,1.19,5.79,0,11.56-5.6,17.29-16.82l1.63,1.76c-2.57,6.47-5.84,11.5-9.79,15.1-3.95,3.58-8.22,5.37-12.77,5.37Z"/>
      <path d="M661.31,574.82c-3.95,0-7.13-1.24-9.51-3.7-2.39-2.45-3.58-6.04-3.58-10.8s1.19-9.3,3.58-13.78c2.39-4.47,5.48-8.11,9.29-10.89,3.81-2.78,7.66-4.17,11.55-4.17,2.95,0,5.13.74,6.56,2.2,1.42,1.47,2.13,3.3,2.13,5.49s-.53,4.26-1.6,6.12c-1.05,1.87-2.35,2.79-3.89,2.79-1.4,0-2.54-.69-3.42-2.07.88-.58,1.68-1.61,2.42-3.08.73-1.48,1.1-3.21,1.1-5.18,0-1.26-.69-1.88-2.07-1.88-2.35,0-4.88,1.4-7.6,4.21-2.72,2.79-5.01,6.15-6.84,10.11-1.82,3.95-2.73,7.56-2.73,10.8,0,2.35.58,4.32,1.76,5.9,1.17,1.57,3.19,2.35,6.06,2.35s5.69-.8,8.73-2.42c3.05-1.63,5.9-3.93,8.54-6.91,2.65-2.97,4.75-6.4,6.28-10.3l2.2,2.01c-1.76,4.39-4.2,8.36-7.31,11.9-3.12,3.52-6.59,6.28-10.42,8.29-3.81,2.01-7.55,3.01-11.21,3.01Z"/>
      <path d="M691.67,573.84c-2.56,0-4.69-.85-6.4-2.54-1.73-1.68-2.61-4.06-2.61-7.16,0-4.25,1.56-9.01,4.68-14.28,3.12-5.29,7.09-9.77,11.93-13.43,4.85-3.68,9.7-5.52,14.53-5.52,3.22,0,5.91.83,8.07,2.48,2.17,1.66,3.26,3.77,3.26,6.34,0,3.37-2.1,5.13-6.28,5.27,2.65.82,3.99,1.91,3.99,3.3,0,.53-.27,1.3-.78,2.32-.53,1.03-1.11,2.1-1.76,3.2-1.18,1.91-2.1,3.58-2.76,5.02-.65,1.43-.97,2.75-.97,3.99,0,1.11.27,2.06.82,2.82.54.75,1.37,1.13,2.48,1.13,2.05,0,4.66-1.42,7.85-4.27,3.2-2.86,6.31-7.16,9.32-12.9l2.07,2.1c-2.7,6.09-6.07,10.99-10.11,14.69-4.04,3.7-8.11,5.56-12.21,5.56-2.95,0-5.21-.97-6.78-2.92-1.57-1.95-2.35-4.16-2.35-6.65-3.31,3.95-6.14,6.85-8.47,8.69-2.35,1.84-4.85,2.76-7.5,2.76ZM693.99,568.23c2.57,0,5.56-1.85,8.98-5.56,3.41-3.7,7.28-8.52,11.61-14.47l2.2-2.98c.2-.35.5-.53.88-.53l.44.09c.35-1.17.53-2.53.53-4.08,0-3.81-1.54-5.71-4.61-5.71s-6.61,1.73-10.14,5.18c-3.52,3.45-6.47,7.56-8.85,12.34-2.39,4.77-3.58,8.84-3.58,12.21,0,1.24.2,2.13.6,2.7.42.55,1.07.82,1.95.82Z"/>
      <path d="M771.48,570.86c-2.81,0-4.98-.71-6.53-2.1-1.53-1.38-2.29-3.21-2.29-5.49,0-.94.16-2.04.5-3.3.33-1.26.67-2.5,1.04-3.74,1.02-3.37,1.54-5.87,1.54-7.5,0-1.46-.37-2.54-1.1-3.23-.74-.69-1.66-1.04-2.76-1.04-3.88,0-7.8,2.44-11.77,7.31-3.95,4.88-8.21,11.06-12.74,18.55-3.15,0-5.54-1.07-7.16-3.2l.97-2.76c4.33-10.48,6.5-18.25,6.5-23.32.58-.67,1.42-1.27,2.51-1.82,1.11-.54,2.17-.82,3.2-.82,1.26,0,2.2.3,2.86.88.67.59,1,1.4,1,2.42,0,1.99-.62,5.26-1.85,9.79,3.28-4.39,6.7-7.98,10.26-10.77,3.55-2.8,7.06-4.21,10.51-4.21,2.93,0,5.19,1.02,6.81,3.04,1.63,2.01,2.45,4.41,2.45,7.19,0,1.62-.21,3.16-.63,4.65-.4,1.47-1,3.11-1.79,4.93-1.26,3.1-1.88,5.41-1.88,6.94,0,1.11.25,1.93.75,2.45.52.5,1.15.75,1.88.75,2.42,0,5.05-1.66,7.88-4.99,2.82-3.34,5.37-7.3,7.63-11.86l1.88,1.57c-2.64,6.09-5.56,10.89-8.76,14.41-3.19,3.52-6.83,5.27-10.92,5.27Z"/>
      <path d="M792.57,573.84c-2.56,0-4.69-.85-6.4-2.54-1.73-1.68-2.61-4.06-2.61-7.16,0-4.25,1.56-9.01,4.68-14.28,3.12-5.29,7.09-9.77,11.93-13.43,4.85-3.68,9.7-5.52,14.53-5.52,3.22,0,5.91.83,8.07,2.48,2.17,1.66,3.26,3.77,3.26,6.34,0,3.37-2.1,5.13-6.28,5.27,2.65.82,3.99,1.91,3.99,3.3,0,.53-.27,1.3-.78,2.32-.53,1.03-1.11,2.1-1.76,3.2-1.18,1.91-2.1,3.58-2.76,5.02-.65,1.43-.97,2.75-.97,3.99,0,1.11.27,2.06.82,2.82.54.75,1.37,1.13,2.48,1.13,2.05,0,4.66-1.42,7.85-4.27,3.2-2.86,6.31-7.16,9.32-12.9l2.07,2.1c-2.7,6.09-6.07,10.99-10.11,14.69-4.04,3.7-8.11,5.56-12.21,5.56-2.95,0-5.21-.97-6.78-2.92-1.57-1.95-2.35-4.16-2.35-6.65-3.31,3.95-6.14,6.85-8.47,8.69-2.35,1.84-4.85,2.76-7.5,2.76ZM794.9,568.23c2.57,0,5.56-1.85,8.98-5.56,3.41-3.7,7.28-8.52,11.61-14.47l2.2-2.98c.2-.35.5-.53.88-.53l.44.09c.35-1.17.53-2.53.53-4.08,0-3.81-1.54-5.71-4.61-5.71s-6.61,1.73-10.14,5.18c-3.52,3.45-6.47,7.56-8.85,12.34-2.39,4.77-3.58,8.84-3.58,12.21,0,1.24.2,2.13.6,2.7.42.55,1.07.82,1.95.82Z"/>
    </g>
    <g>
      <g>
        <path d="M419.28,202.47s133.56-64.16,0-202.47h0c-133.56,138.31,0,202.47,0,202.47Z"/>
        <path d="M598.6,66.15c-15.97,8.69-23.09,26.39-26.79,40.03-2.39,8.8-5.09,18.78-9.59,30.43-16.37,42.39-45.22,66.18-85.75,70.73-18.11,2.03-34.5-.34-45.22-2.75,4.92-3.18,11.2-7.69,17.74-13.59,18.88-17.03,30.93-37.61,34.86-59.52.82-4.59,1.31-10.09,1.45-14.78,19.41-7.25,38.6-16.99,55.25-26.48,12.78-7.28,22.58-18.35,58.05-24.06Z"/>
        <path d="M238.75,65.97c15.97,8.69,23.09,26.39,26.79,40.03,2.39,8.8,5.09,18.78,9.59,30.43,16.37,42.39,45.22,66.18,85.75,70.73,18.11,2.03,34.5-.34,45.22-2.75-4.92-3.18-11.2-7.69-17.74-13.59-18.88-17.03-30.93-37.61-34.86-59.52-.82-4.59-1.31-10.09-1.45-14.78-19.41-7.25-38.6-16.99-55.25-26.48-12.78-7.28-22.58-18.35-58.05-24.06Z"/>
        <path d="M514.52,59.38c3.06-2.17,6.99-5.55,11.54-9.46,9.12-7.85,16.49-13.18,34.86-17.1-17.24,12.05-24.39,48.6-25.13,49.02-15.31,8.73-32.96,18.5-50.7,25.47-.62-8.67-2.36-17.52-5.21-26.54,12.43-6.67,23.71-13.65,34.65-21.4Z"/>
        <path d="M274.61,31.78c18.1,3.15,28.77,10.29,37.88,18.14,4.55,3.91,8.47,7.3,11.54,9.46,10.93,7.74,22.22,14.72,34.65,21.4-2.85,9.02-4.59,17.87-5.21,26.54-17.74-6.97-35.39-16.75-50.7-25.47-.74-.42-12.48-41.53-28.15-50.07Z"/>
        <path d="M419.28,310.75c-21.73-21.52-29.4-39.82-34.13-56.95,10.47-1.36,19.46-5.04,26.22-10.81,3.2-2.73,5.86-6.48,7.91-9.96,2.04,3.47,4.7,7.22,7.91,9.96,6.76,5.77,15.75,9.45,26.22,10.81-4.73,17.13-12.65,35.46-34.13,56.95Z"/>
        <path d="M552.5,211.14c12.16,9.07,20.33,18.91,25.09,25.66-42.83-5.92-60.23-1.37-77.06,3.04-11.41,2.99-22.19,5.82-41.23,4.84-24.17-1.24-34.01-14.91-35.1-26.23-.18-1.85-.13-3.74.12-5.62,8.11,2.12,21.86,4.9,38.11,4.9,5.11,0,10.2-.28,15.11-.83,19.4-2.17,36.69-8.61,51.39-19.12.09-.06.18-.13.27-.2,8.22,3.6,16.04,8.14,23.3,13.55Z"/>
        <path d="M286.05,211.14c-12.16,9.07-20.33,18.91-25.09,25.66,42.83-5.92,60.23-1.37,77.06,3.04,11.41,2.99,22.19,5.82,41.23,4.84,24.17-1.24,34.01-14.91,35.1-26.23.18-1.85.13-3.74-.12-5.62-8.11,2.12-21.86,4.9-38.11,4.9-5.11,0-10.2-.28-15.11-.83-19.4-2.17-36.69-8.61-51.39-19.12-.09-.06-.18-.13-.27-.2-8.22,3.6-16.04,8.14-23.3,13.55Z"/>
      </g>
      <g>
        <path class="cls-1" d="M727.8,421.36h7.58c13.07,0,23.78-11.91,23.78-26.35s-6.86-26.35-23.78-26.35h-48.94l8.9,3.49v90.09l-8.9,3.4h33.79l-8.9-3.4v-40.88h16.48ZM727.8,372.89c10.98.4,16.48,11.26,16.48,22.27s-5.49,21.59-16.48,21.99c-.21,0-.41.01-.63.01h-15.85v-44.28c5.37,0,11.16-.21,16.48.01Z"/>
        <path class="cls-1" d="M789.69,368.85h-1.84l-22.96,83.79c-2.65,9.67-3.3,9.53-9.35,13.3h15.58c-4.33-4.1-2.66-11.6-.35-19.99l3.72-13.45,15.21.03,15.29.03c4.2,15.48,14.69,31.12.43,33.53h34.59l-10.45-3.71-25.56-93.52h-14.29ZM789.69,428.62h-14.15l14.15-51.77h0s14.15,51.77,14.15,51.77h-14.15Z"/>
        <path class="cls-1" d="M635.06,465.72c15.22-.46,30.23-7.51,37.35-19.84,5.01-8.68,5.46-20.68,2.13-30.11-5.57-15.78-22.2-24.32-35.96-31.47-15.41-8-18.44-12.8-16.94-17.18,1.51-4.42,7.67-8.39,16.51-8.21,17.83.38,27.97,6.15,32.04,22.4v-22.35s-2.79,5.7-2.79,5.7c-5.54-10.29-16.59-14.87-28.39-15.28-7.03-.24-15.06,1.31-21.22,5.25-9.8,6.26-13.18,19.22-7.18,29.37,5.13,8.69,15.28,13.23,26.1,19,32.6,15.25,32.61,54.83-2.42,55.21-19.3.64-32.42-5.56-40.36-30.01,1.46,24.93,14.39,38.25,41.14,37.51Z"/>
        <path class="cls-1" d="M511.05,424.14c4.16.68,8.18,1.25,12.07,1.67l-12.07-44.86-.55-2.04-11.52,43.06c4.13.8,8.15,1.53,12.07,2.17h0ZM511.05,371.09h13.3l14.68,55.27c10.83-.69,16.45-3.05,24.27-10.42-4.24,8.93-12.91,13.53-23.47,14.9,4.35,16.08,2.36,32.28,18.94,35.29h-33.19c7.65-7.4,5.74-9.51,3.1-19.36l-3.99-14.91c-4.13-.22-8.82-1.07-13.65-2.05-4.46-.91-9.06-1.92-13.47-2.65l-9.71,36.16,4.8,2.66h-14.95l6.31-3.08,9.85-36.44c-12.48-2.33-25.07-4.68-37.96-7.28v25.34c0,12.03-1.64,16.95,8.78,21.45h-33.32c10.46-3.47,8.78-9.25,8.78-21.78v-27.72c-12.48-2.33-24.41-6.87-34.84-7.28v35.21c0,11.53-1.01,18.42,8.78,21.56h-33.32c9.63-2.57,8.78-9.44,8.78-22v-34.1c-7.43,1.17-13.4,3.74-17.76,7.99-1.18,1.15,3.53-12.86,17.76-14.38v-18.95c-.06-3.14-.22-12-8.78-13.48h33.32c-8.94,1.54-8.74,12.35-8.78,13.95v17.5c10.56,0,22.35,4.21,34.84,6.54v-23.83c-.05-1.22.07-12.64-8.78-14.16h33.32c-5.97,2.67-8.77,3.48-8.77,13.94v27.34c13.16,2.88,26.6,6.17,39.35,8.78l13.3-49.64-.14-.41h2.61Z"/>
        <path class="cls-1" d="M161.48,465.99c19.48,0,32.07-8.09,33.19-32.91,0-18.18-.35-36.61.01-54.76.07-3.56.54-6.29,3.42-7.23h-14.95c1.01.88,1.98,3,2.65,6.44.5,2.58.84,5.9.91,10.01v33.47l.14,9.6c0,15.22-1.78,31.07-21.53,31.07s-21.53-15.85-21.53-30.94c0-33.42.2-14.42.14-40-.01-7.59-1.15-18.1,8.77-19.65h-33.32l8.78,3.94v58.05c0,21.94,16.59,32.91,33.32,32.91Z"/>
        <path class="cls-1" d="M251.72,379.05c-4.22-2.62-9.17-4.13-14.81-4.13l-3.29.14v86.94c6.73,0,12.21-.81,18.1-4.37,12.23-7.38,18.1-23.07,18.1-38.82s-6.2-32.38-18.1-39.76h0ZM251.72,463.82c-.5.13-1,.26-1.51.38-6.72,1.65-13.71,1.92-20.71,1.92l-20.43-.14c7-1.34,8.99-4.98,8.95-9.26v-74.74c.22-5.36-2.27-9.14-8.95-10.9l19.61-.14c9.81,0,18.96.64,28.03,4.4,19.38,8.05,27.39,26.26,27.65,44.83,0,19.07-9.34,37.47-32.64,43.64Z"/>
        <path class="cls-1" d="M339.65,461.99c18.77-7.57,26.22-24.3,26.19-41.53-.27-19.61-9.19-38.81-30.99-46.08-8.03-2.73-16.28-3.15-24.68-3.15l-19.61.14c6.67,1.76,9.16,5.55,8.94,10.9v74.74c.04,4.28-1.95,7.93-8.94,9.26l20.43.14c9.93,0,19.44-.69,28.66-4.41h0ZM333.2,379.33c11.9,7.38,18.1,23.57,18.1,39.76s-5.88,31.44-18.1,38.82c-4.58,2.77-10.06,4.37-16.46,4.37h-1.65v-86.95l3.29-.14c5.64,0,10.58,1.51,14.81,4.13Z"/>
        <path class="cls-1" d="M68.66,465.97c-8.41-.52-17.34-2.44-26.04-5.13-17.21-5.31-28.05-9.46-42.63,3.29,8.85-14.58,22.52-16.11,37.94-11.74,9.77,2.77,22.93,6.45,30.72,6.54,10.61.12,18.84-4.52,23.23-20.1,1.16-4.12,1.75-8.5,1.75-12.9-.13-15.57-7.53-29.72-23.88-29.72h-16.48v34.33c.61,7.83-1.44,19.7,7.77,23.96l-22.78-5.36.08-87.58c-.12-3.75-2.64-10.29-8.3-12.07h45.68c12.2,0,22.19,10.51,22.19,23.36,0,8.82-4.8,16.61-11.68,20.5,15.31,3.64,24.08,17.26,24.14,32.45.12,32.56-18.86,41.58-41.72,40.17h0ZM84.04,372.85c0-9.62-5.15-19.73-15.96-19.73h-14.79v39.32c5.04,0,10.38.17,15.38-.01,10.25-.35,15.38-9.9,15.38-19.59Z"/>
      </g>
    </g>
  </g>
</svg>