<svg width="1501" height="159" viewBox="0 0 1501 159" fill="none" xmlns="http://www.w3.org/2000/svg">
<path d="M283.3 0.966672H238.5C235 0.966672 232.1 3.76667 232.1 7.36667V49.0667C232.1 50.5667 230.9 51.5667 229.6 51.5667H202.5C201 51.5667 200 50.3667 200 49.0667V7.36667C200 3.86667 197.2 0.966672 193.6 0.966672H148.4C144.9 0.966672 142 3.76667 142 7.36667V150.967C142 154.467 144.8 157.367 148.4 157.367H193.6C197.1 157.367 200 154.567 200 150.967V111.567C200 110.067 201.2 109.067 202.5 109.067H229.6C231.1 109.067 232.1 110.267 232.1 111.567V150.967C232.1 154.467 234.9 157.367 238.5 157.367H283.3C286.8 157.367 289.7 154.567 289.7 150.967V7.36667C289.6 3.86667 286.7 0.966672 283.3 0.966672ZM361.8 0.966672H317C313.5 0.966672 310.6 3.76667 310.6 7.36667V150.967C310.6 154.467 313.4 157.367 317 157.367H361.8C365.3 157.367 368.2 154.567 368.2 150.967V7.36667C368.1 3.76667 365.3 0.966672 361.8 0.966672ZM696.9 0.966672H652.1C648.6 0.966672 645.7 3.76667 645.7 7.36667V150.967C645.7 154.467 648.5 157.367 652.1 157.367H696.9C700.4 157.367 703.3 154.567 703.3 150.967V7.36667C703.3 3.76667 700.5 0.966672 696.9 0.966672ZM490.6 108.967H447.2C445.7 108.967 444.7 107.767 444.7 106.467V7.36667C444.7 3.86667 441.9 0.966672 438.3 0.966672H393.5C390 0.966672 387.1 3.76667 387.1 7.36667V150.967C387.1 154.467 389.9 157.367 393.5 157.367H490.5C494 157.367 496.9 154.567 496.9 150.967V115.367C497 111.767 494.2 108.967 490.6 108.967ZM619.4 108.967H576C574.5 108.967 573.5 107.767 573.5 106.467V7.36667C573.5 3.86667 570.7 0.966672 567.1 0.966672H522.3C518.8 0.966672 515.9 3.76667 515.9 7.36667V150.967C515.9 154.467 518.7 157.367 522.3 157.367H619.3C622.8 157.367 625.7 154.567 625.7 150.967V115.367C625.8 111.767 623 108.967 619.4 108.967ZM1474.4 64.0667C1465.3 59.1667 1460.5 57.1667 1450.6 53.6667C1447.8 52.5667 1444.6 50.8667 1445 47.5667C1445.4 44.7667 1449.6 44.2667 1452.8 44.4667C1453.3 44.4667 1469.9 45.6667 1482.1 46.8667C1485.9 47.2667 1489.1 44.2667 1489.1 40.5667V8.26667C1489.1 4.96667 1486.6 2.26667 1483.3 1.96667C1467.9 0.566671 1427.4 -2.23333 1411.1 3.26667C1393.5 9.06667 1380.6 19.6667 1376.9 38.7667C1372.9 59.4667 1379.9 75.9667 1396.9 88.5667C1405.3 94.7667 1411.7 98.3667 1421.4 102.667C1423.2 103.467 1424.9 104.667 1424.5 107.267C1424 110.167 1420.4 110.167 1417.8 110.167C1405.9 109.967 1392.7 107.767 1380.5 105.967C1376.6 105.367 1373.2 108.367 1373.2 112.267V148.167C1373.2 151.467 1375.6 154.167 1378.9 154.467C1390.9 155.767 1406.5 157.467 1417.1 158.167C1437.5 159.467 1457.6 158.367 1476 147.967C1485.6 142.867 1492.4 134.767 1496.4 125.367C1505.9 102.367 1496.2 75.8667 1474.4 64.0667ZM996.3 0.966672H890.1C886.6 0.966672 883.7 3.76667 883.7 7.36667V150.967C883.7 154.467 886.5 157.367 890.1 157.367H996.3C999.8 157.367 1002.7 154.567 1002.7 150.967V117.567C1002.7 114.067 999.9 111.167 996.3 111.167H943.7C942.2 111.167 941.2 109.967 941.2 108.667V98.3667C941.2 96.8667 942.4 95.8667 943.7 95.8667H988.6C992.1 95.8667 995 93.0667 995 89.4667V66.0667C995 62.5667 992.2 59.6667 988.6 59.6667H943.7C942.2 59.6667 941.2 58.4667 941.2 57.1667V49.4667C941.2 47.9667 942.4 46.9667 943.7 46.9667H996.3C999.8 46.9667 1002.7 44.1667 1002.7 40.5667V7.26667C1002.6 3.86667 999.8 0.966672 996.3 0.966672ZM115.5 0.966672H107.8C72.2 0.966672 50.2 1.16668 28.2 19.4667C8.20001 36.0667 0 55.9667 0 79.1667C0 102.367 8.20001 122.267 28.2 138.867C50.2 157.167 72.3 157.367 107.8 157.367H115.5C119 157.367 121.9 154.567 121.9 150.967V102.467C121.9 100.967 120.7 99.9667 119.4 99.9667H87.5C74.9 99.9667 65.7 90.6667 65.7 79.2667C65.7 67.8667 74.8 58.5667 87.5 58.5667H119.4C120.9 58.5667 121.9 57.3667 121.9 56.0667V7.56667C121.9 3.86667 119 0.966672 115.5 0.966672ZM1111.5 90.0667H1095.7C1094.1 90.0667 1092.9 88.5667 1093.2 86.9667L1100.5 55.4667C1100.8 54.2667 1101.8 53.5667 1103 53.5667H1104.4C1105.6 53.5667 1106.6 54.3667 1106.9 55.4667L1114.2 86.9667C1114.3 88.5667 1113.1 90.0667 1111.5 90.0667ZM1145.8 5.46667C1145 2.76667 1142.5 0.966672 1139.7 0.966672H1067.3C1064.5 0.966672 1062.1 2.76667 1061.2 5.46667L1018.1 149.067C1016.8 153.167 1019.9 157.267 1024.2 157.267H1072.2C1075.2 157.267 1077.7 155.267 1078.4 152.367L1081.7 138.067C1082 136.867 1083 136.167 1084.2 136.167H1123.1C1124.3 136.167 1125.3 136.967 1125.6 138.067L1128.9 152.367C1129.6 155.267 1132.1 157.267 1135.1 157.267H1183.1C1187.4 157.267 1190.4 153.167 1189.2 149.067L1145.8 5.46667ZM792.1 116.767H785.1C783.6 116.767 782.6 115.567 782.6 114.267V96.1667C782.6 94.6667 783.8 93.6667 785.1 93.6667H792.7C801.1 93.6667 810.9 94.4667 810.7 105.467C810.7 115.367 802.3 116.767 792.1 116.767ZM782.7 38.6667C782.7 37.1667 783.9 36.1667 785.2 36.1667H789.5C798.6 36.1667 808.2 36.9667 808 48.2667C807.8 58.4667 799.4 59.8667 788.9 59.8667H785.4C783.9 59.8667 782.9 58.6667 782.9 57.3667L782.7 38.6667ZM839.9 78.2667C846.5 74.5667 851.5 70.0667 855 64.6667C858.5 59.2667 860.2 52.5667 860.2 44.7667C860.2 31.0667 855 20.2667 844.4 12.6667C834.1 5.06667 819.4 1.16667 800.5 1.16667H731.6C728.1 1.16667 725.2 3.96667 725.2 7.56667V151.067C725.2 154.567 728 157.467 731.6 157.467H812.1C828 157.467 840.7 153.567 850.3 145.867C859.8 138.267 864.5 127.667 864.5 114.267C864.5 105.867 862.5 98.8667 858.2 93.1667C854 87.3667 847.9 82.4667 839.9 78.2667ZM1347.8 0.966672H1303C1299.5 0.966672 1296.6 3.76667 1296.6 7.36667V53.3667C1296.6 54.6667 1295 55.0667 1294.3 54.1667L1258.4 3.26667C1257.1 1.86667 1255.5 1.16667 1253.7 1.16667H1210.6C1207.1 1.16667 1204.2 3.96667 1204.2 7.56667V151.167C1204.2 154.667 1207 157.567 1210.6 157.567H1255.4C1258.9 157.567 1261.8 154.767 1261.8 151.167V105.167C1261.8 103.867 1263.4 103.467 1264.1 104.367L1300 155.367C1301.3 156.767 1302.9 157.467 1304.7 157.467H1347.7C1351.2 157.467 1354.1 154.667 1354.1 151.067V7.46667C1354.2 3.76667 1351.4 0.966672 1347.8 0.966672Z" fill="#fff"/>
</svg>
