<?xml version="1.0" encoding="UTF-8"?>
<svg id="Camada_2" data-name="Camada 2" xmlns="http://www.w3.org/2000/svg" viewBox="0 0 830.77 155.19" fill="#fff">
  <g id="Camada_1-2" data-name="Camada 1">
    <g>
      <path d="M2.31,55.13c-1.54-3.34-2.31-6.78-2.31-10.31,0-11.57,8.83-21.93,26.51-31.09C44.18,4.58,64.19,0,86.56,0c23.52,0,42.04,5.2,55.57,15.61,13.53,10.41,20.29,24.68,20.29,42.8,0,24.1-10.51,45.34-31.52,63.71-11.12,9.7-25.01,17.64-41.69,23.81-16.68,6.17-32.63,9.25-47.86,9.25s-21.98-5.49-21.98-16.48c0-3.99,1.25-12.21,3.76-24.68l12.53-62.94c1.09-5.4,1.64-9.28,1.64-11.66,0-2.25-.77-4.3-2.31-6.17,8.55-3.21,14.49-4.82,17.83-4.82,3.98,0,5.98,2.31,5.98,6.94,0,1.09-1.03,6.72-3.08,16.87l-10.51,52.72c-2.64,13.43-3.95,21.88-3.95,25.35,0,3.86,1.3,6.47,3.9,7.85,2.6,1.37,7.5,2.07,14.7,2.08,23.33-.01,42.86-7.12,58.59-21.31,15.74-14.2,23.61-31.8,23.63-52.81-.01-16.26-5.74-29.27-17.17-39.03-11.43-9.76-26.66-14.65-45.68-14.66-15.49.01-29.93,3.74-43.33,11.19-13.4,7.45-24.6,17.95-33.59,31.51Z"/>
      <path d="M199.72,106.09c0,18.79,7.97,28.18,23.9,28.18,13.82,0,29.04-6.57,45.69-19.72,16.64-13.14,31.65-30.45,45.01-51.93l8.19,4.52c-12.6,23.5-28.96,42.96-49.11,58.37-20.15,15.41-39.25,23.12-57.3,23.12-11.57,0-20.71-3.73-27.42-11.18-6.72-7.46-10.07-17.64-10.07-30.56,0-18.63,6.09-34.57,18.27-47.81,12.18-13.24,26.84-19.86,44-19.86,8.29,0,14.92,2.09,19.9,6.26,4.98,4.18,7.47,9.76,7.47,16.76,0,11.5-6.93,21.68-20.77,30.54-13.85,8.86-29.77,13.29-47.76,13.29ZM200.49,96.84c13.43-.7,24.95-4.55,34.56-11.54,9.61-6.98,14.41-15.06,14.41-24.23,0-8.2-3.66-12.3-10.99-12.3-8.74,0-16.8,4.68-24.19,14.04-7.39,9.36-11.99,20.7-13.78,34.03Z"/>
      <path d="M435.19,67.47c-15.55,26.09-32.03,46.64-49.45,61.64-17.41,15-33.58,22.51-48.48,22.51-12.4,0-22.46-4.24-30.17-12.72-7.71-8.48-11.57-19.5-11.57-33.06,0-17.86,6.65-33.43,19.95-46.7,13.3-13.27,28.92-19.9,46.84-19.9,7.26,0,13.22,1.4,17.88,4.19,4.66,2.8,6.99,6.35,6.99,10.65,0,7.07-6.01,12.37-18.02,15.9.64-1.54.96-3.02.96-4.43,0-10.41-5.53-15.61-16.58-15.61-9.58,0-18.4,5.35-26.46,16.05-8.07,10.7-12.1,22.41-12.1,35.13,0,10.35,2.68,18.78,8.05,25.3,5.36,6.52,12.35,9.78,20.96,9.78,23.65,0,51.34-24.52,83.09-73.54l8.1,4.82Z"/>
      <path d="M511.82,75.18c.19,1.54.29,2.93.29,4.14,0,18.57-6.3,34.76-18.89,48.58-12.6,13.82-27.34,20.72-44.24,20.72-12.92,0-23.44-4.13-31.57-12.39-8.13-8.26-12.19-18.97-12.19-32.15,0-14.97,5.25-27.95,15.76-38.94,10.51-10.99,22.89-16.48,37.16-16.48,2.18,0,4.5.29,6.94.87-1.61-2.89-2.41-5.33-2.41-7.33,0-3.08,1.06-6.04,3.18-8.87,15.68,1.29,28.72,9.32,39.13,24.1,10.67,7.26,21.78,10.89,33.35,10.89,7.52,0,15.65-2.54,24.39-7.61l4.82,8.19c-10.22,7.13-20.69,10.7-31.42,10.7-7.13,0-15.23-1.48-24.29-4.43ZM489.94,66.99c-5.33-1.61-10.25-4.18-14.75-7.71-3.28-.7-6.01-1.05-8.19-1.06-10.93.01-20.61,4.93-29.05,14.75-8.45,9.83-12.67,21.04-12.68,33.63,0,9.12,2.57,16.63,7.67,22.5,5.1,5.88,11.67,8.82,19.7,8.83,10.86,0,20.21-5.49,28.04-16.44,7.84-10.95,11.76-24.01,11.77-39.17-.01-5.27-.85-10.38-2.51-15.33Z"/>
      <path d="M564.36,145.55c-4.39,2.06-7.91,3.08-10.56,3.08-6.59,0-9.88-2.89-9.88-8.67,0-2.95,1.16-10.31,3.47-22.07l4.82-24c2.95-14.27,4.43-24.83,4.43-31.71,0-3.73-1.06-6.84-3.18-9.35,6.75-2.31,12.24-3.47,16.48-3.47,4.5,0,6.75,2.86,6.75,8.58,0,3.53-1.59,12.82-4.78,27.86l-5.45,28.05c12.13-23.58,24.35-41.91,36.64-54.99,12.29-13.08,23.45-19.62,33.46-19.62,3.53,0,6.58,1.01,9.15,3.04,2.57,2.02,3.85,4.48,3.85,7.37,0,4.5-4.88,10.47-14.65,17.93-2.44-5.08-5.91-7.61-10.4-7.61-8.15,0-18.55,8.67-31.19,26.02-7.83,10.8-14.63,21.93-20.41,33.4-5.78,11.47-8.66,19.65-8.66,24.53l.1,1.64Z"/>
      <path d="M730.34,87.33c-8.24,17.03-18.38,31.5-30.45,43.42-12.06,11.92-22.56,17.88-31.51,17.88-6.82,0-12.27-3.04-16.36-9.11-4.08-6.07-6.13-14.15-6.13-24.24,0-20.11,6.09-37.82,18.28-53.11,12.19-15.29,26.29-22.94,42.31-22.94,9.71,0,20.23,3.02,31.55,9.06,1.67-5.98,8.48-8.96,20.43-8.96.77,0,2.02.03,3.76.1-3.66,5.59-6.46,13.24-8.39,22.94l-1.64,8.19c-1.86,9.13-2.8,19.79-2.8,32,0,14.07,3.28,21.11,9.83,21.11,6.94,0,16.43-5.8,28.48-17.4,12.05-11.6,23.89-26.36,35.52-44.29l7.52,5.2c-11.89,21.21-25.48,38.89-40.77,53.06-15.29,14.17-28.43,21.25-39.42,21.25-13.88,0-20.82-11.57-20.82-34.7,0-4.82.19-11.31.58-19.47ZM734.87,64.29c-13.51-8.8-24.74-13.21-33.69-13.21-9.72,0-18.11,5.9-25.19,17.69-7.08,11.79-10.62,25.78-10.62,41.98,0,12.98,4.25,19.47,12.74,19.47,9.2,0,26.8-20.18,52.8-60.53.32-.51,1.64-2.31,3.96-5.4Z"/>
    </g>
  </g>
</svg>