<svg width="234" height="88" fill="none" xmlns="http://www.w3.org/2000/svg"><g clip-path="url(#a)" fill="#fff"><path d="M219 65.2a30.9 30.9 0 0 1-4.4-4.6 3 3 0 0 0-2.1-1.2l-5.9-.7c-3-.5-6-1.3-9-1.2-1.4 0-2.1.6-2.7 1.6-.9 1.6-.6 3.1-.1 4.7.8 2.5.6 2.9-1.5 4.3-1.6 1-3.2 2-4.5 3.5-.5.4-1 1-1 1.6l-.6 4.5c0 1.6.6 3 2 3.8L193 84c3.7 2.9 8.1 3.8 12.8 4 2 0 3.9-.2 5.7-1 1.3-.6 2.4-1.4 2.8-2.8.8-3.1 2.6-5.7 4.4-8.2 1-1.2 1.7-2.5 2-4 .7-2.6.6-4.9-1.7-6.8Zm-11.8-.7c.6-.6 1.2-.6 1.8 0 .5.7.6 1.5.7 2.2-.1.8-.2 1.5-.7 2.1-.6.7-1.2.7-1.8 0-1-1-1-3.2 0-4.3Zm-5.5.7c.9 0 1.6 1.3 1.6 2.7v.6c-.2 1.2-1 2.1-1.6 2-.7 0-1.4-1-1.5-2.1V68c0-1.5.7-2.7 1.5-2.8Zm12.3 5.3A12.5 12.5 0 0 1 203.5 81a6 6 0 0 1-6-3 10.6 10.6 0 0 1-1.6-6c0-.8.3-1.5 1.2-1.4 1 0 .9.7.9 1.4v.7c0 1.1 0 2.3.6 3.4 1 2.2 3 3.2 5.3 2.8 4-.8 7.6-4.6 8-8.7.2-.8.4-1.3 1.2-1.2.8.1 1 .7.9 1.4Zm-5.5-35.1c.2 1.2-.3 2.5-.3 3.8 0 1.4.3 2.6.8 3.8a12 12 0 0 1 .2 8c-.4 1.5-1 1.7-2.6 1.8-1.3 0-2.2-.6-3.2-1.1-.6-.3-.7-.9-.7-1.5-.1-2.1.2-4.1.7-6.2.2-.7.3-1.5.1-2.3-.5-2.7-.3-5.4-.4-8.1 0-.5 0-1 .2-1.3.2-.7 0-1.7 1-1.8 1.2-.2 2.3-.3 3.1.9 1 1.2 1.1 1.5 1.1 4ZM222 40c0 1.7-.4 3.2-1.1 4.6a11 11 0 0 0-1.2 5.1c0 2-.6 4-1.1 5.9-.3 1.1-1.4 1.3-2.1.3-1.5-1.7-1.8-3.9-1.8-6 0-2.6.9-5 1.2-7.5a15.5 15.5 0 0 1 2.8-6.7c.9-1 1.6-.8 2.3.2.7 1.3 1 2.7 1 4.2Zm-27.3 16.1c-.7.1-1-.2-1.3-.8-.8-2.3-2.2-4.3-3.7-6.1-2-2.4-3.1-5.1-3.2-8.3 0-1.6.7-2.9 1.7-3.2 1-.2 2 .5 3 1.9.7 1.1 1.2 2.4 1.5 3.7.2 1 .7 2 1.4 2.8.9.8 1.3 1.8 1.3 3 0 1.3.7 2.4 1.7 3.3.6.6 1.2 1.2 1 2.2-.4 1-1.2 1.3-2.2 1.4l-1.2.1Zm-21 11.7c0-1.1.7-2.2 2.1-2.9a15 15 0 0 1 2.7-.8c2.3-.5 4 .3 5.3 2.2a14 14 0 0 1 1.6 2.9c.4 1.1-.2 2.7-1.5 3.8-1 .8-1.6.8-3 0a8.6 8.6 0 0 0-4.1-1.6c-2-.2-3.1-1.4-3.1-3.6Zm57.9-18.2c.6 0 1.3.1 1.8.6.6.6.8 1.2.3 2a16.5 16.5 0 0 1-5.1 5.6c-1 .6-1.6 1.7-2.2 2.7l-1.7 2.9c-.3.7-.7 1-1.4.7-.8-.1-1.2-.6-1-1.4.2-1.9.7-3.7 2.2-5 1.2-1.3 2-2.5 2.4-4.3.3-2.1 2.6-3.8 4.7-3.8ZM152.2 0c1.1 1.4 1 3 .6 4.6-.4 2.3-1 4.6-2 6.7a6.4 6.4 0 0 1-2.7 3.3c-.4.2-.9.4-1.3.1-.4-.3-.4-.8-.3-1.2.4-1.5.6-3.1 1.4-4.6a4 4 0 0 0 .5-2c0-2.7.8-5 2.9-6.9h1Zm7.8 31.5-.4-.8c-1-1.6-.8-3.1.3-4.6l.3-.4c.7-1 .9-2 .5-2.9a3 3 0 0 0-1.7-1.4c-3.2-1.4-6.7-2-10-3.2-.4-.2-.8-.1-1.2 0a23 23 0 0 1-4.6 1.7c-1.8.5-2.6 1.8-3.2 3.3-.3 1.1-.3 2.2 0 3.3.2 2 .8 3.8.5 5.7v.4c-.6 2.4.5 4 2.4 5.3 2.6 1.8 5.5 2.6 8.9 2.8l6.1-.9c.9-.1 1.5-.6 1.9-1.4 1.2-2.2 2-4.5.2-6.9Zm-5.8 3.4c-.5.6-.8.6-1.4.1l-3.1-3.2-.2.1a18 18 0 0 0 2.2 4.6 4 4 0 0 1-4.7-2 8.2 8.2 0 0 1-.7-7c.5-1.7 1.5-3.1 2.8-4.6l.3 1.6c.3 1.2 1 2 1.9 2.8l1.1.8c1.3.9 2.3 1.8 2.6 3.3a4 4 0 0 1-.9 3.5ZM157 16c-2.7 0-3.4-1-2.6-3.4a9 9 0 0 1 2.7-4.3c1-.8 1.4-2 1.9-3.2.4-1.3.8-2.6 2.1-3.4 1-.5 1.8-.4 2.6.2.7.5.3 1.4 0 2-.7 1.6-1.4 3.3-2.3 4.8-.8 1-1.3 2.2-1.6 3.5-.2 1-.5 1.8-.9 2.6-.4 1-1 1.5-2 1.3Zm14-4.5c1 0 1.4.5 1.4 1.3 0 1-.4 1.7-.9 2.5a10.3 10.3 0 0 1-4.4 3.6 13 13 0 0 0-3.8 2.4c-.4.4-.9.8-1.5.3-.7-.5-1.6-.7-1.6-1.8 0-.8.6-1.1 1.3-1.3.8-.3 1.6-.7 2-1.4a4 4 0 0 1 2.2-2c.6-.2 1-.7 1.6-1.2 1-1.1 2-2.2 3.7-2.4Zm-7.5 22.8.1-.7c.8-2 4.2-3.1 6-2a7 7 0 0 1 2.2 1.8c.7 1 .6 2 0 3-.5.9-1.4 1.2-2.4.8a9 9 0 0 0-4.1-.3c-1.1 0-1.9-1-1.8-2.6ZM142 9.5c-.8 1.4-.1 3 .3 4.7.3 1 0 2.1-.4 3.1-.1.5-.5.7-1 .7s-.9-.3-.8-.7c.1-3-1.1-5.5-2-8.2-.2-.6-.2-1.3-.3-2 0-1.2.6-1.7 1.8-1.4 1.3.3 2.3 1.9 2.3 3.8ZM18.7 60.2h-3.5l-.5-1.8a83.5 83.5 0 0 0-1.9-5.2c-.4-.9-.8-1.5-1.3-1.8a150.8 150.8 0 0 1-.6 9l-.2 2.5H5v-.3c0-.7.4-2.7 1.1-5.9.8-3.2 1.1-5.4 1.1-6.4 0-.6-.1-1.1-.4-1.6-.3-.5-.7-.8-1.4-.8l-.9.1c-.2 0-.5.3-.8.6-.3.2-.4.6-.4 1.1a2.4 2.4 0 0 0 .8 1.9l.5.4.2.3c0 .3-.2.5-.5.7-.3.2-.7.3-1 .3-1 0-1.8-.3-2.4-1-.6-.5-.9-1.4-.9-2.6 0-1.5.6-2.8 1.7-3.7 1.1-1 2.9-1.4 5.2-1.4a8 8 0 0 1 5.7 2.3c.7.7 1.3 1.5 1.8 2.4a15.7 15.7 0 0 1 2 5.7h.1a17.6 17.6 0 0 0-.4-7.9l-.4-1v-.4c0-.8.5-1.3 1.7-1.3 2.1 0 3.2 1.5 3.2 4.5a113.9 113.9 0 0 1-1.9 11v.4Zm25.9-6-1-1-1.3-.6-1-.7a1 1 0 0 1-.4-.8l.2-.8c.2-.3.2-.6.2-.8 0-.4-.1-.7-.5-1a2.4 2.4 0 0 0-2.5 0l-.9.8-.9 1A6 6 0 0 1 34 52c-.4-1.1-1-2-2-2.6-1.1-.6-2.4-.9-3.8-.9-2.3 0-4.1.6-5.4 1.7a5.3 5.3 0 0 0-1.9 4c0 1.8.6 3.2 1.7 4.1 1 1 2.7 1.4 4.7 1.4s3.6-.5 4.8-1.4c1.2-.9 1.9-2 2.1-3.4 1.2-.3 2.3-.7 3.2-1.3h.2l.8 1.1.8.7.3.5c0 .2 0 .4-.2.5l-.6.2-1-.4c-.3-.2-.7-.3-1-.3a2 2 0 0 0-1.3.4c-.3.3-.5.7-.5 1.1 0 1.5 1.5 2.3 4.4 2.3 1 0 2-.1 2.7-.3a5 5 0 0 0 1.6-.8 3.4 3.4 0 0 0 1.5-2.8 3 3 0 0 0-.4-1.6Zm-17.2 2.6c-.5 0-.8-.1-1-.5-.3-.3-.5-1-.5-1.8 0-1.1.2-2 .5-2.5.4-.5.9-.8 1.4-.8h.3c-.3.5-.4.9-.4 1.3 0 1.2.5 2 1.5 2.3-.3 1.4-.9 2-1.8 2Z"/><path d="M58 54.2c-.2-.4-.5-.8-1-1l-1.2-.6-1-.7a1 1 0 0 1-.4-.8l.2-.8c.2-.3.2-.6.2-.8 0-.4-.1-.7-.5-1-.3-.2-.8-.3-1.4-.3a3 3 0 0 0-1.6.4c-.5.3-.9.7-1.2 1.2l-1 1.6a182.4 182.4 0 0 1-2.1 3.4 4.5 4.5 0 0 1-2 1.5l-1 .1c-1 0-1.9 0-2.5-.2l-.3.2-.3.5c-.2.2-.2.5-.2.7 0 .9.4 1.4 1.2 1.8.5.2 1.2.3 2.2.3 1.5 0 2.8-.7 4.1-2.1h.2c.2.7.7 1.3 1.6 1.6.8.3 1.7.5 2.7.5 2 0 3.4-.4 4.4-1.1a3.4 3.4 0 0 0 1-4.4Zm-5.5 2.3c-.2.2-.5.2-1 .2-.3 0-.6 0-.8-.2-.2-.2-.4-.4-.4-.6l-.2-.5.2-.3.5-.6.4-.5.8.7.7.7.2.5c0 .3-.1.5-.4.6Zm19.8-.1c-.4-.2-.6-.4-.6-.7l.1-2.4c.2-1 .2-1.8.2-2.4 0-.7 0-1.2-.2-1.5-.1-.2-.4-.4-1-.4l-1.9-.3-2-.2c-2.2 0-4 .7-5.5 2a6.6 6.6 0 0 0-1.8 7.2c.3.5.6 1 1 1.2l1.2.6 1.1.2c1.4 0 2.6-.7 3.7-2.1 0 .6.3 1 .7 1.4.5.4 1.4.7 2.5.7.8 0 1.5-.2 2.1-.7.6-.3.9-1 1-1.7V57c0-.2-.2-.4-.6-.6Zm-7.1-.8c-.2 0-.4 0-.5-.3-.2-.2-.2-.5-.2-.8 0-.8.2-1.6.6-2.3.5-.8 1-1.1 1.7-1.1h.2c0 3-.6 4.5-1.8 4.5Zm24 6.1h-5.8l-.1-1.7c0-1.1.2-2.9.5-5.2a38.9 38.9 0 0 0 .5-5.7c0-.3-.2-.5-.4-.8-.3-.2-.6-.3-1-.3H82a1.6 1.6 0 0 0-1.1 1.6c0 .4 0 .9.3 1.2l.7.8.4.3c0 .3-.2.5-.5.7-.3.2-.6.2-1 .2-.8 0-1.6-.2-2.2-.8-.7-.5-1-1.3-1-2.4 0-1.5.6-2.7 1.8-3.7 1.2-1 3-1.5 5.2-1.5.7 0 1.3.1 1.8.3.6.1 1 .3 1.3.5.4.2.7.5 1 .9l.5 1 .2 1.2a12 12 0 0 1 .1 2.2c0 1.3 0 3.2-.2 5.7l-.2 5.5Zm3-10.3c0-.3-.1-.7-.3-1l-.3-1c0-.6.9-.9 2.6-.9a4 4 0 0 1 2 .4c.5.3.8.7.9 1.2.3-.4.8-.8 1.5-1.1a5 5 0 0 1 2.1-.5 5 5 0 0 1 2 .4c.5.2.9.5 1.1.9.3.3.4.7.5 1l.2 1a33.3 33.3 0 0 1-.2 3.9c0 .3.2.5.6.7.4.2.6.4.6.6 0 .8-.3 1.4-.8 2-.5.4-1.3.7-2.3.7-.6 0-1.2 0-1.6-.3-.5-.1-.8-.3-1-.5a2 2 0 0 1-.5-.9 3.4 3.4 0 0 1-.2-1.4c0-.3 0-1 .2-1.7l.1-2c0-.5-.2-.8-.5-.8-.6 0-1 .6-1.4 1.7a15.9 15.9 0 0 0-.2 5.5h-5.2c-.2-.3-.3-1.1-.3-2.4l.2-2.7.2-2.8Zm14.6 8.3.3-3.4a113.5 113.5 0 0 0-.1-4.6c-.2-.2-.3-.3-.5-.3a1 1 0 0 1-.4-.3.9.9 0 0 1-.2-.6c0-.3.1-.6.4-.8.3-.2.6-.4 1.1-.5.3-3.4 2-5 5-5 1.2 0 2 .2 2.6.6.6.4.9.8.9 1.4a1.5 1.5 0 0 1-1.6 1.6c-.4 0-.7 0-1-.3a2 2 0 0 0-.9-.2c-.2 0-.3 0-.3.2a6.1 6.1 0 0 0 0 1.5c.8 0 1.5 0 1.8.3.4.2.6.5.6 1 0 .4-.1.7-.3.9l-.8.4-.8.2c-.2 0-.3.2-.3.3a163.2 163.2 0 0 0 .2 4.8c0 2.3-.3 4-1 5.1-.6 1.1-1.6 1.7-3 1.7-2 0-2.9-.9-2.9-2.6 0-.3.2-.5.5-.7.4-.2.6-.4.7-.7Zm20.8-3.3c-.4-.2-.6-.4-.6-.7 0-.6 0-1.4.2-2.4l.1-2.4c0-.7 0-1.2-.2-1.5-.1-.2-.4-.4-1-.4l-1.8-.3-2-.2c-2.3 0-4.1.7-5.6 2a6.6 6.6 0 0 0-1.8 7.2c.3.5.6 1 1 1.2l1.2.6 1.2.2c1.4 0 2.6-.7 3.6-2.1.2 1.4 1.3 2 3.2 2 .9 0 1.6-.1 2.2-.6.6-.4.9-1 .9-2 0-.2-.2-.5-.6-.6Zm-7.1-.8c-.2 0-.4 0-.5-.3l-.2-.8c0-.8.2-1.6.7-2.3.4-.8 1-1.1 1.6-1.1h.3c0 3-.7 4.5-2 4.5Zm4.8-10.7c-.7-.6-1.3-1-1.8-1s-1.2.4-2.3 1c-1 .8-1.6 1.3-1.6 1.8 0 .2.1.4.3.5l.6.1c.3 0 .8 0 1.4-.3l1.3-.3 1 .4c.5.3.9.4 1.2.4.3 0 .5 0 .7-.3.2-.1.3-.3.3-.5 0-.6-.4-1.2-1-1.8Zm4.1 6.5c0-.3-.1-.7-.3-1l-.3-1c0-.6.9-.9 2.6-.9a4 4 0 0 1 2 .4c.4.3.8.7.9 1.2.3-.4.8-.8 1.5-1.1a5 5 0 0 1 2-.5 5 5 0 0 1 2 .4c.6.2 1 .5 1.2.9.3.3.4.7.5 1l.2 1a34 34 0 0 1-.2 3.9c0 .3.2.5.6.7.4.2.6.4.6.6 0 .8-.3 1.4-.8 2a4.6 4.6 0 0 1-3.9.5l-1-.6a2 2 0 0 1-.5-.9 3.4 3.4 0 0 1-.2-1.4l.1-1.7c.2-.9.2-1.5.2-2s-.2-.8-.5-.8c-.7 0-1.1.6-1.4 1.7a15.8 15.8 0 0 0-.2 5.5h-5.2c-.2-.3-.3-1.1-.3-2.4 0-.6 0-1.5.2-2.7l.2-2.8Zm20.2 8.3c-2 0-3.6-.5-4.7-1.5-1-1-1.5-2.3-1.5-3.9 0-1.7.7-3.1 2-4.2 1.3-1 3.1-1.6 5.4-1.6a6 6 0 0 1 3.1.7c.8.5 1.2 1.1 1.2 1.9 0 .6-.2 1.1-.6 1.4-.4.3-.8.4-1.4.4-.4 0-.7 0-1-.2l-.5-.6c0-.3-.2-.5-.4-.6a1 1 0 0 0-.8-.3c-.6 0-1.1.3-1.5 1a5 5 0 0 0-.5 2.4c0 .7.2 1.3.7 1.6.4.4 1.2.6 2.2.6a7.7 7.7 0 0 0 2.7-.5l.3-.2.7.2.2.5c0 .9-.4 1.5-1.3 2-1 .6-2.4.9-4.3.9Zm12.8-3.1-.4-.2a1 1 0 0 1-.4-.3 42.5 42.5 0 0 1 0-5.5c0-.8-.2-1.3-.7-1.6-.6-.3-1.3-.5-2.3-.5-1.7 0-2.5.3-2.5.9 0 .2 0 .6.3 1 .2.3.3.7.3 1l-.2 2.8a24.8 24.8 0 0 0-.2 3.3 2.8 2.8 0 0 0 .7 1.5l1 .5 1.5.2c1 0 1.8-.2 2.3-.7.5-.5.8-1.2.8-2 0-.1 0-.3-.2-.4ZM161 44.7c-.5-.4-1.1-.5-1.9-.5-.7 0-1.3.1-1.9.5-.5.4-.8.8-.8 1.3s.3 1 .8 1.4c.5.3 1.2.5 2 .5.7 0 1.3-.2 1.8-.5.6-.4.8-.8.8-1.4 0-.5-.2-1-.8-1.3Zm26.4 8.6c-.4-.4-.8-.6-1.3-.6-.3 0-.6.3-.7.6a7.1 7.1 0 0 1-6.9 4.3c-1 0-1.8-.2-2.3-.6-.5-.3-.7-.8-.7-1.3l.1-2.4.2-2.4c0-.7 0-1.2-.2-1.4-.1-.3-.5-.5-1-.5l-1.9-.3-2-.2c-2.2 0-4 .7-5.5 2a6.6 6.6 0 0 0-1.8 7.2c.3.5.6 1 1 1.2l1.2.6 1.1.2c1.4 0 2.6-.7 3.6-2.1.8 1.5 3 2.3 7 2.3a19.9 19.9 0 0 0 7-1.3c1-.3 1.9-.9 2.6-1.6a3 3 0 0 0 1-2.1c0-.7-.2-1.2-.6-1.6ZM169 55.6c-.2 0-.4 0-.5-.3l-.2-.8c0-.8.2-1.6.6-2.3.5-.8 1-1.1 1.7-1.1h.2c0 3-.6 4.5-1.8 4.5ZM27.4 41.4h-5v-1.6a57.5 57.5 0 0 1 .3-5.8l-.2-.7c-.2-.2-.2-.4-.2-.5 0-.3.3-.5 1-.7.7-.2 1.4-.2 2.1-.2 1.6 0 2.7 0 3.2.2.6.1.9.4.9.8 0 .8-.5 1.2-1.5 1.3 0-.3-.3-.4-1-.4h-.9v1.7l1-.1c1 0 1.4.3 1.4 1 0 .3 0 .5-.2.6a106.7 106.7 0 0 1-2.3.6V39h.5a10.7 10.7 0 0 0 2-.2h.1c.3 0 .5.1.7.4l.2.8c0 1-.7 1.3-2 1.3Zm6.1-5.4c0 .2.2.4.6.6l1.5.5c.5.1 1 .4 1.4.7.4.4.7.8.7 1.3 0 1.7-1.4 2.5-4 2.5-2.7 0-3.9-.6-3.9-1.8 0-.4.2-.7.4-.8.3-.2.6-.3 1-.3.3 0 .6.2 1 .4.4.3.8.4 1.2.4.4 0 .5 0 .5-.3 0-.2 0-.3-.3-.4l-.9-.4c-.4 0-.7-.2-1-.4l-1-.7c-.2-.3-.3-.7-.3-1.1 0-.7.3-1.1.9-1.5.6-.4 1.4-.5 2.5-.5 2.5 0 3.7.4 3.7 1.4 0 .6-.4.9-1 .9-.3 0-.7-.1-1.2-.4l-1.2-.3c-.4 0-.6 0-.6.2Zm8.8 5.6c-1.4 0-2.4-.3-3.1-1-.7-.7-1-1.5-1-2.6 0-1.2.4-2 1.3-2.8.9-.7 2-1 3.6-1a4 4 0 0 1 2 .4c.6.3.8.7.8 1.3 0 .4 0 .7-.3.9-.3.2-.6.3-1 .3-.2 0-.5 0-.7-.2a.9.9 0 0 1-.3-.4 1 1 0 0 0-.3-.4.7.7 0 0 0-.5-.2c-.4 0-.7.2-1 .7-.2.5-.3 1-.3 1.6 0 .5.1.8.4 1 .3.3.8.5 1.5.5a5.2 5.2 0 0 0 1.8-.4h.7l.1.4c0 .5-.3 1-.9 1.3-.6.4-1.5.6-2.8.6ZM53.9 35c-.8-.5-1.8-.8-3-.8-1.5 0-2.7.3-3.6 1-.8.8-1.2 1.7-1.2 2.8 0 1.2.3 2 1 2.7.8.6 1.9.9 3.2.9 1.5 0 2.7-.4 3.5-1.1.8-.8 1.2-1.7 1.2-2.7 0-1.2-.4-2.1-1.1-2.7Zm-2.5 4c-.2.5-.5.7-1 .7a.9.9 0 0 1-.6-.3c-.2-.3-.3-.7-.3-1.3 0-.7.1-1.2.3-1.6.3-.4.6-.6 1-.6.6 0 1 .6 1 1.6 0 .7-.2 1.2-.4 1.6Zm4.8-5.6c0-.2 0-.5-.2-.7l-.2-.6c0-.4.6-.6 1.7-.6.6 0 1.1 0 1.5.3.3.2.5.6.5 1a141.9 141.9 0 0 1 0 6.4l.2.2c.1 0 .2 0 .3.2l.1.2c0 .5-.1 1-.5 1.3-.4.3-.9.5-1.5.5-.4 0-.8 0-1-.2-.3 0-.5-.2-.7-.3l-.3-.5a2 2 0 0 1-.2-1 84.8 84.8 0 0 1 .3-6.2Zm13.1 6c-.2-.1-.4-.3-.4-.5l.1-1.5.1-1.6-.1-1c0-.2-.3-.3-.6-.3s-.7 0-1.3-.2l-1.3-.1a5 5 0 0 0-3.7 1.3 4.4 4.4 0 0 0-1.2 4.7c.2.4.4.7.7.9l.8.4h.7c1 0 1.8-.4 2.4-1.3.2 1 1 1.4 2.2 1.4.5 0 1-.2 1.4-.4.4-.3.6-.8.6-1.4 0-.2-.1-.3-.4-.4Zm-4.7-.5c-.1 0-.2 0-.3-.2a1 1 0 0 1-.2-.6c0-.5.2-1 .5-1.5s.6-.7 1-.7h.2c0 2-.4 3-1.2 3Zm16.2 2.5h-3.6v-1.6a57 57 0 0 1 .2-5.8c0-.2 0-.4-.2-.7l-.2-.5c0-.3.2-.5.7-.7A4.3 4.3 0 0 1 80 32c.3 0 .5.2.6.4l.2.4v.5a228 228 0 0 1 0 8ZM83 36c0-.1 0-.4-.2-.6l-.2-.6c0-.4.6-.7 1.7-.7.5 0 1 .1 1.3.3.3.2.5.5.6.8.2-.3.6-.5 1-.7.5-.2 1-.4 1.4-.4.5 0 1 .1 1.3.3.4.1.7.3.8.6l.4.7v.7a23.3 23.3 0 0 1 0 2.5c0 .2 0 .4.3.5.3.1.4.2.4.4 0 .5-.2 1-.5 1.3-.4.3-.9.5-1.5.5a3 3 0 0 1-1.1-.2L88 41l-.3-.5a2.6 2.6 0 0 1-.1-1v-1.1l.2-1.3c0-.4-.1-.6-.4-.6-.4 0-.7.4-.9 1.2a10.7 10.7 0 0 0-.1 3.6h-3.5c-.1-.2-.2-.7-.2-1.6A19.7 19.7 0 0 0 83 36Zm9.7 5.6.2-2.2a68 68 0 0 0-.1-3.2l-.3-.1a.7.7 0 0 1-.3-.2l-.1-.4c0-.2 0-.4.2-.6l.8-.3c.2-2.2 1.3-3.3 3.3-3.3a3 3 0 0 1 1.8.4c.3.2.5.5.5.9 0 .3 0 .6-.2.8a1 1 0 0 1-.8.3c-.3 0-.5 0-.7-.2l-.6-.2-.2.1a4 4 0 0 0 0 1c.6 0 1 .1 1.2.3.3 0 .4.3.4.7 0 .2 0 .4-.2.5-.2.2-.3.3-.5.3a5 5 0 0 0-.6.1l-.2.2a76.6 76.6 0 0 0 .2 3.2c0 1.5-.2 2.7-.6 3.4-.5.8-1.1 1.2-2 1.2-1.4 0-2-.6-2-1.8 0-.2.1-.3.4-.4l.4-.5Zm13.7-2.2c-.2-.1-.3-.3-.3-.5v-1.5l.2-1.6c0-.5 0-.8-.2-1 0-.2-.3-.3-.6-.3s-.7 0-1.3-.2l-1.3-.1c-1.5 0-2.7.4-3.7 1.3a4.4 4.4 0 0 0-1.2 4.7c.2.4.4.7.7.9l.8.4h.8c.9 0 1.7-.4 2.4-1.3.1 1 .8 1.4 2.1 1.4.6 0 1-.2 1.4-.4.4-.3.6-.8.6-1.4 0-.2 0-.3-.3-.4Zm-4.7-.5c-.1 0-.2 0-.3-.2a1 1 0 0 1-.1-.6c0-.5.1-1 .4-1.5.3-.5.7-.7 1.1-.7h.2c0 2-.5 3-1.3 3Zm6.1-2.9c0-.1 0-.4-.2-.6l-.2-.6c0-.4.6-.7 1.7-.7.5 0 1 .1 1.3.3.3.2.6.5.6.8.2-.3.6-.5 1-.7.5-.2 1-.4 1.4-.4.5 0 1 .1 1.3.3.4.1.7.3.8.6l.4.7v.7a23.6 23.6 0 0 1 0 2.5c0 .2 0 .4.3.5.3.1.4.2.4.4 0 .5-.2 1-.5 1.3-.4.3-.9.5-1.5.5a3 3 0 0 1-1-.2l-.8-.4-.3-.5a2.7 2.7 0 0 1-.1-1v-1.1c.2-.6.2-1 .2-1.3 0-.4-.1-.6-.4-.6-.4 0-.7.4-.9 1.2a10.4 10.4 0 0 0-.1 3.6h-3.5c-.1-.2-.2-.7-.2-1.6a19.5 19.5 0 0 0 .2-3.7Zm10.1 1c0-.3 0-.4-.2-.5l-.3-.2-.3-.2-.1-.4c0-.5.4-1 1.3-1.7 1-.6 1.7-.9 2.4-.9.4 0 .6.2.6.5v.5c0 .3 0 .4.2.4a5.3 5.3 0 0 1 1 0l.4.3v.4c0 .4 0 .7-.3.9-.3.3-.7.4-1.4.4v2.4c0 .5 0 .8.4.8l.6-.1.3-.2h.1l.2.3v.6c0 .3-.1.6-.5.9-.4.3-1.1.4-2.1.4-.5 0-1 0-1.4-.3l-.8-.7-.3-.7V38l.2-1.1Zm10.1 2.6c0-.1 0-.2-.2-.2 0 0-.2 0-.3-.2V39a19.1 19.1 0 0 1 0-1.7v-1.6c0-.5-.1-1-.5-1.1-.3-.2-.8-.3-1.4-.3-1.2 0-1.7.2-1.7.6l.2.6.1.7a18.7 18.7 0 0 1-.2 3.1v.9c0 .1 0 .3.2.5 0 .2.2.4.3.5l.6.4 1 .1c.7 0 1.2-.2 1.6-.5.3-.3.5-.8.5-1.3l-.1-.2Zm-1-8c-.3-.2-.7-.3-1.2-.3s-.9 0-1.2.3c-.4.3-.6.6-.6 1 0 .2.2.6.5.8.4.2.8.3 1.3.3s1 0 1.3-.3c.3-.2.5-.5.5-.9 0-.3-.2-.6-.5-.9Zm2.3 1.8c0-.2 0-.5-.2-.7l-.2-.6c0-.4.6-.6 1.7-.6.7 0 1.2 0 1.5.3.4.2.5.6.5 1a142.7 142.7 0 0 1 0 6.4l.3.2s.2 0 .3.2v.2c0 .5-.1 1-.5 1.3-.3.3-.8.5-1.5.5-.4 0-.7 0-1-.2-.3 0-.5-.2-.6-.3l-.4-.5a2 2 0 0 1-.1-1 93 93 0 0 1 .2-6.2Z"/></g><defs><clipPath id="a"><path fill="#fff" d="M0 0h234v88H0z"/></clipPath></defs></svg>