<svg width="219" height="112" fill="none" xmlns="http://www.w3.org/2000/svg"><g clip-path="url(#a)" fill="#fff"><path d="m37.6 98.4 1.46-6.91h.92l-1.45 6.91h-.92Zm2.46 0 1.05-5h.77l-.18.87c.33-.35.65-.6.94-.75.3-.16.59-.24.9-.24.4 0 .72.11.95.33.23.22.35.51.35.88 0 .19-.04.48-.13.88l-.63 3.03h-.86l.67-3.17c.06-.31.1-.54.1-.69 0-.16-.06-.3-.18-.4-.11-.1-.28-.16-.5-.16-.43 0-.82.16-1.16.47-.34.32-.6.86-.75 1.62l-.49 2.33h-.85Zm5.45-1.71.85-.05c0 .24.04.45.12.62a.9.9 0 0 0 .41.43c.2.1.44.16.71.16.38 0 .66-.07.85-.22.2-.15.29-.33.29-.54a.64.64 0 0 0-.17-.42c-.12-.13-.4-.29-.86-.48-.45-.2-.73-.33-.86-.41a1.4 1.4 0 0 1-.48-.46c-.1-.17-.16-.37-.16-.6 0-.4.16-.73.47-1.02a1.9 1.9 0 0 1 1.32-.42c.63 0 1.11.15 1.44.44.33.29.5.67.51 1.14l-.83.06a.96.96 0 0 0-.32-.72c-.2-.17-.49-.26-.86-.26-.3 0-.52.07-.69.2-.16.14-.24.28-.24.44 0 .16.07.3.21.42.1.08.34.2.73.37.66.29 1.07.51 1.24.67.27.26.4.58.4.96 0 .24-.07.49-.23.73-.15.24-.38.43-.7.57-.3.14-.67.21-1.1.21a2.5 2.5 0 0 1-1.47-.43c-.41-.28-.6-.75-.58-1.4Zm6.74 1.01-.14.7c-.2.06-.4.08-.6.08-.33 0-.6-.08-.8-.25a.63.63 0 0 1-.23-.5c0-.12.04-.37.12-.77l.61-2.9h-.67l.13-.67h.68l.26-1.23.97-.59-.38 1.82h.84l-.14.66h-.84l-.58 2.77c-.07.35-.1.56-.1.63 0 .1.02.18.08.23.06.06.16.08.29.08.19 0 .35-.02.5-.05Zm.65.7 1.05-5h.86l-1.05 5h-.85Zm1.25-5.94.2-.97h.85l-.2.97h-.85Zm2.93 5.24-.14.7c-.2.06-.4.08-.6.08-.34 0-.6-.08-.8-.25a.63.63 0 0 1-.23-.5c0-.12.04-.37.12-.77l.6-2.9h-.67l.14-.67h.67l.26-1.23.98-.59-.38 1.82h.84l-.15.66h-.83l-.58 2.77c-.07.35-.1.56-.1.63 0 .1.02.18.08.23.06.06.15.08.28.08.2 0 .36-.02.5-.05Zm4.11-.2c-.6.67-1.22 1.01-1.85 1.01-.38 0-.7-.1-.93-.33-.24-.22-.36-.5-.36-.81 0-.21.05-.57.16-1.09l.6-2.89h.86L59 96.6c-.06.27-.09.48-.09.63 0 .18.06.33.18.44.11.1.28.16.5.16.24 0 .47-.06.7-.18.23-.12.43-.27.6-.47.16-.2.3-.43.4-.7.06-.18.14-.48.23-.91l.46-2.17h.85l-1.05 5.01H61l.19-.9Zm3.94.2-.14.7c-.2.06-.4.08-.6.08-.33 0-.6-.08-.8-.25a.63.63 0 0 1-.23-.5c0-.12.04-.37.12-.77l.61-2.9h-.67l.13-.67h.68l.26-1.23.97-.59-.38 1.82h.84l-.14.66h-.84l-.58 2.77c-.07.35-.1.56-.1.63 0 .1.02.18.08.23.06.06.15.08.29.08.19 0 .35-.02.5-.05Zm.84-1.2c0-.98.29-1.79.86-2.43.48-.53 1.1-.79 1.87-.79.6 0 1.09.19 1.46.57.37.37.55.88.55 1.52 0 .58-.11 1.11-.35 1.6a2.59 2.59 0 0 1-2.34 1.54c-.4 0-.75-.08-1.07-.25-.32-.16-.56-.4-.73-.7-.16-.3-.25-.66-.25-1.06Zm.85-.08c0 .47.12.82.34 1.07.23.24.52.36.87.36.18 0 .36-.03.54-.1.18-.08.34-.2.5-.35.15-.15.28-.32.4-.51.1-.2.19-.4.25-.63a3 3 0 0 0 .15-.9c0-.44-.11-.8-.34-1.05a1.11 1.11 0 0 0-.86-.37c-.27 0-.51.06-.73.2-.22.12-.42.3-.6.55-.18.24-.3.53-.4.85-.07.33-.12.62-.12.87Zm8.92 1.98 1.28-6.12h-2.27l.17-.8h5.44l-.17.8h-2.24l-1.28 6.12h-.93Zm6.82-1.7.83.08c-.12.41-.4.8-.82 1.18a2.27 2.27 0 0 1-2.56.3 1.69 1.69 0 0 1-.7-.75c-.17-.33-.25-.7-.25-1.12 0-.55.13-1.08.38-1.59.26-.51.58-.9.99-1.15.4-.25.83-.37 1.3-.37.6 0 1.08.19 1.43.56.36.37.54.87.54 1.51 0 .25-.03.5-.07.76h-3.69l-.01.26c0 .47.1.83.32 1.07a1 1 0 0 0 .79.37c.29 0 .58-.1.86-.28.28-.2.5-.47.66-.83Zm-2.48-1.24h2.81v-.19c0-.43-.1-.76-.31-.98a1.08 1.08 0 0 0-.83-.35c-.36 0-.7.13-1 .38-.3.25-.52.63-.67 1.14Zm7.62 1.12.86.09a2.87 2.87 0 0 1-.9 1.39c-.4.3-.85.45-1.36.45-.54 0-.98-.17-1.32-.52-.34-.36-.5-.85-.5-1.48 0-.55.1-1.08.32-1.61s.53-.93.93-1.2c.4-.28.87-.42 1.39-.42.51 0 .96.15 1.27.45.32.3.48.7.48 1.2l-.84.07c0-.32-.1-.57-.28-.75a.97.97 0 0 0-.71-.27c-.35 0-.64.11-.9.33-.25.21-.44.54-.59.99-.14.44-.21.86-.21 1.27 0 .4.1.75.28.96a.9.9 0 0 0 .7.32c.28 0 .54-.1.8-.31.25-.21.45-.53.59-.96Zm1.38 1.82 1.05-5h.77l-.18.87c.33-.35.65-.6.94-.75.3-.16.6-.24.9-.24.4 0 .72.11.95.33.23.22.35.51.35.88 0 .19-.04.48-.13.88l-.63 3.03h-.86l.67-3.17c.07-.31.1-.54.1-.69 0-.16-.06-.3-.17-.4a.748.748 0 0 0-.5-.16c-.44 0-.83.16-1.17.47-.34.32-.59.86-.75 1.62l-.49 2.33h-.85Zm5.52-1.9c0-.98.29-1.79.86-2.43.48-.53 1.1-.79 1.87-.79.6 0 1.1.19 1.46.57.37.37.55.88.55 1.52 0 .58-.11 1.11-.34 1.6a2.59 2.59 0 0 1-2.35 1.54c-.4 0-.75-.08-1.07-.25-.31-.16-.56-.4-.73-.7-.16-.3-.25-.66-.25-1.06Zm.86-.08c0 .47.1.82.33 1.07.23.24.52.36.87.36.18 0 .36-.03.54-.1.18-.08.35-.2.5-.35.15-.15.28-.32.4-.51.1-.2.19-.4.25-.63a3 3 0 0 0 .15-.9c0-.44-.11-.8-.34-1.05a1.11 1.11 0 0 0-.86-.37c-.27 0-.51.06-.73.2-.22.12-.42.3-.6.55-.18.24-.3.53-.39.85-.08.33-.12.62-.12.87Zm4.29 1.98 1.45-6.91h.85l-1.44 6.91h-.86Zm2.37-1.9c0-.98.28-1.79.86-2.43a2.4 2.4 0 0 1 1.87-.79c.6 0 1.09.19 1.46.57.36.37.55.88.55 1.52 0 .58-.12 1.11-.35 1.6a2.6 2.6 0 0 1-2.35 1.54c-.39 0-.74-.08-1.06-.25-.32-.16-.56-.4-.73-.7-.17-.3-.25-.66-.25-1.06Zm.85-.08c0 .47.11.82.34 1.07.23.24.51.36.86.36.18 0 .36-.03.54-.1.18-.08.35-.2.5-.35.16-.15.29-.32.4-.51.1-.2.2-.4.26-.63.1-.3.14-.6.14-.9 0-.44-.1-.8-.34-1.05a1.11 1.11 0 0 0-.86-.37c-.26 0-.5.06-.73.2-.22.12-.42.3-.6.55-.17.24-.3.53-.39.85-.08.33-.12.62-.12.87Zm1.2-3.64.89-1.3h1.07l-1.25 1.3h-.7Zm3.12 6.07.86.08c0 .2.02.34.07.44.06.1.14.17.26.23.15.07.35.1.6.1.51 0 .88-.13 1.1-.4.15-.18.3-.57.42-1.17l.08-.4c-.44.45-.91.67-1.41.67-.5 0-.93-.19-1.27-.56-.34-.37-.51-.9-.51-1.58 0-.56.13-1.08.4-1.55s.59-.83.96-1.07c.37-.24.75-.36 1.15-.36.65 0 1.16.31 1.51.93l.17-.82h.78l-1 4.84c-.11.53-.26.94-.44 1.24-.18.3-.43.52-.74.69a3.03 3.03 0 0 1-2.15.09c-.3-.1-.5-.26-.65-.46-.14-.2-.22-.43-.22-.68l.03-.26Zm1.06-2.67c0 .35.04.6.1.78.1.24.23.42.4.55.18.13.37.2.59.2.28 0 .56-.1.83-.3.28-.2.5-.5.67-.91.17-.42.26-.8.26-1.18 0-.42-.11-.74-.34-.99a1.11 1.11 0 0 0-.85-.36c-.2 0-.4.05-.6.17-.2.1-.38.28-.55.5a3.03 3.03 0 0 0-.51 1.54Zm4.32 2.22 1.05-5h.85l-1.04 5h-.86Zm1.25-5.94.2-.97h.85l-.2.97h-.85Zm4.38 4.12.86.09a2.87 2.87 0 0 1-.91 1.39c-.4.3-.85.45-1.35.45-.54 0-.98-.17-1.32-.52-.34-.36-.5-.85-.5-1.48 0-.55.1-1.08.32-1.61a2.4 2.4 0 0 1 2.31-1.62c.52 0 .97.15 1.28.45.32.3.47.7.47 1.2l-.84.07c0-.32-.1-.57-.27-.75a.97.97 0 0 0-.72-.27c-.34 0-.64.11-.89.33-.25.21-.45.54-.59.99-.14.44-.21.86-.21 1.27 0 .4.09.75.28.96a.9.9 0 0 0 .7.32c.27 0 .54-.1.8-.31.24-.21.44-.53.59-.96Zm1.53-.08c0-.98.29-1.79.86-2.43.48-.53 1.1-.79 1.87-.79.6 0 1.09.19 1.46.57.37.37.55.88.55 1.52 0 .58-.11 1.11-.35 1.6a2.6 2.6 0 0 1-2.34 1.54c-.4 0-.75-.08-1.07-.25-.32-.16-.56-.4-.73-.7-.17-.3-.25-.66-.25-1.06Zm.85-.08c0 .47.12.82.34 1.07.23.24.52.36.87.36.18 0 .36-.03.54-.1.18-.08.34-.2.5-.35.15-.15.28-.32.4-.51.1-.2.19-.4.25-.63.1-.3.15-.6.15-.9 0-.44-.12-.8-.34-1.05a1.12 1.12 0 0 0-.86-.37c-.27 0-.51.06-.73.2-.22.12-.42.3-.6.55-.18.24-.3.53-.4.85-.08.33-.12.62-.12.87Zm10.42 1.25c-.48.56-.99.84-1.52.84-.48 0-.87-.17-1.19-.52-.31-.35-.47-.86-.47-1.53 0-.6.12-1.16.37-1.67.25-.5.57-.88.94-1.13.38-.25.75-.38 1.13-.38.62 0 1.1.3 1.41.9l.57-2.7h.84l-1.44 6.92h-.78l.14-.73Zm-2.33-1.37c0 .35.03.63.1.83.07.2.19.37.35.5.17.13.37.2.6.2.39 0 .74-.2 1.06-.6.42-.54.63-1.2.63-1.98 0-.4-.1-.71-.31-.93-.21-.23-.47-.34-.79-.34-.2 0-.39.05-.56.14-.16.09-.33.24-.5.46-.16.22-.3.5-.41.84-.12.33-.17.63-.17.88Zm4.48.2c0-.98.29-1.79.86-2.43.48-.53 1.1-.79 1.87-.79.6 0 1.09.19 1.46.57.37.37.55.88.55 1.52 0 .58-.11 1.11-.34 1.6a2.6 2.6 0 0 1-2.35 1.54c-.4 0-.75-.08-1.07-.25-.31-.16-.56-.4-.73-.7-.16-.3-.25-.66-.25-1.06Zm.85-.08c0 .47.12.82.34 1.07.23.24.52.36.87.36.18 0 .36-.03.54-.1.18-.08.34-.2.5-.35.15-.15.28-.32.4-.51.1-.2.19-.4.25-.63a3 3 0 0 0 .15-.9c0-.44-.11-.8-.34-1.05a1.11 1.11 0 0 0-.86-.37c-.27 0-.51.06-.73.2-.22.12-.42.3-.6.55-.18.24-.3.53-.39.85-.08.33-.13.62-.13.87Zm7.41-.25.9-.09v.24c0 .27.06.51.18.73.12.23.33.4.6.52.3.12.63.18 1.02.18.55 0 .97-.12 1.26-.36.3-.25.44-.52.44-.83a.9.9 0 0 0-.23-.6 4.39 4.39 0 0 0-1.29-.71 9.19 9.19 0 0 1-1.11-.55 2.2 2.2 0 0 1-.69-.66 1.55 1.55 0 0 1-.22-.83c0-.35.1-.67.3-.96.19-.28.47-.5.85-.65.37-.15.8-.23 1.27-.23.56 0 1.03.1 1.42.28a1.85 1.85 0 0 1 1.1 1.8l-.9.07c0-.2 0-.35-.04-.46a1.2 1.2 0 0 0-.84-.8 2.36 2.36 0 0 0-.78-.12c-.5 0-.89.11-1.17.34a.84.84 0 0 0-.32.69c0 .17.04.32.13.45.09.14.25.27.48.4.16.09.55.27 1.16.54.5.22.84.39 1.03.52a1.6 1.6 0 0 1 .78 1.41c0 .37-.11.72-.34 1.04-.23.31-.54.56-.94.73-.4.17-.87.26-1.39.26a3.3 3.3 0 0 1-1.91-.51c-.5-.34-.75-.96-.75-1.84Zm9.5 1.33c-.6.67-1.22 1.01-1.84 1.01-.39 0-.7-.1-.94-.33-.24-.22-.35-.5-.35-.81 0-.21.05-.57.16-1.09l.6-2.89h.85l-.67 3.2a3.2 3.2 0 0 0-.08.63c0 .18.05.33.17.44.12.1.28.16.5.16.25 0 .48-.06.7-.18.23-.12.43-.27.6-.47.16-.2.3-.43.4-.7.07-.18.15-.48.24-.91l.45-2.17h.85l-1.04 5.01h-.79l.19-.9Zm5.33.17c-.49.56-1 .84-1.53.84-.47 0-.87-.17-1.19-.52-.31-.35-.47-.86-.47-1.53 0-.6.13-1.16.38-1.67.25-.5.56-.88.93-1.13.38-.25.75-.38 1.13-.38.63 0 1.1.3 1.41.9l.57-2.7h.85l-1.45 6.92h-.78l.15-.73ZM154 96.3c0 .35.03.63.1.83.07.2.19.37.36.5.16.13.36.2.6.2.38 0 .73-.2 1.05-.6.42-.54.63-1.2.63-1.98 0-.4-.1-.71-.31-.93-.21-.23-.47-.34-.79-.34-.2 0-.39.05-.55.14-.17.09-.34.24-.5.46-.17.22-.3.5-.42.84-.11.33-.17.63-.17.88Zm4.48.2c0-.98.29-1.79.87-2.43a2.4 2.4 0 0 1 1.86-.79c.6 0 1.1.19 1.46.57.37.37.56.88.56 1.52 0 .58-.12 1.11-.35 1.6a2.6 2.6 0 0 1-2.35 1.54c-.4 0-.75-.08-1.06-.25-.32-.16-.57-.4-.73-.7-.17-.3-.26-.66-.26-1.06Zm.86-.08c0 .47.1.82.34 1.07.22.24.51.36.86.36.18 0 .36-.03.54-.1.18-.08.35-.2.5-.35.16-.15.29-.32.4-.51.1-.2.19-.4.26-.63a3 3 0 0 0 .14-.9c0-.44-.11-.8-.34-1.05a1.11 1.11 0 0 0-.86-.37c-.27 0-.51.06-.73.2-.22.12-.42.3-.6.55-.17.24-.3.53-.39.85-.08.33-.12.62-.12.87Zm8.04.28.83.08c-.12.41-.4.8-.82 1.18a2.27 2.27 0 0 1-2.56.3 1.68 1.68 0 0 1-.7-.75c-.17-.33-.25-.7-.25-1.12 0-.55.13-1.08.38-1.59s.58-.9.98-1.15c.4-.25.84-.37 1.3-.37.6 0 1.08.19 1.44.56.36.37.53.87.53 1.51 0 .25-.02.5-.06.76h-3.69l-.02.26c0 .47.11.83.33 1.07a1 1 0 0 0 .79.37c.29 0 .58-.1.86-.28.28-.2.5-.47.66-.83Zm-2.48-1.24h2.8l.01-.19c0-.43-.1-.76-.32-.98a1.08 1.08 0 0 0-.82-.35c-.37 0-.7.13-1 .38-.3.25-.52.63-.67 1.14Zm4.25 1.23.85-.05c0 .24.04.45.12.62a.9.9 0 0 0 .42.43c.2.1.44.16.7.16.38 0 .66-.07.85-.22.2-.15.29-.33.29-.54a.64.64 0 0 0-.17-.42c-.12-.13-.4-.29-.85-.48-.46-.2-.74-.33-.87-.41a1.4 1.4 0 0 1-.48-.46c-.1-.17-.16-.37-.16-.6 0-.4.16-.73.48-1.02a1.9 1.9 0 0 1 1.32-.42c.63 0 1.1.15 1.43.44.33.29.5.67.51 1.14l-.83.06a.96.96 0 0 0-.32-.72c-.2-.17-.49-.26-.85-.26-.3 0-.53.07-.7.2-.16.14-.24.28-.24.44 0 .16.07.3.21.42.1.08.34.2.73.37.66.29 1.07.51 1.24.67.27.26.4.58.4.96 0 .24-.07.49-.22.73-.16.24-.39.43-.7.57-.31.14-.68.21-1.1.21a2.5 2.5 0 0 1-1.48-.43c-.4-.28-.6-.75-.58-1.4Zm6.75 1.01-.15.7c-.2.06-.4.08-.6.08-.33 0-.6-.08-.8-.25a.63.63 0 0 1-.23-.5c0-.12.04-.37.12-.77l.61-2.9h-.67l.13-.67h.68l.26-1.23.97-.59-.38 1.82h.84l-.14.66h-.84l-.58 2.77c-.07.35-.1.56-.1.63 0 .1.02.18.08.23.06.06.16.08.29.08.19 0 .36-.02.5-.05Zm4.36-1 .83.08c-.12.41-.4.8-.82 1.18a2.27 2.27 0 0 1-2.56.3 1.68 1.68 0 0 1-.7-.75c-.17-.33-.25-.7-.25-1.12 0-.55.13-1.08.38-1.59s.58-.9.98-1.15c.4-.25.84-.37 1.3-.37.6 0 1.08.19 1.44.56.36.37.53.87.53 1.51 0 .25-.02.5-.06.76h-3.69l-.02.26c0 .47.11.83.33 1.07.21.25.48.37.79.37.29 0 .58-.1.86-.28.28-.2.5-.47.66-.83Zm-2.48-1.24h2.8l.01-.19c0-.43-.1-.76-.32-.98a1.08 1.08 0 0 0-.82-.35c-.37 0-.7.13-1 .38-.3.25-.52.63-.67 1.14Zm6.95 2.94 1.45-6.91h2.88c.5 0 .88.06 1.13.17.25.12.45.31.62.59.16.28.24.59.24.94 0 .28-.06.57-.17.87a2.29 2.29 0 0 1-.98 1.16c-.19.1-.38.17-.59.22-.44.1-.89.15-1.34.15h-1.73l-.59 2.81h-.92Zm1.67-3.59h1.53c.59 0 1.02-.06 1.3-.19.27-.13.5-.32.66-.58.17-.26.25-.54.25-.83 0-.23-.04-.41-.13-.55a.78.78 0 0 0-.37-.32c-.16-.07-.47-.1-.93-.1h-1.77l-.54 2.57Zm8.05 2.97c-.3.25-.58.44-.85.56a2.2 2.2 0 0 1-.88.17c-.46 0-.84-.13-1.12-.4a1.38 1.38 0 0 1-.42-1.05 1.44 1.44 0 0 1 .7-1.26c.2-.13.46-.22.77-.28.19-.04.55-.07 1.09-.1a3.9 3.9 0 0 0 1.15-.16c.07-.23.1-.43.1-.58 0-.2-.07-.35-.22-.47-.2-.15-.48-.23-.86-.23-.36 0-.66.08-.88.23-.23.16-.4.39-.5.68l-.86-.07c.17-.5.45-.88.83-1.14.39-.27.87-.4 1.45-.4.62 0 1.1.15 1.47.44.28.22.42.5.42.86 0 .27-.04.58-.12.93l-.28 1.24c-.09.4-.13.72-.13.97 0 .16.03.38.1.68h-.86a3.17 3.17 0 0 1-.1-.62Zm.31-1.92c-.11.05-.24.09-.38.11-.14.03-.36.05-.69.08-.5.05-.84.1-1.05.17a.83.83 0 0 0-.62.81c0 .24.09.44.25.6.17.15.4.22.7.22a1.63 1.63 0 0 0 1.43-.85c.16-.26.28-.64.36-1.14Zm5.1 1.64c-.6.67-1.21 1.01-1.84 1.01-.39 0-.7-.1-.94-.33-.24-.22-.35-.5-.35-.81 0-.21.05-.57.16-1.09l.6-2.89h.85l-.67 3.2c-.05.27-.08.48-.08.63 0 .18.06.33.17.44.12.1.28.16.5.16.25 0 .48-.06.7-.18.24-.12.43-.27.6-.47.16-.2.3-.43.4-.7.07-.18.15-.48.24-.91l.45-2.17h.86l-1.05 5.01h-.79l.2-.9Zm1.89.9 1.44-6.91h.85l-1.44 6.91h-.85Zm2.18 0 1.04-5h.85l-1.04 5h-.85Zm1.24-5.94.2-.97h.85l-.2.97h-.85Zm1.01 4.23.86-.05c0 .24.03.45.11.62a.9.9 0 0 0 .42.43c.2.1.44.16.7.16.38 0 .67-.07.86-.22.19-.15.28-.33.28-.54a.64.64 0 0 0-.17-.42c-.12-.13-.4-.29-.85-.48-.45-.2-.74-.33-.87-.41a1.4 1.4 0 0 1-.47-.46c-.11-.17-.16-.37-.16-.6 0-.4.15-.73.47-1.02a1.9 1.9 0 0 1 1.32-.42c.63 0 1.1.15 1.43.44.33.29.5.67.51 1.14l-.83.06a.96.96 0 0 0-.32-.72c-.2-.17-.48-.26-.85-.26-.3 0-.53.07-.7.2-.16.14-.24.28-.24.44 0 .16.07.3.22.42.09.08.33.2.73.37.65.29 1.06.51 1.23.67.27.26.4.58.4.96 0 .24-.07.49-.22.73-.16.24-.39.43-.7.57-.31.14-.68.21-1.1.21a2.5 2.5 0 0 1-1.48-.43c-.4-.28-.6-.75-.58-1.4Zm6.75 1.01-.15.7c-.2.06-.4.08-.59.08-.34 0-.61-.08-.81-.25a.63.63 0 0 1-.23-.5c0-.12.04-.37.13-.77l.6-2.9h-.67l.14-.67h.67l.26-1.23.97-.59-.38 1.82h.84l-.14.66h-.83l-.58 2.77c-.08.35-.11.56-.11.63 0 .1.03.18.08.23.06.06.16.08.3.08.18 0 .35-.02.5-.05Zm4.06.08c-.3.25-.58.44-.85.56a2.2 2.2 0 0 1-.88.17c-.46 0-.84-.13-1.12-.4a1.38 1.38 0 0 1-.42-1.05 1.44 1.44 0 0 1 .7-1.26c.2-.13.46-.22.77-.28.19-.04.55-.07 1.09-.1a3.9 3.9 0 0 0 1.15-.16c.07-.23.1-.43.1-.58 0-.2-.07-.35-.22-.47-.2-.15-.48-.23-.86-.23-.36 0-.65.08-.88.23-.23.16-.4.39-.5.68l-.86-.07c.17-.5.45-.88.83-1.14.39-.27.87-.4 1.45-.4.62 0 1.1.15 1.47.44.28.22.41.5.41.86 0 .27-.03.58-.11.93l-.28 1.24c-.09.4-.13.72-.13.97 0 .16.03.38.1.68h-.86a3.17 3.17 0 0 1-.1-.62Zm.31-1.92c-.11.05-.24.09-.38.11-.14.03-.36.05-.68.08-.5.05-.85.1-1.06.17a.84.84 0 0 0-.62.81c0 .24.09.44.25.6.17.15.4.22.7.22.3 0 .56-.07.82-.22.26-.15.47-.36.62-.63.15-.26.27-.64.36-1.14ZM81.7 43.42H53.23l-.05.15L38 85.99h13.1l11.28-31.51h9.42c.58 0 .99.57.8 1.12L61.72 86H76.1l11.98-33.51a6.78 6.78 0 0 0-6.38-9.07Zm26.9 11.06h10.33l3.95-11.06H92.33l-3.95 11.06h8.21l-9.33 26.08a4.06 4.06 0 0 0 3.83 5.43h17.19l3.95-11.05h-9.2c-.86 0-1.45-.85-1.16-1.65l6.73-18.81Zm62.23 4.3-1.06-1.6c-.8-1.2.05-2.8 1.5-2.82l7-.3 3.8-10.64h-17.84a8.02 8.02 0 0 0-7.55 5.32 7.36 7.36 0 0 0 .67 6.73l3.95 6.08c1 1.54 2.06 3.05 3.02 4.63a5.7 5.7 0 0 1-.03 6.06 6.1 6.1 0 0 1-5.2 3.1h-11.95l-1.9 5.33-1.9 5.32h18.05c6.49 0 12.28-4.08 14.47-10.2 1.2-3.18 1.17-6.8-.5-9.77a230.75 230.75 0 0 0-4.54-7.24Zm-40.01 11.06h14.5l3.03-10.13H134c3.42-3.96 6.53-5.51 15.85-5.06l3.35-11.23h-6.52c-13.22 0-25.01 8.3-29.47 20.75l-.37 1.05A15.53 15.53 0 0 0 131.47 86h9.04l3.4-11.43c-9.63.07-11.33-.38-13.09-4.72Zm73.81-26.42h-16.14l-.5 1.37-.49 1.38-.49 1.37-.49 1.37-.49 1.37-.49 1.37-.5 1.37-.48 1.38-.03.06h17a2.85 2.85 0 0 1 2.88 2.6 2.79 2.79 0 0 1-2.78 2.98h-19.1l-1.13 3.19-1.17 3.25-1.16 3.25-1.16 3.25-1.17 3.26-1.16 3.25-1.17 3.25-1.16 3.25h13.32l2.7-7.55 2.7-7.56h7.06c8.38 0 15.91-4.22 18.7-13.17 2.21-8.42-.28-14.22-13.1-14.29Z"/><path d="m184.56 54.4-.03.06h17a2.85 2.85 0 0 1 2.88 2.6 2.79 2.79 0 0 1-2.78 2.98h-19.09l2.02-5.64ZM54.75 33.34h3.91v.78h-2.97v2.4h2.74v.77H55.7v3.27h-.94v-7.22Zm18.33 4.96-.75 2.26h-.97l2.46-7.22h1.14l2.48 7.22h-1l-.78-2.27h-2.58Zm2.38-.74-.7-2.08c-.17-.47-.28-.9-.39-1.32h-.02c-.1.43-.22.87-.36 1.31l-.71 2.1h2.18Zm20.71 2.77c-.35.17-1.04.34-1.92.34-2.05 0-3.6-1.29-3.6-3.66s1.55-3.8 3.8-3.8c.9 0 1.48.2 1.73.33l-.23.76c-.35-.17-.86-.3-1.46-.3-1.7 0-2.84 1.08-2.84 2.98 0 1.77 1.02 2.9 2.8 2.9.56 0 1.15-.11 1.52-.3l.2.75Zm14.86-6.99v4.28c0 1.61.72 2.3 1.7 2.3 1.07 0 1.76-.7 1.76-2.3v-4.28h.95v4.21c0 2.22-1.18 3.13-2.75 3.13-1.49 0-2.6-.85-2.6-3.09v-4.25h.94Zm18.78 0h.94v6.44h3.1v.78h-4.03v-7.22Zm17.84.09c.57-.08 1.25-.15 2-.15 1.34 0 2.3.31 2.94.9a3.32 3.32 0 0 1 1.02 2.6c0 1.17-.37 2.14-1.04 2.8-.68.68-1.8 1.05-3.22 1.05-.66 0-1.22-.03-1.7-.09v-7.1Zm.94 6.4c.24.04.58.05.95.05 2 0 3.1-1.12 3.1-3.07 0-1.7-.97-2.79-2.95-2.79-.49 0-.85.05-1.1.1v5.7Zm20.01-1.53-.75 2.26h-.97l2.47-7.22h1.13l2.48 7.22h-1l-.78-2.27h-2.58Zm2.39-.74-.72-2.08c-.16-.47-.27-.9-.37-1.32h-.02a22 22 0 0 1-.37 1.31l-.71 2.1h2.19Zm15.79-4.13c.57-.08 1.25-.15 1.99-.15 1.35 0 2.3.31 2.94.9a3.32 3.32 0 0 1 1.03 2.6c0 1.17-.37 2.14-1.05 2.8-.68.68-1.8 1.05-3.21 1.05-.67 0-1.23-.03-1.7-.09v-7.1Zm.93 6.4c.24.04.58.05.95.05 2 0 3.1-1.12 3.1-3.07 0-1.7-.97-2.79-2.95-2.79-.48 0-.85.05-1.1.1v5.7Zm22.75-2.65h-2.82v2.6h3.15v.78h-4.09v-7.22h3.93v.78h-2.99v2.28h2.82v.78ZM4.38 106.34l-2.63-.87-1 3.02 2.62.87 1-3.02Zm3.44-7.14-2.62-.87-1.01 3.02 2.62.88 1.01-3.02Z"/><path d="m9.22 102.44-2.63-.87-1 3.02 2.62.88 1-3.03Z"/><path d="m12.2 100.67-2.62-.87-1 3.02 2.62.87 1-3.02Zm3.6 1.5-2.62-.88-1 3.02 2.62.88 1-3.02Z"/><path d="m16.92 105.47-2.63-.88-1 3.02 2.62.88 1-3.02Z"/><path d="m17.98 108.6-2.63-.88-1 3.02 2.62.88 1-3.02Zm4.24-3.97-2.63-.87-1 3.02 2.62.87 1-3.02Zm4.05-4.8-2.62-.87-1.01 3.02 2.62.87 1.01-3.02Zm3.67 1.6-2.79-.93-1 3.02 2.78.93 1.01-3.02Z"/><path d="m28.79 98.2-2.63-.88-1 3.02 2.62.88 1-3.02Z"/><path d="m27.4 95.1-2.63-.88-1 3.02 2.62.87 1-3.02Z"/><path d="m30.42 93.3-2.62-.87-1.01 3.02 2.62.88 1-3.02Zm-4.39-1.46-2.63-.88-1 3.02 2.62.88 1-3.02Z"/><path d="m23.08 93.3-2.62-.87-1.01 3.02 2.62.87 1-3.01Z"/><path d="m20.23 95.2-2.63-.87-1 3.02 2.62.87 1-3.02Z"/><path d="m17.16 97.05-2.63-.87-1 3.02 2.62.87 1-3.02Z"/><path d="m15.97 93.78-2.63-.88-1 3.02 2.62.88 1-3.02Zm-3.47-1.16-2.62-.88-1.01 3.02 2.62.88 1-3.02Z"/><path d="m9.49 94.22-2.63-.87-1 3.02 2.62.87 1-3.02Zm1.37-4.89-2.63-.88-1 3.02 2.62.88 1-3.02Zm11.24 1.2-2.63-.88-1 3.02 2.62.88 1-3.02Zm-4.34-1.59-2.62-.87-1.01 3.02 2.62.87 1.01-3.02Z"/><path d="m9.35 85.9-2.62-.88-1 3.02 2.61.87 1.01-3.02Z"/><path d="m12.57 84.2-2.62-.88-1.01 3.02 2.62.88 1-3.02Zm4.04 1.35L14 84.67l-1 3.02 2.61.88 1.01-3.02Zm4.15 1.57-2.62-.87-1.01 3.02 2.62.87 1.01-3.02Zm4.16 1.52-2.62-.87-1.01 3.02 2.62.87 1-3.02Z"/><path d="m23.63 85-2.62-.87-1.08 3.22 2.63.88L23.63 85Z"/><path d="M26.64 83.24 24 82.36l-1.07 3.23 2.62.87 1.08-3.22Zm4.35 2.23-2.62-.87-.8 2.38 2.62.87.8-2.38Zm3.91 1.13-2.14-.71-.72 2.13 2.14.72.72-2.14Zm-19.53-4.36-2.63-.87-1.07 3.22 2.62.88 1.08-3.23Zm-4.32-1.44-2.62-.88-1.08 3.23 2.63.87 1.07-3.22Z"/><path d="m28.09 86.5-2.63-.87-1.07 3.21 2.62.88 1.08-3.21Zm4.14 1.38L29.61 87l-1.08 3.23 2.63.87 1.07-3.22Z"/><path d="m33.32 91.32-2.62-.88-1.01 3.02 2.62.88 1.01-3.02Zm-8.14 17.66-2.62-.88-1.01 3.02 2.62.88 1.01-3.02ZM11 72.24l1.5.5-.89 2.7-1.5-.51-1 3 1.94.64.86-2.59 2.18.73-.9 2.69-1.73-.58-.64 1.9 1.64.55.6-1.77 1.87.63-.59 1.77 2.67.89.6-1.8 2.21.75-.6 1.8 2.18.72.59-1.77 2.06.69-.6 1.76 2.26.76.67-2 1.94.64-.67 2 2.75.92.59-1.76 1.84.61-.6 1.77 2.02.67.64-1.9-1.31-.44.9-2.69 1.3.44 2.97-8.87-1.53-.5.9-2.7 1.53.52L54.69 27.4a16.4 16.4 0 0 1-15.45 2.74c-5.27-1.77-9.03-6-10.49-11m8.52 55.7-.9 2.68-2.18-.73.87-2.6-1.99-.67.9-2.69 2.18.73-.87 2.6 1.99.67Zm-10.04-7.05.9-2.68 2.18.73-.9 2.68-2.18-.73Zm.71 3.92-.9 2.69-2.17-.73.9-2.68 2.17.72Zm1.07-2.54 2.18.73-.9 2.69-2.18-.73.9-2.69Zm2.74 6.8 2.18.73-.9 2.68-2.18-.72.9-2.69Zm10.51-23.55 1.82.61-.79 2.37-1.82-.6.79-2.38Zm-3.16 9.69 1.82.6-.79 2.37-1.82-.6.79-2.37ZM37 68.39l2.18.73-.9 2.68-2.18-.72.9-2.69Zm-2-1.28-2.18-.73.9-2.68 2.18.73-.9 2.68Zm-2.32-9.78 1.82.6-.79 2.38-1.82-.61.79-2.37Zm-1.75 5.44-2.18-.73.9-2.69 2.18.73-.9 2.69Zm-3.35-12.29 2.18.73-.9 2.69-2.18-.73.9-2.69Zm-1.07 11.1 2.18.73-.9 2.69-2.17-.73.9-2.69ZM26.44 68l-.9 2.69-2.18-.73.85-2.53-1.86-.62.9-2.69 2.18.73-.85 2.53 1.86.62Zm-3.15 2.17-.9 2.68-2.18-.72.9-2.69 2.18.73Zm.44-6.2-2.18-.73.9-2.69 2.18.73-.9 2.69Zm-1.47-3.8-2.18-.73.9-2.68 2.17.72-.9 2.69Zm-2.71-10.2 2.18.72-.9 2.69-2.18-.73.9-2.68Zm-1.8 9.01 2.17.73-.9 2.69-2.17-.73.9-2.69Zm1.68 9.64-.9 2.69-2.17-.73.9-2.69 2.17.73Zm-3.66-4.18 2.18.73-.9 2.68-2.18-.72.9-2.69Zm-1.93 5.78 2.18.73-.9 2.68-2.18-.73.9-2.68Zm2.31 6.9-2.18-.73.9-2.68 2.18.72-.9 2.69Zm1.08-2.62.9-2.69 2.18.73-.9 2.68-2.18-.72Zm1.35 3.43.9-2.68 2.18.72-.9 2.69-2.18-.73Zm3.56 4.36-2.18-.73.9-2.68 2.17.73-.9 2.68Zm1-2.84.9-2.68 1.97.66.9-2.69 2.17.73-.9 2.68-1.97-.65-.9 2.68-2.17-.73Zm3.29 4.18-2.18-.73.9-2.68 2.17.72-.9 2.69Zm1.16-2.85.9-2.68 2.17.72-.9 2.69-2.17-.73Zm3.57 4.63-2.14-.72.9-2.68 2.14.72-.9 2.68Zm1.12-2.9.9-2.69 2.18.73-.9 2.69-2.18-.73Z"/><path d="M57.9 18.75A14.17 14.17 0 0 0 49.16.73a14.17 14.17 0 0 0-17.88 9.05 14.17 14.17 0 0 0 8.76 18.03 14.17 14.17 0 0 0 17.88-9.06Z"/></g><defs><clipPath id="a"><path fill="#fff" transform="translate(.75)" d="M0 0h217.7v112H0z"/></clipPath></defs></svg>