<?xml version="1.0" encoding="UTF-8"?>
<svg id="Camada_2" data-name="Camada 2" xmlns="http://www.w3.org/2000/svg" viewBox="0 0 174.34 91.97">
  <defs>
    <style>
      .cls-1 {
        fill: #fff;
      }

      .cls-2 {
        fill: none;
        stroke: #fff;
        stroke-miterlimit: 10;
        stroke-width: 2px;
      }
    </style>
  </defs>
  <g id="Camada_1-2" data-name="Camada 1">
    <g>
      <path class="cls-2" d="M20.9,89.01S75.78,6.77,84.29,2.17s4.37,5.79,4.37,5.79c0,0-17.26,38.51-31.19,79.73-.35,1.04-.19,1.68.41,2.61.29.45.97.63,1.3.66,1.2.1,2.62-.47,2.62-2.17s-8.67-30.44-57.07-24.12c0,0,61.68-36.32,124.94-60.09"/>
      <g>
        <path class="cls-1" d="M87.17,57.95l2.72-17.24,6.27,13.78,6.39-13.81,2.55,17.26h-1.86l-1.54-11.36-5.56,12.05-5.48-12.05-1.62,11.36h-1.86Z"/>
        <path class="cls-1" d="M117.88,53.34h-6.95l-1.96,4.6h-2.01l7.52-17.11,7.32,17.11h-2.01l-1.91-4.6ZM117.16,51.63l-2.74-6.54-2.79,6.54h5.53Z"/>
        <path class="cls-1" d="M126.72,41.62c1.1,0,2.74.07,3.97.91.96.64,1.79,1.89,1.79,3.62,0,2.5-1.64,4.33-4.11,4.51l5.19,7.3h-2.2l-4.97-7.15h-.46v7.15h-1.81v-16.33h2.62ZM125.91,49.18h1.15c2.25,0,3.6-1.08,3.6-2.99,0-.91-.27-1.81-1.3-2.4-.74-.42-1.57-.46-2.35-.46h-1.1v5.85Z"/>
        <path class="cls-1" d="M148.87,45.22c-.51-.51-1.3-1.13-2.13-1.52-.86-.39-1.86-.64-2.82-.64-3.77,0-6.56,3.03-6.56,6.81,0,4.43,3.6,6.66,6.59,6.66,1.1,0,2.18-.32,3.04-.76.93-.46,1.59-1.08,1.89-1.37v2.25c-1.81,1.3-3.7,1.59-4.92,1.59-4.85,0-8.45-3.67-8.45-8.4s3.65-8.5,8.54-8.5c.98,0,2.86.12,4.82,1.62v2.25Z"/>
        <path class="cls-1" d="M154.02,41.62v16.33h-1.81v-16.33h1.81Z"/>
        <path class="cls-1" d="M157.35,49.79c0-4.87,3.79-8.45,8.49-8.45s8.5,3.57,8.5,8.45-3.77,8.45-8.5,8.45-8.49-3.6-8.49-8.45ZM159.21,49.79c0,3.75,2.96,6.73,6.63,6.73s6.64-2.99,6.64-6.73-2.96-6.73-6.64-6.73-6.63,2.99-6.63,6.73Z"/>
        <path class="cls-1" d="M84.73,80.64h-7.1l-2,4.7h-2.05l7.67-17.47,7.47,17.47h-2.05l-1.95-4.7ZM84.01,78.89l-2.8-6.67-2.85,6.67h5.65Z"/>
        <path class="cls-1" d="M94.06,70.41v14.92h-1.85v-14.92h-4.05v-1.75h9.95v1.75h-4.05Z"/>
        <path class="cls-1" d="M108.68,80.64h-7.1l-2,4.7h-2.05l7.67-17.47,7.47,17.47h-2.05l-1.95-4.7ZM107.96,78.89l-2.8-6.67-2.85,6.67h5.65Z"/>
        <path class="cls-1" d="M116.88,68.66v14.92h4.6v1.75h-6.45v-16.67h1.85Z"/>
        <path class="cls-1" d="M125.83,68.66v14.92h4.6v1.75h-6.45v-16.67h1.85Z"/>
        <path class="cls-1" d="M142.13,80.64h-7.1l-2,4.7h-2.05l7.67-17.47,7.47,17.47h-2.05l-1.95-4.7ZM141.4,78.89l-2.8-6.67-2.85,6.67h5.65Z"/>
      </g>
    </g>
  </g>
</svg>