<svg width="207" height="154" fill="none" xmlns="http://www.w3.org/2000/svg"><g clip-path="url(#a)" fill="#fff"><path d="M10.78 9.46h2.6v2.18h-2.86l-.4 3.2H7.85l.4-3.2H5.31l-.4 3.2H2.67l.4-3.2H.45V9.46h2.88l.42-3.24H1.13V4.04h2.88l.4-3.2h2.24l-.4 3.2H9.2l.4-3.2h2.24l-.4 3.2h2.6l.02 2.18h-2.88l-.4 3.24Zm-2.27 0 .42-3.24H6l-.42 3.24h2.94Zm19.76-3.54c0 3.12-2.34 5.06-6.09 5.06h-2.82v3.86h-3.24v-14h6.06c3.75 0 6.09 1.94 6.09 5.08Zm-3.29 0c0-1.54-1-2.44-2.98-2.44h-2.64v4.86H22c1.98 0 2.98-.9 2.98-2.42Zm4.92 1.92C29.9 3.68 33.12.6 37.55.6c4.42 0 7.66 3.06 7.66 7.24s-3.26 7.24-7.66 7.24-7.67-3.08-7.67-7.24Zm12.04 0a4.27 4.27 0 0 0-4.39-4.48 4.27 4.27 0 0 0-4.38 4.48 4.27 4.27 0 0 0 4.38 4.48c2.5 0 4.39-1.82 4.39-4.48Zm5.72-7h6.36c4.59 0 7.73 2.76 7.73 7s-3.14 7-7.73 7h-6.36v-14Zm6.2 11.34c2.79 0 4.6-1.66 4.6-4.34 0-2.68-1.81-4.34-4.6-4.34H50.9v8.68h2.97Zm9.45-4.34c0-4.22 3.24-7.24 7.6-7.24 2.43 0 4.45.88 5.77 2.48L74.6 5a4.51 4.51 0 0 0-3.52-1.64 4.3 4.3 0 0 0-4.48 4.48 4.3 4.3 0 0 0 4.48 4.48c1.4 0 2.58-.56 3.52-1.66l2.08 1.92c-1.32 1.62-3.34 2.5-5.78 2.5-4.35 0-7.59-3.02-7.59-7.24Zm24.5 4h-6.5l-1.25 3h-3.32L83 .84h3.2l6.26 14h-3.4l-1.24-3Zm-1.02-2.46-2.22-5.36-2.22 5.36h4.44Zm6.02 4.07 1.1-2.43a8.25 8.25 0 0 0 4.63 1.46c1.92 0 2.7-.64 2.7-1.5 0-2.63-8.15-.83-8.15-6.02C93.1 2.58 95.02.6 99 .6a9.4 9.4 0 0 1 4.87 1.24l-1 2.46a7.93 7.93 0 0 0-3.88-1.1c-1.92 0-2.66.72-2.66 1.6 0 2.58 8.14.8 8.14 5.94 0 2.34-1.94 4.34-5.94 4.34-2.22 0-4.46-.66-5.7-1.63Zm16.58-9.97h-4.49V.84h12.21v2.64h-4.48v11.36h-3.24V3.48ZM3.51 147.08c0-3.57 2.75-6.13 6.44-6.13 2.05 0 3.76.74 4.88 2.1l-1.76 1.62a3.83 3.83 0 0 0-2.98-1.39 3.63 3.63 0 0 0-3.8 3.8 3.64 3.64 0 0 0 3.8 3.78c1.19 0 2.19-.47 2.98-1.4l1.76 1.62a6.09 6.09 0 0 1-4.9 2.12c-3.67 0-6.42-2.56-6.42-6.13Zm12.17 0c0-3.53 2.74-6.13 6.49-6.13 3.74 0 6.48 2.59 6.48 6.13 0 3.53-2.76 6.12-6.48 6.12-3.73 0-6.5-2.6-6.5-6.12Zm10.2 0c0-2.26-1.6-3.8-3.71-3.8a3.62 3.62 0 0 0-3.71 3.8c0 2.25 1.59 3.79 3.7 3.79a3.62 3.62 0 0 0 3.72-3.8ZM41.51 153l-.01-7.11-3.5 5.86h-1.23l-3.48-5.71V153h-2.57v-11.85H33l4.44 7.36 4.37-7.36h2.25L44.1 153h-2.6Zm17.74 0-2.29-3.3h-2.52v3.3h-2.75v-11.85h5.14c3.17 0 5.15 1.64 5.15 4.3 0 1.78-.9 3.08-2.44 3.74l2.66 3.8h-2.95Zm-2.58-9.62h-2.24v4.13h2.24c1.68 0 2.52-.77 2.52-2.06 0-1.28-.84-2.06-2.52-2.06Zm16.65 7.42v2.2h-9.18v-11.84h8.96v2.2h-6.23v2.57h5.5v2.13h-5.5v2.74h6.45Zm2.18-9.65h2.75V153h-2.74v-11.85Zm16.44 0V153h-2.25l-5.92-7.2v7.2h-2.7v-11.85h2.26l5.9 7.2v-7.2h2.71Zm10.62 9.31h-5.5L96 153h-2.8l5.28-11.85h2.71l5.3 11.85h-2.87l-1.05-2.54Zm-.86-2.08-1.88-4.54-1.88 4.54h3.76Zm6.02-7.23h2.75v9.61h5.95V153h-8.7v-11.85Zm10.24 0h5.38c3.88 0 6.54 2.34 6.54 5.93s-2.66 5.92-6.54 5.92h-5.38v-11.85Zm5.25 9.6c2.36 0 3.9-1.4 3.9-3.67s-1.54-3.68-3.9-3.68h-2.5v7.34h2.5v.01Zm7.99-3.67c0-3.53 2.75-6.13 6.5-6.13 3.74 0 6.48 2.59 6.48 6.13 0 3.53-2.76 6.12-6.49 6.12-3.72 0-6.48-2.6-6.48-6.12Zm10.2 0c0-2.26-1.59-3.8-3.7-3.8a3.62 3.62 0 0 0-3.72 3.8c0 2.25 1.6 3.79 3.71 3.79a3.62 3.62 0 0 0 3.71-3.8Zm20.43 5.92-.01-7.11-3.5 5.86h-1.23l-3.47-5.71V153h-2.58v-11.85h2.27l4.44 7.36 4.37-7.36h2.25l.04 11.85h-2.58Zm4.64-5.92c0-3.53 2.75-6.13 6.5-6.13 3.74 0 6.48 2.59 6.48 6.13 0 3.53-2.76 6.12-6.49 6.12-3.73 0-6.49-2.6-6.49-6.12Zm10.2 0c0-2.26-1.6-3.8-3.7-3.8a3.61 3.61 0 0 0-3.72 3.8c0 2.25 1.6 3.79 3.71 3.79a3.62 3.62 0 0 0 3.71-3.8Zm7.13-3.7H180v-2.23h10.34v2.23h-3.79V153h-2.74v-9.62Zm15.23 7.08h-5.5l-1.05 2.54h-2.82l5.29-11.85h2.7l5.31 11.85h-2.88l-1.05-2.54Zm-.86-2.08-1.88-4.54-1.88 4.54h3.76ZM47.14 45.29c0 10.57-8 17.16-20.71 17.16H18.3v12.18H5.12V28.05h21.3c12.73 0 20.72 6.6 20.72 17.24Zm-13.32 0c0-4.33-2.73-6.86-8.2-6.86H18.3v13.64h7.33c5.46 0 8.2-2.53 8.2-6.79Zm43.11 20.29H57.2l-3.66 9.05H40.09l20.58-46.58h12.99l20.65 46.58H80.59l-3.67-9.05Zm-3.87-9.71-6-14.9-5.98 14.9h11.98Zm82.02-10.58c0 10.57-8 17.16-20.72 17.16h-24.78v12.18H96.39V28.05h37.97c12.73 0 20.72 6.6 20.72 17.24Zm-13.32 0c0-4.33-2.73-6.86-8.2-6.86h-23.98v13.64h23.98c5.47 0 8.2-2.53 8.2-6.79Z"/><path d="M154.43 51.35c0-13.98 11-24.22 25.91-24.22 14.92 0 25.91 10.24 25.91 24.22 0 13.97-11 24.22-25.9 24.22-14.93 0-25.92-10.25-25.92-24.22Zm38.5 0c0-8.06-5.53-13.31-12.59-13.31s-12.59 5.26-12.59 13.3c0 8.05 5.53 13.31 12.6 13.31 7.05 0 12.58-5.26 12.58-13.3ZM52.4 116.65H18.3v12.38H5.12V82.45h48.21c12.73 0 20.72 6.6 20.72 17.24 0 6.85-3.33 11.9-9.13 14.7l10.06 14.64H60.86l-8.46-12.38Zm.14-23.82H18.3v13.64h34.24c5.46 0 8.2-2.53 8.2-6.79s-2.74-6.85-8.2-6.85Zm62.56 26.02v10.18H77.69V82.45h36.56v10.18h-23.5v7.85h20.7v9.85h-20.7v8.52h24.37Zm16.4-25.95h-14.32V82.45h41.76V92.9h-14.25v36.13H131.5V92.9Z"/><path d="M154.43 105.74c0-13.97 11-24.22 25.91-24.22 14.92 0 25.91 10.25 25.91 24.22 0 13.97-11 24.22-25.9 24.22-14.93 0-25.92-10.25-25.92-24.22Zm38.5 0c0-8.05-5.53-13.3-12.59-13.3s-12.59 5.25-12.59 13.3 5.53 13.3 12.6 13.3c7.05 0 12.58-5.25 12.58-13.3Z"/></g><defs><clipPath id="a"><path fill="#fff" transform="translate(.45 .6)" d="M0 0h205.8v152.6H0z"/></clipPath></defs></svg>