<svg width="30" height="30" viewBox="0 0 30 30" fill="none" xmlns="http://www.w3.org/2000/svg">
<g clip-path="url(#clip0_4003_96)">
<path d="M3.04852 20.7083C2.19205 18.9185 1.75781 16.9981 1.75781 15.0002C1.75781 7.69847 7.69822 1.75806 15 1.75806C17.901 1.75806 20.6592 2.68519 22.9373 4.39823L20.7455 4.68681C20.2642 4.75015 19.9254 5.19165 19.9888 5.67288C20.0521 6.15417 20.4936 6.4929 20.9749 6.42956L25.0998 5.88651C25.581 5.82317 25.9198 5.38167 25.8565 4.90044L25.3134 0.775557C25.25 0.294326 24.8085 -0.0444629 24.3273 0.018877H24.3272C23.846 0.0822168 23.5072 0.523721 23.5706 1.00495L23.8149 2.86079C21.2689 1.00372 18.2118 0.000244141 15 0.000244141C10.9934 0.000244141 7.22654 1.56048 4.39336 4.3936C1.56029 7.22679 0 10.9936 0 15.0002C0 17.2628 0.492187 19.4385 1.46297 21.4671C1.6725 21.905 2.19727 22.0901 2.63514 21.8806C3.07295 21.671 3.25805 21.1462 3.04852 20.7083Z" fill="#F1FFF9"/>
<path d="M23.1294 13.6895L23.5688 13.4358C23.9891 13.1932 24.1332 12.6556 23.8905 12.2353L21.8397 8.68319C21.597 8.26284 21.0594 8.11876 20.6391 8.36151L20.1997 8.61523C19.1907 9.19776 17.9295 8.46956 17.9295 7.30448V6.79712C17.9295 6.31173 17.536 5.91821 17.0506 5.91821H12.949C12.4636 5.91821 12.0701 6.31173 12.0701 6.79712V7.30448C12.0701 8.46956 10.8089 9.19771 9.79989 8.61523L9.3605 8.36151C8.94015 8.11882 8.40261 8.26284 8.15991 8.68319L6.10913 12.2353C5.86644 12.6556 6.01046 13.1932 6.43081 13.4358L6.87021 13.6895C7.87919 14.272 7.87919 15.7284 6.87021 16.3109L6.43081 16.5646C6.01046 16.8073 5.86638 17.3448 6.10913 17.7652L8.15991 21.3172C8.40261 21.7376 8.94015 21.8817 9.3605 21.6389L9.79989 21.3852C10.8089 20.8027 12.0701 21.5309 12.0701 22.6959V23.2034C12.0701 23.6888 12.4636 24.0823 12.949 24.0823H17.0506C17.536 24.0823 17.9295 23.6888 17.9295 23.2034V22.696C17.9295 21.5309 19.1907 20.8028 20.1997 21.3853L20.6391 21.639C21.0594 21.8817 21.597 21.7376 21.8397 21.3173L23.8905 17.7652C24.1332 17.3449 23.9891 16.8073 23.5688 16.5646L23.1294 16.311C22.1204 15.7284 22.1204 14.272 23.1294 13.6895ZM14.9998 18.3694C13.1391 18.3694 11.6307 16.8609 11.6307 15.0002C11.6307 13.1395 13.1391 11.6311 14.9998 11.6311C16.8605 11.6311 18.3689 13.1395 18.3689 15.0002C18.3689 16.8609 16.8605 18.3694 14.9998 18.3694Z" fill="#F1FFF9"/>
<path d="M28.5369 8.53343C28.3273 8.09556 27.8026 7.91046 27.3647 8.12C26.9269 8.32953 26.7418 8.85429 26.9513 9.29216C27.8078 11.082 28.242 13.0025 28.242 15.0003C28.242 22.3021 22.3016 28.2425 14.9998 28.2425C12.0989 28.2425 9.34068 27.3154 7.0625 25.6023L9.25437 25.3137C9.7356 25.2504 10.0744 24.8089 10.0111 24.3277C9.94771 23.8464 9.50621 23.5077 9.02498 23.571L4.90004 24.114C4.41881 24.1774 4.08002 24.6189 4.14336 25.1001L4.68646 29.225C4.7498 29.7062 5.19131 30.045 5.67254 29.9817C6.15377 29.9183 6.49261 29.4768 6.42927 28.9956L6.18494 27.1398C8.73095 28.9968 11.7881 30.0003 14.9998 30.0003C19.0065 30.0003 22.7733 28.4401 25.6065 25.6069C28.4395 22.7738 29.9998 19.0069 29.9998 15.0003C29.9998 12.7378 29.5077 10.562 28.5369 8.53343Z" fill="#F1FFF9"/>
</g>
<defs>
<clipPath id="clip0_4003_96">
<rect width="30" height="30" fill="white" transform="translate(0 0.000244141)"/>
</clipPath>
</defs>
</svg>
