<svg width="30" height="30" viewBox="0 0 30 30" fill="none" xmlns="http://www.w3.org/2000/svg">
<g clip-path="url(#clip0_4003_112)">
<path d="M3.09406 0.000244141C4.26658 0.000244141 5.22045 0.954113 5.22045 2.12663C5.22045 2.40051 5.16783 2.6622 5.07313 2.90285L6.65771 4.48743L5.66177 5.89719L3.87028 4.1057C3.62963 4.2004 3.36794 4.25302 3.09406 4.25302C1.92155 4.25302 0.967677 3.29915 0.967677 2.12663C0.967677 0.954113 1.92155 0.000244141 3.09406 0.000244141Z" fill="#F1FFF9"/>
<path d="M10.7774 10.6606C10.3076 10.6606 9.92682 10.2798 9.92682 9.81003C9.92682 9.34028 10.3076 8.95947 10.7774 8.95947C11.2471 8.95947 11.6279 9.34028 11.6279 9.81003C11.6279 10.2798 11.2471 10.6606 10.7774 10.6606Z" fill="#F1FFF9"/>
<path d="M18.6026 15.4235C18.1328 15.4235 17.752 15.0427 17.752 14.573C17.752 14.1032 18.1328 13.7224 18.6026 13.7224C19.0723 13.7224 19.4531 14.1032 19.4531 14.573C19.4531 15.0427 19.0723 15.4235 18.6026 15.4235Z" fill="#F1FFF9"/>
<path d="M18.6026 7.14496C18.1328 7.14496 17.752 6.76415 17.752 6.2944C17.752 5.82465 18.1328 5.44385 18.6026 5.44385C19.0723 5.44385 19.4531 5.82465 19.4531 6.2944C19.4531 6.76415 19.0723 7.14496 18.6026 7.14496Z" fill="#F1FFF9"/>
<path d="M8.22579 9.80997C8.22579 11.217 9.37046 12.3616 10.7775 12.3616C12.1844 12.3616 13.3291 11.217 13.3291 9.80997C13.3291 9.73926 13.3255 9.66946 13.3198 9.60023L16.7585 8.05528C17.0321 8.34169 17.3713 8.56465 17.752 8.69971V12.1677C16.762 12.5188 16.0509 13.4642 16.0509 14.5731C16.0509 15.9801 17.1956 17.1247 18.6026 17.1247C20.0095 17.1247 21.1542 15.9801 21.1542 14.5731C21.1542 13.4642 20.4431 12.5188 19.4531 12.1677V8.69971C20.4431 8.34861 21.1542 7.40319 21.1542 6.29435C21.1542 4.88736 20.0095 3.74268 18.6026 3.74268C17.1956 3.74268 16.0509 4.88736 16.0509 6.29435C16.0509 6.36506 16.0546 6.43486 16.0602 6.50409L12.6215 8.04904C12.1565 7.56241 11.5021 7.25831 10.7775 7.25831C10.384 7.25831 10.0112 7.34796 9.67802 7.50769L6.65776 4.48743C6.91712 4.17046 7.19361 3.86448 7.48705 3.57099C9.78967 1.26836 12.8512 0.000244141 16.1076 0.000244141C19.364 0.000244141 22.4255 1.26836 24.7281 3.57099C27.0308 5.87361 28.2989 8.93509 28.2989 12.1915V13.7384L29.9458 18.1303C30.0438 18.3914 30.0074 18.6841 29.8485 18.9134C29.6896 19.1427 29.4284 19.2795 29.1494 19.2795H27.1648V21.2641C27.1648 23.2964 25.5114 24.9498 23.4791 24.9498H22.6285V28.1819C22.6285 28.6517 22.2477 29.0325 21.778 29.0325H10.4372C9.96749 29.0325 9.58667 28.6517 9.58667 28.1819V22.3145C6.02625 20.1001 3.91631 16.3517 3.91631 12.1915C3.91631 9.93761 4.52423 7.77732 5.66176 5.89714L8.47511 8.71049C8.31544 9.04368 8.22579 9.41651 8.22579 9.80997Z" fill="#F1FFF9"/>
</g>
<defs>
<clipPath id="clip0_4003_112">
<rect width="30" height="30" fill="white" transform="matrix(-1 0 0 1 30 0.000244141)"/>
</clipPath>
</defs>
</svg>
