<svg width="28" height="30" viewBox="0 0 28 30" fill="none" xmlns="http://www.w3.org/2000/svg">
<path d="M22.6234 6.20761L24.5063 4.32482C24.8495 3.98158 24.8495 3.42511 24.5063 3.08187C24.1631 2.73863 23.6066 2.73869 23.2633 3.08187L21.3805 4.96467C21.0372 5.30785 21.0372 5.86437 21.3805 6.20761C21.7236 6.5508 22.2801 6.55092 22.6234 6.20761Z" fill="#F1FFF9"/>
<path d="M26.709 10.3557H24.8262C24.3408 10.3557 23.9473 10.7492 23.9473 11.2346C23.9473 11.72 24.3408 12.1135 24.8262 12.1135H26.709C27.1944 12.1135 27.5879 11.72 27.5879 11.2346C27.5879 10.7492 27.1944 10.3557 26.709 10.3557Z" fill="#F1FFF9"/>
<path d="M16.3535 3.64085C16.8389 3.64085 17.2324 3.24733 17.2324 2.76194V0.87915C17.2324 0.39376 16.8389 0.000244141 16.3535 0.000244141C15.8681 0.000244141 15.4746 0.39376 15.4746 0.87915V2.76194C15.4746 3.24733 15.8681 3.64085 16.3535 3.64085Z" fill="#F1FFF9"/>
<path d="M0.669431 21.91C0.326482 22.2528 0.326189 22.8097 0.669431 23.1529L4.43508 26.9185C4.7782 27.2617 5.33472 27.2618 5.67803 26.9185L7.15084 25.4458L2.1423 20.4373L0.669431 21.91Z" fill="#F1FFF9"/>
<path d="M15.8863 22.6196L9.71484 25.5239L13.9338 29.7428C14.2769 30.086 14.8335 30.0861 15.1767 29.7428L18.4716 26.4479C18.8149 26.1047 18.8149 25.5482 18.4716 25.205L15.8863 22.6196Z" fill="#F1FFF9"/>
<path d="M12.2679 3.08188C12.0656 2.8795 11.7773 2.78838 11.4953 2.83754C11.2134 2.88676 10.9731 3.07016 10.8512 3.32915L3.38525 19.1942L8.39379 24.2028L24.2589 16.7369C24.5179 16.615 24.7013 16.3746 24.7505 16.0927C24.7997 15.8107 24.7086 15.5225 24.5062 15.3201L12.2679 3.08188Z" fill="#F1FFF9"/>
</svg>
