<svg width="40" height="40" viewBox="0 0 40 40" fill="none" xmlns="http://www.w3.org/2000/svg">
<path d="M20 3.60359C25.3402 3.60359 25.9728 3.62398 28.0818 3.72016C30.261 3.81961 32.507 4.31695 34.0949 5.90477C35.698 7.50773 36.18 9.7318 36.2798 11.9182C36.376 14.0272 36.3963 14.6597 36.3963 19.9999C36.3963 25.3402 36.3759 25.9727 36.2798 28.0816C36.1809 30.2498 35.6736 32.5163 34.0952 34.0948C32.4913 35.6987 30.2701 36.1798 28.0816 36.2798C25.973 36.376 25.3405 36.3963 19.9999 36.3963C14.6593 36.3963 14.0269 36.3759 11.9181 36.2798C9.7668 36.1816 7.47055 35.6606 5.905 34.0952C4.31047 32.5006 3.8193 30.2559 3.72008 28.0816C3.62383 25.9727 3.60352 25.3402 3.60352 19.9999C3.60352 14.6597 3.62391 14.0271 3.72008 11.9181C3.81867 9.75781 4.33234 7.47742 5.90469 5.905C7.50461 4.305 9.73594 3.81969 11.9181 3.72008C14.0272 3.62398 14.6598 3.60359 20 3.60359ZM20 0C14.5684 0 13.8873 0.0229687 11.754 0.120312C8.66117 0.261484 5.59234 1.12133 3.3568 3.35672C1.11289 5.60063 0.261328 8.66352 0.120312 11.7541C0.0229687 13.8873 0 14.5683 0 20C0 25.4317 0.0229687 26.1127 0.120312 28.246C0.26125 31.3339 1.12578 34.4122 3.35672 36.6431C5.59789 38.8844 8.66703 39.7388 11.754 39.8796C13.8873 39.977 14.5684 40 20 40C25.4317 40 26.1127 39.977 28.246 39.8797C31.3355 39.7388 34.4102 38.8763 36.6432 36.6433C38.888 34.3986 39.7387 31.3372 39.8797 28.246C39.977 26.1127 40 25.4317 40 20C40 14.5684 39.977 13.8873 39.8797 11.754C39.7387 8.66289 38.8771 5.59078 36.6433 3.35687C34.4053 1.11883 31.3274 0.260937 28.2459 0.120312C26.1127 0.0229687 25.4317 0 20 0Z" fill="#F2F1FF"/>
<path d="M20 9.72949C14.3279 9.72949 9.72968 14.3276 9.72968 19.9998C9.72968 25.6719 14.3279 30.27 20 30.27C25.6721 30.27 30.2703 25.6719 30.2703 19.9998C30.2703 14.3277 25.6721 9.72949 20 9.72949ZM20 26.6664C16.3181 26.6664 13.3333 23.6817 13.3333 19.9998C13.3333 16.3179 16.3181 13.3332 20 13.3332C23.6819 13.3332 26.6666 16.3179 26.6666 19.9998C26.6666 23.6817 23.6819 26.6664 20 26.6664Z" fill="#F2F1FF"/>
<path d="M30.6761 11.7238C32.0016 11.7238 33.0761 10.6493 33.0761 9.32383C33.0761 7.99834 32.0016 6.92383 30.6761 6.92383C29.3506 6.92383 28.2761 7.99834 28.2761 9.32383C28.2761 10.6493 29.3506 11.7238 30.6761 11.7238Z" fill="#F2F1FF"/>
</svg>
