<svg width="22" height="30" viewBox="0 0 22 30" fill="none" xmlns="http://www.w3.org/2000/svg">
<g clip-path="url(#clip0_393_323)">
<path d="M12.3578 29.25C15.2969 25.4883 22 16.3711 22 11.25C22 5.03906 17.0729 0 11 0C4.92708 0 0 5.03906 0 11.25C0 16.3711 6.70313 25.4883 9.64219 29.25C10.3469 30.1465 11.6531 30.1465 12.3578 29.25ZM11 7.5C11.9725 7.5 12.9051 7.89509 13.5927 8.59835C14.2804 9.30161 14.6667 10.2554 14.6667 11.25C14.6667 12.2446 14.2804 13.1984 13.5927 13.9017C12.9051 14.6049 11.9725 15 11 15C10.0275 15 9.09491 14.6049 8.40728 13.9017C7.71964 13.1984 7.33333 12.2446 7.33333 11.25C7.33333 10.2554 7.71964 9.30161 8.40728 8.59835C9.09491 7.89509 10.0275 7.5 11 7.5Z" fill="#F2F1FF"/>
</g>
<defs>
<clipPath id="clip0_393_323">
<rect width="22" height="30" fill="white"/>
</clipPath>
</defs>
</svg>
