<svg width="24" height="24" viewBox="0 0 24 24" fill="none" xmlns="http://www.w3.org/2000/svg">
<g clip-path="url(#clip0_393_319)">
<path d="M7.72969 1.15272C7.36875 0.280842 6.41719 -0.18322 5.50781 0.0652171L1.38281 1.19022C0.567188 1.41522 0 2.15584 0 2.99959C0 14.5965 9.40313 23.9996 21 23.9996C21.8438 23.9996 22.5844 23.4324 22.8094 22.6168L23.9344 18.4918C24.1828 17.5824 23.7188 16.6308 22.8469 16.2699L18.3469 14.3949C17.5828 14.0762 16.6969 14.2965 16.1766 14.9387L14.2828 17.2496C10.9828 15.6887 8.31094 13.0168 6.75 9.71678L9.06094 7.82772C9.70313 7.30272 9.92344 6.42147 9.60469 5.6574L7.72969 1.1574V1.15272Z" fill="#F2F1FF"/>
</g>
<defs>
<clipPath id="clip0_393_319">
<rect width="24" height="24" fill="white"/>
</clipPath>
</defs>
</svg>
