<svg width="30" height="30" viewBox="0 0 30 30" fill="none" xmlns="http://www.w3.org/2000/svg">
<path d="M10.1221 17.521L18.5189 9.12412L20.2605 10.8657L11.8636 19.2626L10.1221 17.521Z" fill="#F1FFF9"/>
<path d="M21.0313 7.47827C20.7949 7.47827 20.574 7.569 20.4092 7.73381L20.0151 8.12783L21.2593 9.37198L21.6533 8.97797C21.9918 8.65387 21.9918 8.05792 21.6533 7.73381C21.4886 7.569 21.2676 7.47827 21.0313 7.47827Z" fill="#F1FFF9"/>
<path d="M8.66797 20.7195L10.2624 20.1478L9.2397 19.125L8.66797 20.7195Z" fill="#F1FFF9"/>
<path d="M25.6315 4.36872C20.0423 -1.45577 9.98666 -1.45612 4.39771 4.36889C-0.284371 8.91602 -1.34988 16.4922 1.83022 22.1742L0.0299965 28.8927C-0.051352 29.1963 0.035451 29.5203 0.257679 29.7425C0.480082 29.9657 0.807294 30.0513 1.10747 29.9702L7.82602 28.17C13.5086 31.3498 21.0837 30.2848 25.6315 25.6024C31.456 20.0141 31.4563 9.95707 25.6315 4.36872ZM22.6695 15.9245L19.0614 19.5324C18.787 19.8069 18.787 20.2536 19.0614 20.528L19.1858 20.6524C19.5294 20.996 19.5294 21.553 19.1858 21.8966C18.8423 22.2402 18.2851 22.2402 17.9416 21.8966L17.8172 21.7722C16.8568 20.8117 16.8568 19.2489 17.8172 18.2883L21.4253 14.6803C22.1051 14.0288 22.1051 12.8437 21.4255 12.1922L12.4887 21.1289C12.3973 21.2204 12.2848 21.2918 12.1631 21.3354L7.50779 23.0047C7.19084 23.1191 6.83002 23.0405 6.58879 22.7986C6.34808 22.5579 6.26785 22.2 6.38275 21.8796L8.052 17.2244C8.09564 17.1027 8.16714 16.9902 8.25857 16.8987C8.25869 16.8986 17.9003 7.25697 17.9003 7.25697C18.1036 7.05363 18.3816 6.97163 18.646 7.00894L19.1652 6.4897C20.1443 5.46871 21.9187 5.46859 22.8977 6.48976C23.9188 7.4687 23.9188 9.24329 22.8977 10.2222L22.4208 10.6992L22.6695 10.9479C24.0319 12.2543 24.0319 14.618 22.6695 15.9245Z" fill="#F1FFF9"/>
</svg>
